<svg xmlns="http://www.w3.org/2000/svg" width="760" height="600" viewBox="0 0 760 600"><path fill="#f1f5f9" d="M0 0h760v600H0z"/><path fill="#0f172a" d="M186.2 51.7h-3.6V34.3h3.6V39l-.1 4q.1-.1.2-.3.5-.8 1.1-1.6t1.4-1.8l4.3-5h4.4l-6.6 7.5 6.8 9.9h-4.3l-4.9-7.5-2.3 2.5zm18.9.3q-2 0-3.5-.8-1.4-.9-2.2-2.4t-.8-3.5q0-2.1.8-3.6t2.2-2.4q1.4-.8 3.3-.8 1.3 0 2.4.4t2 1.2q.8.8 1.3 2.1.5 1.2.5 2.9v1h-9q0 1 .4 1.7.4.8 1 1.2.7.3 1.6.3.7 0 1.2-.1.5-.2.8-.6.4-.3.6-.8l3.2.6q-.4 1.1-1.1 1.9-.8.8-2 1.2-1.2.5-2.7.5m-3-8.1h5.6q-.1-.7-.3-1.2-.3-.8-.9-1.2-.7-.4-1.6-.4t-1.5.4q-.7.5-1 1.2-.2.5-.3 1.2m10.7 12.5.8-2.7.4.1q.7.2 1.3.1.5 0 .8-.4.4-.4.5-1v-.7l-4.9-13.2h3.8l2.2 6.8q.4 1.3.6 2.6.1.4.2.9.1-.5.2-.9.3-1.3.7-2.6l2.3-6.8h3.7l-5.5 14.7q-.4 1-1.1 1.8-.6.8-1.5 1.2t-2.2.4q-.7 0-1.4-.1-.6-.1-.9-.2m22.6-4.7h-3.5V34.3h3.5v7h7.7v-7h3.5v17.4h-3.5v-7.4h-7.7zm17.2 0h-3.5V38.6h3.5zm-1.7-14.8q-.8 0-1.4-.5-.5-.5-.5-1.3 0-.7.5-1.3.6-.5 1.4-.5t1.3.5q.6.6.6 1.3 0 .8-.6 1.3-.5.5-1.3.5m10 15.1q-2 0-3.4-.8-1.5-.9-2.2-2.4-.8-1.5-.8-3.5 0-2.1.7-3.6.8-1.5 2.2-2.4 1.5-.8 3.4-.8 1.3 0 2.4.4t1.9 1.2q.9.8 1.3 2.1.5 1.2.5 2.9v1H258q0 1 .3 1.7.4.8 1.1 1.2.7.3 1.6.3.6 0 1.1-.1.5-.2.9-.6.3-.3.5-.8l3.2.6q-.3 1.1-1.1 1.9t-1.9 1.2q-1.2.5-2.8.5m-2.9-8.1h5.5q0-.7-.2-1.2-.4-.8-1-1.2t-1.5-.4-1.6.4q-.6.5-.9 1.2-.3.5-.3 1.2m14.2 7.8h-3.5V38.6h3.4v2.3h.2q.3-1.2 1.2-1.8.8-.6 1.9-.6h.6q.3 0 .6.1v3.1q-.3-.1-.7-.1-.5-.1-.9-.1-.8 0-1.4.4-.6.3-1 .9-.4.7-.4 1.5zm9.4.3q-1.3 0-2.3-.5-1-.4-1.5-1.3-.6-.8-.6-2.1 0-1.1.4-1.9.4-.7 1.1-1.1.7-.5 1.6-.7.9-.3 1.8-.4 1.2-.1 1.9-.2t1-.3.3-.6v-.1q0-.5-.2-.9-.3-.4-.7-.6-.5-.2-1.1-.2-.7 0-1.2.2t-.8.5q-.4.4-.5.8l-3.2-.5q.3-1.2 1.1-2t1.9-1.2q1.2-.4 2.7-.4 1 0 2 .2 1 .3 1.8.8t1.3 1.4q.4.8.4 2v8.8h-3.3v-1.8h-.1q-.3.6-.9 1.1-.5.4-1.2.7-.8.3-1.7.3m.9-2.5q.9 0 1.5-.3t1-.9q.3-.6.3-1.3v-1.4q-.1.1-.4.2t-.7.2-.8.1q-.4.1-.7.1-.6.1-1.1.3t-.8.6q-.2.3-.2.9 0 .5.2.8.3.4.7.5.5.2 1 .2m12.2 2.2h-3.5V38.6h3.4v2.3h.2q.3-1.2 1.2-1.8.8-.6 1.9-.6h.6q.3 0 .6.1v3.1q-.3-.1-.7-.1-.5-.1-.9-.1-.8 0-1.4.4-.6.3-1 .9-.4.7-.4 1.5zm11.6.3q-2 0-3.5-.9-1.4-.8-2.2-2.3-.7-1.5-.7-3.6 0-2 .7-3.5.8-1.5 2.2-2.4 1.5-.8 3.5-.8 1.1 0 2.1.3t1.8.8q.7.6 1.2 1.4t.7 1.8l-3.3.6q-.1-.5-.3-.9t-.6-.7q-.3-.3-.7-.4-.4-.2-.9-.2-.9 0-1.6.5-.6.5-.9 1.4-.4.9-.4 2.1t.4 2.1q.3.9.9 1.4.7.5 1.6.5.5 0 .9-.1.4-.2.8-.5.3-.3.5-.7t.3-1l3.3.6q-.2 1.1-.7 1.9t-1.2 1.4q-.8.6-1.8.9t-2.1.3m11.1-7.9v7.6h-3.5V34.3h3.5v6.8q.5-1.1 1.3-1.7 1-.9 2.7-.9 1.3 0 2.3.6 1.1.5 1.6 1.7.6 1.1.6 2.6v8.3h-3.6V44q0-1.2-.6-1.9t-1.7-.7q-.8 0-1.3.3-.6.4-.9 1-.4.6-.4 1.4m10.8 12.3.8-2.7.4.1q.7.2 1.3.1.5 0 .9-.4.3-.4.4-1v-.7l-4.9-13.2h3.8l2.2 6.8q.4 1.3.6 2.6.1.4.2.9.1-.5.2-.9.3-1.3.8-2.6l2.2-6.8h3.7l-5.5 14.7q-.4 1-1 1.8-.7.8-1.6 1.2t-2.2.4q-.7 0-1.3-.1-.7-.1-1-.2m24.3-4.4q-1.8 0-3.1-.7-1.3-.6-2-1.7-.8-1.1-.8-2.5 0-1 .5-1.8.4-.8 1.1-1.5.7-.6 1.7-1.3-.1-.1-.2-.1-.6-.9-1.1-1.8-.4-1-.4-2.1 0-1.3.6-2.3t1.6-1.6q1.1-.5 2.5-.5t2.4.5q1 .6 1.6 1.5.5.9.5 2.1 0 .8-.3 1.5t-.8 1.3-1.2 1.2l-1 .7 2.9 3.4q.2-.3.3-.6.4-1.1.4-2.4h3q0 1.6-.4 2.9-.3 1.2-.9 2.2-.2.1-.3.3l2.6 3H358l-1-1.2q-1 .8-2.1 1.1-1.2.4-2.4.4m2.5-3.6-3.3-3.8-.2.1q-.7.6-1.1 1.1-.3.5-.3 1.2 0 .6.3 1.1t.9.8q.5.3 1.3.3.9 0 1.9-.5.3-.1.5-.3m-2.7-7.5 1-.6.6-.6q.3-.3.5-.6.2-.4.2-.8 0-.6-.5-1-.4-.4-1.2-.4-.5 0-.9.2t-.6.6q-.2.3-.2.8 0 .6.3 1.2.3.5.8 1.1zM374 51.7h-6.1V34.3h6.2q2.6 0 4.5 1 1.9 1.1 2.9 3 1 2 1 4.7t-1 4.7q-1 1.9-2.9 3-1.9 1-4.6 1m-2.5-14.3v11.2h2.4q1.6 0 2.8-.5 1.1-.6 1.7-1.9t.6-3.2q0-2-.6-3.2-.6-1.3-1.7-1.9-1.1-.5-2.8-.5zM390.4 52q-2 0-3.4-.9-1.5-.8-2.2-2.3-.8-1.5-.8-3.6 0-2 .8-3.5.7-1.5 2.2-2.4 1.4-.8 3.4-.8t3.4.8q1.4.9 2.2 2.4t.8 3.5q0 2.1-.8 3.6t-2.2 2.3q-1.4.9-3.4.9m0-2.8q.9 0 1.6-.5.6-.5.9-1.4t.3-2.1q0-1.1-.3-2t-.9-1.5q-.7-.5-1.6-.5t-1.6.5q-.6.6-.9 1.5t-.3 2q0 1.2.3 2.1t.9 1.4q.7.5 1.6.5m11.8 2.5h-3.5V38.6h3.2l.2 2.6q.2-.8.6-1.3.6-.7 1.4-1.1t1.7-.4q1.4 0 2.3.9.7.7 1.1 2.1.2-.8.7-1.4.7-.8 1.6-1.2t1.9-.4q1.2 0 2.1.6 1 .5 1.5 1.5.6 1 .6 2.4v8.8H414v-8.1q0-1.2-.6-1.7t-1.4-.5q-.7 0-1.2.3-.5.2-.7.8-.3.5-.3 1.2v8h-3.4v-8.2q0-1-.6-1.6-.5-.5-1.4-.5-.7 0-1.2.3-.5.2-.7.8-.3.5-.3 1.3zm21.4.3q-1.2 0-2.2-.5-1-.4-1.6-1.3-.5-.8-.5-2.1 0-1.1.4-1.9.4-.7 1.1-1.1.7-.5 1.5-.7.9-.3 1.9-.4 1.1-.1 1.8-.2t1.1-.3q.3-.2.3-.6v-.1q0-.5-.3-.9-.2-.4-.7-.6-.4-.2-1.1-.2t-1.2.2-.8.5q-.3.4-.4.8l-3.3-.5q.4-1.2 1.2-2 .7-.8 1.9-1.2t2.6-.4q1.1 0 2.1.2 1 .3 1.8.8t1.2 1.4q.5.8.5 2v8.8h-3.3v-1.8h-.2q-.3.6-.8 1.1-.5.4-1.3.7-.7.3-1.7.3m1-2.5q.8 0 1.5-.3.6-.3.9-.9.4-.6.4-1.3v-1.4q-.2.1-.5.2t-.7.2-.7.1q-.4.1-.7.1-.6.1-1.1.3t-.8.6q-.3.3-.3.9 0 .5.3.8.2.4.7.5.4.2 1 .2m12.2 2.2h-3.5V38.6h3.5zm-1.7-14.8q-.8 0-1.4-.5t-.6-1.3q0-.7.6-1.3.6-.5 1.4-.5.7 0 1.3.5.6.6.6 1.3 0 .8-.6 1.3t-1.3.5m7.6 7.2v7.6h-3.5V38.6h3.3l.1 2.7q.5-1.2 1.3-1.9 1.1-.9 2.7-.9 1.4 0 2.4.6 1 .5 1.6 1.7.5 1.1.5 2.6v8.3h-3.5V44q0-1.2-.6-1.9t-1.7-.7q-.8 0-1.4.3-.5.4-.9 1-.3.6-.3 1.4m22.4 7.9q-2.1 0-3.6-.7-1.6-.6-2.5-1.9-.8-1.2-.9-3.1h3.5q.1.9.5 1.5.5.6 1.2.9.8.3 1.8.3.9 0 1.6-.3t1.1-.8.4-1.2q0-.6-.3-1-.4-.4-1-.7-.7-.3-1.7-.5l-1.9-.5q-2.2-.5-3.5-1.7-1.2-1.1-1.2-3 0-1.6.8-2.8.9-1.2 2.4-1.8 1.5-.7 3.3-.7 2 0 3.4.7 1.5.7 2.3 1.8.8 1.2.8 2.8h-3.5q0-1.1-.8-1.7t-2.2-.6q-.9 0-1.5.3-.7.3-1 .7-.3.5-.3 1.1t.3 1q.4.5 1.1.7.6.3 1.3.5l1.6.4q1.1.2 2.1.6.9.4 1.6 1.1.8.6 1.1 1.4.4.9.4 2 0 1.5-.8 2.7t-2.3 1.8q-1.5.7-3.6.7m14.6 0q-2 0-3.5-.8-1.5-.9-2.2-2.4-.8-1.5-.8-3.5 0-2.1.8-3.6.7-1.5 2.2-2.4 1.4-.8 3.3-.8 1.3 0 2.4.4t1.9 1.2q.9.8 1.4 2.1.4 1.2.4 2.9v1h-8.9q0 1 .4 1.7.3.8 1 1.2.7.3 1.6.3.6 0 1.1-.1.5-.2.9-.6.4-.3.5-.8l3.2.6q-.3 1.1-1.1 1.9t-1.9 1.2q-1.2.5-2.7.5m-3-8.1h5.5q0-.7-.2-1.2-.4-.8-1-1.2t-1.5-.4-1.5.4q-.7.5-1 1.2-.3.5-.3 1.2m14.2 12.7h-3.5v-18h3.5v2.2h.2q.2-.5.7-1 .4-.6 1.1-1 .8-.3 1.9-.3 1.4 0 2.7.7 1.2.8 1.9 2.3t.7 3.7-.7 3.7-1.9 2.3-2.7.8q-1.1 0-1.8-.4-.8-.4-1.2-.9-.5-.5-.7-1.1h-.2zm2.8-7.5q.9 0 1.5-.5.7-.5 1-1.4t.3-2q0-1.2-.3-2-.3-.9-1-1.4-.6-.5-1.5-.5t-1.5.5q-.7.5-1 1.3-.3.9-.3 2.1t.3 2.1q.3.8 1 1.3.6.5 1.5.5m11.9 2.9q-1.2 0-2.2-.5-1-.4-1.6-1.3-.5-.8-.5-2.1 0-1.1.4-1.9.4-.7 1.1-1.1.7-.5 1.5-.7.9-.3 1.9-.4 1.1-.1 1.8-.2t1.1-.3q.3-.2.3-.6v-.1q0-.5-.3-.9-.2-.4-.7-.6-.4-.2-1.1-.2t-1.2.2-.8.5q-.3.4-.4.8l-3.3-.5q.4-1.2 1.2-2 .7-.8 1.9-1.2t2.6-.4q1.1 0 2.1.2 1 .3 1.8.8t1.2 1.4q.5.8.5 2v8.8h-3.3v-1.8h-.1q-.4.6-.9 1.1-.5.4-1.3.7-.7.3-1.7.3m1-2.5q.8 0 1.5-.3.6-.3 1-.9.3-.6.3-1.3v-1.4q-.1.1-.5.2-.3.1-.7.2t-.7.1q-.4.1-.7.1-.6.1-1.1.3t-.8.6q-.3.3-.3.9 0 .5.3.8.2.4.7.5.4.2 1 .2m12.2 2.2h-3.5V38.6h3.4v2.3h.1q.4-1.2 1.2-1.8.9-.6 2-.6h.6q.3 0 .5.1v3.1q-.2-.1-.6-.1-.5-.1-.9-.1-.8 0-1.4.4-.7.3-1 .9-.4.7-.4 1.5zm9.3.3q-1.2 0-2.2-.5-1-.4-1.6-1.3-.5-.8-.5-2.1 0-1.1.4-1.9.4-.7 1.1-1.1.7-.5 1.6-.7.8-.3 1.8-.4 1.1-.1 1.8-.2t1.1-.3q.3-.2.3-.6v-.1q0-.5-.2-.9-.3-.4-.7-.6-.5-.2-1.2-.2-.6 0-1.1.2-.6.2-.9.5-.3.4-.4.8l-3.3-.5q.4-1.2 1.2-2t1.9-1.2q1.2-.4 2.6-.4 1.1 0 2.1.2 1 .3 1.8.8t1.2 1.4q.5.8.5 2v8.8h-3.3v-1.8h-.1q-.4.6-.9 1.1-.5.4-1.3.7-.7.3-1.7.3m1-2.5q.9 0 1.5-.3t1-.9q.3-.6.3-1.3v-1.4q-.1.1-.5.2-.3.1-.7.2-.3.1-.7.1-.4.1-.7.1-.6.1-1.1.3t-.8.6q-.3.3-.3.9 0 .5.3.8.3.4.7.5.4.2 1 .2m12.8-10.9h2.4v2.7h-2.4v6.6q0 .6.2.9.3.3 1 .3h.5q.4-.1.6-.1l.5 2.6q-.6.2-1.2.2-.6.1-1.1.1-2 0-3-.9-1.1-1-1.1-2.8v-6.9h-1.8v-2.7h1.8v-3.1h3.6zm7.6 13.1H546V38.6h3.5zm-1.8-14.8q-.7 0-1.3-.5t-.6-1.3q0-.7.6-1.3.6-.5 1.3-.5.8 0 1.4.5.6.6.6 1.3 0 .8-.6 1.3t-1.4.5M557.8 52q-2 0-3.5-.9-1.4-.8-2.2-2.3t-.8-3.6q0-2 .8-3.5t2.2-2.4q1.5-.8 3.5-.8 1.9 0 3.4.8 1.4.9 2.2 2.4t.8 3.5q0 2.1-.8 3.6t-2.2 2.3q-1.5.9-3.4.9m0-2.8q.9 0 1.5-.5.7-.5 1-1.4t.3-2.1q0-1.1-.3-2t-1-1.5q-.6-.5-1.5-.5-1 0-1.6.5-.6.6-1 1.5-.3.9-.3 2 0 1.2.3 2.1.4.9 1 1.4t1.6.5m11.7-5.1v7.6H566V38.6h3.3l.1 2.7q.5-1.2 1.3-1.9 1.1-.9 2.8-.9 1.3 0 2.3.6 1 .5 1.6 1.7.6 1.1.6 2.6v8.3h-3.6V44q0-1.2-.6-1.9t-1.7-.7q-.8 0-1.3.3-.6.4-.9 1-.4.6-.4 1.4"/><defs><clipPath id="d"><path d="M276 83h176a12 12 0 0 1 12 12v80a12 12 0 0 1-12 12H276a12 12 0 0 1-12-12V95a12 12 0 0 1 12-12"/></clipPath></defs><mask id="b" maskUnits="userSpaceOnUse"><path fill="#fff" d="M0 0h760v600H0z"/><path stroke-width="0" d="M276 83h176a12 12 0 0 1 12 12v80a12 12 0 0 1-12 12H276a12 12 0 0 1-12-12V95a12 12 0 0 1 12-12"/></mask><defs><filter id="a" width="164%" height="223.077%" x="-32%" y="-61.538%"><feGaussianBlur result="b" stdDeviation="8"/><feFlood flood-color="#10b98115" result="f"/><feComposite in="f" in2="b" operator="in"/></filter></defs><g filter="url(#a)" mask="url(#b)"><path fill="#fff" d="M276 87h176a12 12 0 0 1 12 12v80a12 12 0 0 1-12 12H276a12 12 0 0 1-12-12V99a12 12 0 0 1 12-12"/></g><path fill="#fff" d="M276 83h176a12 12 0 0 1 12 12v80a12 12 0 0 1-12 12H276a12 12 0 0 1-12-12V95a12 12 0 0 1 12-12"/><path fill="none" stroke="#10b981" stroke-width="4" d="M267.515 86.515A12 12 0 0 1 276 83h176a12 12 0 0 1 12 12v80a12 12 0 0 1-12 12H276a12 12 0 0 1-12-12V95a12 12 0 0 1 3.515-8.485" clip-path="url(#d)"/><path fill="#d1fae5" d="M303 105h20a8 8 0 0 1 8 8v20a8 8 0 0 1-8 8h-20a8 8 0 0 1-8-8v-20a8 8 0 0 1 8-8"/><clipPath id="e"><path d="M303 113h20v20h-20z"/></clipPath><mask id="f"><path fill="#fff" d="M303 113h20v20h-20z"/></mask><image width="20" height="20" x="303" y="113" clip-path="url(#e)" href="data:image/svg+xml;utf8,%3Csvg fill=%22none%22 xmlns=%22http://www.w3.org/2000/svg%22 width=%2220%22 height=%2220%22 viewBox=%220 0 24 24%22%3E%3Cpath fill=%22%23059669%22 fill-rule=%22evenodd%22 clip-rule=%22evenodd%22 d=%22M15.75 1.5C12.0221 1.5 9 4.52208 9 8.25C9 8.64372 9.03379 9.03016 9.0988 9.40639C9.16599 9.79527 9.06678 10.1226 8.87767 10.3117L2.37868 16.8107C1.81607 17.3733 1.5 18.1363 1.5 18.932V21.75C1.5 22.1642 1.83579 22.5 2.25 22.5H6C6.41421 22.5 6.75 22.1642 6.75 21.75V20.25H8.25C8.66421 20.25 9 19.9142 9 19.5V18H10.5C10.6989 18 10.8897 17.921 11.0303 17.7803L13.6883 15.1223C13.8774 14.9332 14.2047 14.834 14.5936 14.9012C14.9698 14.9662 15.3563 15 15.75 15C19.4779 15 22.5 11.9779 22.5 8.25C22.5 4.52208 19.4779 1.5 15.75 1.5ZM15.75 4.5C15.3358 4.5 15 4.83579 15 5.25C15 5.66421 15.3358 6 15.75 6C16.9926 6 18 7.00736 18 8.25C18 8.66421 18.3358 9 18.75 9C19.1642 9 19.5 8.66421 19.5 8.25C19.5 6.17893 17.8211 4.5 15.75 4.5Z%22%3E%3C/path%3E%3C/svg%3E" mask="url(#f)" preserveAspectRatio="none"/><path fill="#0f172a" d="M344 128.1h-2.1v-10.2h3.2l1.7 4.7q.1.3.2.8.1.6.3 1.2.1.5.2 1.1.2-.6.3-1.1.1-.6.3-1.2.1-.5.2-.8l1.6-4.7h3.2v10.2H351v-5.6q0-.5.1-1.1v-1.7q-.1.3-.1.6l-.4 1.2q-.1.5-.3 1-.1.5-.2.8l-1.7 4.8h-1.8l-1.7-4.8q-.1-.3-.2-.8-.2-.5-.3-1-.2-.6-.3-1.2-.1-.3-.2-.5v.4q0 .6.1 1.2zm12.7 0h-2.3l3.5-10.2h2.7l3.6 10.2h-2.4l-.7-2.4h-3.7zm1.3-4h2.5l-.3-.9q-.3-1-.6-2.1-.2-.7-.4-1.6-.2.9-.4 1.6-.3 1.1-.5 2.1zm11.2 4.1q-1.3 0-2.2-.3-.9-.4-1.4-1.1-.5-.8-.5-1.9h2q0 .5.3.9.3.3.7.5.5.2 1 .2.6 0 1-.2.4-.1.7-.4.2-.3.2-.7t-.2-.6-.6-.4-1-.3l-1.1-.3q-1.3-.3-2-1-.8-.7-.8-1.8 0-.9.5-1.6t1.4-1q.9-.4 2-.4t1.9.4q.9.3 1.4 1 .4.7.4 1.6h-2q0-.6-.5-.9-.5-.4-1.2-.4-.6 0-.9.2-.4.1-.6.4t-.2.6q0 .4.2.6.2.3.6.4.4.2.8.3l.9.2q.7.2 1.2.4.6.2 1 .6t.7.9q.2.5.2 1.1 0 .9-.5 1.6-.4.7-1.3 1.1-.9.3-2.1.3m8.1-8.6h-3.1v-1.7h8.3v1.7h-3.1v8.5h-2.1zm13.5 8.5h-6.9v-10.2h6.8v1.7H386v2.5h4.4v1.7H386v2.6h4.8zm3.7 0h-2.1v-10.2h4q1.2 0 2 .4t1.2 1.2q.4.7.4 1.7t-.4 1.8q-.4.7-1.2 1.1h-.2l2.2 4h-2.3l-1.9-3.6h-1.7zm0-8.5v3.2h1.5q.7 0 1.1-.2t.6-.5q.2-.4.2-.9t-.2-.8q-.2-.4-.6-.6t-1.1-.2zm12.5 8.5h-2.1v-10.2h2.1v5.1q0-.1.1-.2.3-.4.7-.9.3-.5.8-1.1l2.5-2.9h2.5l-3.8 4.4 3.9 5.8h-2.4l-2.9-4.4-1.4 1.5zm14.8 0H415v-10.2h6.8v1.7h-4.7v2.5h4.4v1.7h-4.4v2.6h4.7zm7 0h-2.1v-3.8l-3.8-6.4h2.5l1.7 3.2q.3.5.5.9.1.2.2.5.1-.3.1-.5.2-.4.5-.9l1.7-3.2h2.4l-3.7 6.4z"/><path fill="#64748b" d="M311.7 161.5q-.8 0-1.5-.3t-1-.8q-.4-.5-.5-1.2h1.2q0 .4.2.7.3.3.7.4.4.2.9.2.6 0 1-.2t.6-.5q.3-.4.3-.8 0-.5-.2-.9-.3-.3-.7-.5-.5-.2-1.1-.2h-.7v-1h.7q.5 0 .9-.2t.6-.5.2-.8q0-.4-.2-.7-.2-.4-.5-.5-.4-.2-.9-.2-.4 0-.8.1-.4.2-.6.5-.3.3-.3.7h-1.1q0-.7.4-1.2t1.1-.8q.6-.3 1.4-.3t1.4.3q.5.4.9.9.3.5.3 1.2t-.4 1.2-1.1.7v.1q.6.1 1 .4t.6.7.2 1q0 .7-.4 1.3-.4.5-1 .9-.7.3-1.6.3m10.2-.1h-5.6v-.8l2.9-3.2q.5-.5.8-.9t.5-.8q.2-.3.2-.7 0-.5-.2-.8-.3-.4-.6-.5-.4-.2-.9-.2t-.8.2q-.4.2-.6.6-.2.3-.2.8h-1.1q0-.8.4-1.3.4-.6 1-1 .6-.3 1.4-.3.7 0 1.3.3.6.4 1 .9.3.6.3 1.3 0 .4-.1.9-.2.4-.6 1-.5.6-1.2 1.4l-2 2v.1h4.1zm8.2.1q-.6 0-1-.2t-.6-.5-.3-.4h-.1v1H327v-8.8h1.1v3.3h.1q.1-.2.3-.5.2-.2.6-.5.3-.2 1-.2.8 0 1.4.4.6.5 1 1.2.3.8.3 1.8 0 1.1-.3 1.8-.4.8-1 1.2t-1.4.4m-.2-.9q.6 0 1-.4.5-.3.7-.9.2-.5.2-1.2t-.2-1.2q-.2-.6-.7-.9-.4-.3-1-.3t-1 .3-.6.8q-.2.6-.2 1.3t.2 1.3q.2.5.6.8.4.4 1 .4m4.4 3.1.2-.9.2.1h.5q.3 0 .5-.3.2-.2.4-.7l.2-.5-2.5-6.6h1.1l1.4 3.9.4 1.2q.1.3.1.5.1-.2.2-.5.1-.6.3-1.2l1.4-3.9h1.2l-2.9 7.5q-.2.6-.5.9t-.6.5q-.4.2-.9.2-.2 0-.4-.1-.2 0-.3-.1m8.1-8.9h1.3v.9h-1.3v4q0 .4.1.6.2.2.6.2h.3q.1 0 .3-.1l.2.9q-.2.1-.4.1h-.4q-.9 0-1.3-.4-.5-.4-.5-1.3v-4h-1v-.9h1v-1.5h1.1zm5.4 6.7q-.9 0-1.6-.4t-1.1-1.2q-.4-.7-.4-1.8 0-1 .4-1.7.4-.8 1-1.2.7-.5 1.6-.5.5 0 1 .2t.9.6q.4.3.7 1 .2.6.2 1.5v.4h-4.7q0 .7.3 1.1.2.5.7.8.4.3 1 .3.4 0 .7-.1l.6-.4q.2-.2.3-.5l1 .2q-.1.5-.5.9t-.9.6-1.2.2m-2-3.9h3.7q-.1-.5-.2-.9-.2-.5-.6-.7-.4-.3-1-.3t-1 .3q-.5.3-.7.7t-.2.9m8.5 3.9q-.7 0-1.2-.2-.6-.2-.9-.6t-.4-.9l1-.3q.1.6.5.8.4.3 1 .3t1.1-.3q.4-.3.4-.7 0-.3-.3-.6-.2-.2-.7-.3l-1.1-.3q-.9-.2-1.3-.6-.4-.5-.4-1.2 0-.5.3-1 .3-.4.8-.6.6-.3 1.3-.3t1.1.2q.5.2.8.6.3.3.4.8l-.9.3q-.2-.4-.5-.7t-.9-.3-1 .3-.4.7q0 .3.3.6.2.2.8.3l1 .3q.9.2 1.3.6.5.4.5 1.1 0 .6-.4 1-.3.5-.9.7-.6.3-1.3.3m9.9-1.7q-.5 0-.9-.3-.5-.2-.7-.7-.3-.4-.3-.9t.3-1q.2-.4.7-.6.4-.3.9-.3t.9.3q.5.2.7.6.3.5.3 1t-.3.9q-.2.5-.7.7-.4.3-.9.3m11.3 1.7q-1.1 0-2-.6-.8-.5-1.3-1.5t-.5-2.4.5-2.4 1.3-1.5q.9-.6 2-.6.7 0 1.3.2t1 .6q.5.3.8.9.3.5.5 1.2h-1.2q0-.5-.3-.8-.2-.3-.5-.6-.3-.2-.7-.3-.4-.2-.9-.2-.7 0-1.4.4-.6.4-1 1.2-.3.8-.3 1.9t.3 1.9q.4.8 1 1.2.7.4 1.4.4.5 0 .9-.2.4-.1.7-.3.3-.3.5-.6.3-.3.3-.8h1.2q-.1.7-.5 1.2-.3.5-.7.9-.5.4-1.1.6t-1.3.2m8.1 0q-1 0-1.7-.3t-1.1-.8q-.3-.6-.4-1.3h1.1q.1.5.4.8t.7.5q.5.1 1 .1.6 0 1-.2.5-.2.8-.5.3-.4.3-.8 0-.5-.3-.7-.2-.3-.6-.5-.4-.1-.9-.2l-1-.3q-1.1-.3-1.7-.9t-.6-1.4.4-1.3q.4-.6 1.1-.9t1.5-.3q.9 0 1.6.3.6.3 1 .9.4.5.4 1.1h-1.1q0-.6-.6-.9-.5-.4-1.3-.4-.6 0-1 .2t-.6.5q-.3.3-.3.7 0 .5.3.8.3.2.7.4.4.1.7.2l.9.3q.3.1.7.2.5.2.9.5.3.2.6.7.2.4.2 1 0 .7-.3 1.3-.4.5-1.1.9-.7.3-1.7.3m6-.1h-1.1v-8.8h3q1 0 1.6.4.7.4 1 1t.3 1.4-.3 1.4q-.3.7-1 1-.6.4-1.6.4h-1.9zm0-7.8v3.6h1.8q.7 0 1.1-.2t.6-.7q.2-.4.2-.9t-.2-.9-.6-.7q-.4-.2-1.1-.2zm7.7 7.8h-1.2v-8.8h3q1 0 1.7.4.7.3 1 .9.3.7.3 1.4 0 .8-.3 1.4t-1 .9q-.1.1-.3.2l1.9 3.6h-1.2l-1.9-3.4h-2zm0-7.8v3.4h1.8q.7 0 1.1-.2t.6-.6.2-.9-.2-.9-.6-.6-1.1-.2zm7.7 7.8h-1.1v-8.8h1.3l3.5 5.6q.2.2.4.6.2.3.4.7.1.3.2.5v-7.4h1.1v8.8h-1.3l-3.2-5q-.2-.3-.4-.7-.3-.4-.5-.9-.2-.3-.5-.8v.8q0 .5.1.9zm11.5.1q-1.2 0-2.1-.6-.9-.5-1.3-1.5-.5-1-.5-2.4t.5-2.4q.4-1 1.3-1.5.9-.6 2-.6.7 0 1.3.2t1.1.6q.4.4.8.9.3.5.4 1.2h-1.2q-.1-.5-.3-.8t-.6-.6q-.3-.2-.6-.3-.4-.2-.9-.2-.8 0-1.4.4t-1 1.2-.4 1.9.4 1.9 1 1.2q.7.4 1.5.4.7 0 1.3-.4.5-.3.8-.9.3-.5.4-1.3h-2.3v-.9h3.3v.9q0 1.1-.4 1.9-.5.8-1.3 1.2-.8.5-1.8.5"/><path fill="#cbd5e1" d="M363 187h2v28h-2zm-139 28h140v2H224zm-1 2h2v16h-2z"/><defs><clipPath id="g"><path d="M151 233h147a8 8 0 0 1 8 8v14a8 8 0 0 1-8 8H151a8 8 0 0 1-8-8v-14a8 8 0 0 1 8-8"/></clipPath></defs><path fill="#fff" d="M151 233h147a8 8 0 0 1 8 8v14a8 8 0 0 1-8 8H151a8 8 0 0 1-8-8v-14a8 8 0 0 1 8-8"/><path fill="none" stroke="#e2e8f0" stroke-width="2" d="M145.343 235.343A8 8 0 0 1 151 233h147a8 8 0 0 1 8 8v14a8 8 0 0 1-8 8H151a8 8 0 0 1-8-8v-14a8 8 0 0 1 2.343-5.657" clip-path="url(#g)"/><path fill="#64748b" d="M158.2 252.4h-1.1v-8.8h1.1v3.8h4.6v-3.8h1.1v8.8h-1.1v-4h-4.6zm8.9 0H166v-8.8h1.1v4.6q.1-.1.2-.3.3-.4.6-.7.3-.4.7-.7l2.6-2.9h1.4l-3.5 3.8 3.5 5h-1.3l-3-4.2-1.2 1.3zm9.7 0H174v-8.8h2.9q1.2 0 2.2.6.9.5 1.3 1.5.5.9.5 2.3 0 1.3-.5 2.3-.4 1-1.4 1.5-.9.6-2.2.6m-1.7-7.8v6.8h1.6q1.1 0 1.8-.4t1-1.2.3-1.8q0-1.1-.3-1.8-.3-.8-1-1.2t-1.7-.4zm8.7 7.8h-1.1v-8.8h5.3v1h-4.2v3h3.8v1h-3.8zm6.2-3.6q0-.9.2-2 .2-1 .5-2 .4-1 .8-1.7h1q-.4.9-.7 1.9-.4 1-.5 2-.2 1-.2 1.8t.1 1.6q.2.8.5 1.7t.8 1.9h-1q-.7-1.3-1.1-2.6t-.4-2.6m5.3-1.8h-.8l-.2-3.4h1.2zm2 0h-.8l-.2-3.4h1.2zm5 5.5q-.9 0-1.6-.4-.6-.4-1-1.2t-.4-1.8.4-1.8q.4-.7 1-1.1.7-.5 1.6-.5.5 0 .9.2.4.1.8.3.3.2.6.6.2.3.3.7l-1 .3q0-.2-.2-.4-.1-.2-.3-.4-.3-.2-.5-.2-.3-.1-.6-.1-.7 0-1.1.3-.4.4-.6.9-.2.6-.2 1.2 0 .7.2 1.2.2.6.6.9.4.4 1.1.4.3 0 .6-.1t.5-.3q.2-.1.3-.4.2-.2.3-.4l1 .2q-.2.5-.4.8-.3.4-.6.6-.4.3-.8.4t-.9.1m6.4 0q-.7 0-1.2-.2t-.9-.6q-.3-.4-.4-.9l1-.3q.1.6.5.8.4.3 1 .3.7 0 1.1-.3t.4-.7q0-.3-.2-.6-.3-.2-.8-.3l-1.1-.3q-.9-.2-1.3-.6-.4-.5-.4-1.2 0-.5.3-1 .3-.4.9-.6.5-.3 1.2-.3t1.2.2q.4.2.7.6.3.3.5.8l-1 .3q-.1-.4-.4-.7-.4-.3-1-.3t-1 .3-.4.7q0 .3.3.6.3.2.8.3l1 .3q.9.2 1.4.6.4.4.4 1.1 0 .6-.3 1-.4.5-1 .7-.5.3-1.3.3m5.2 2.3h-1.1v-9h1v1.1h.1q.2-.2.4-.5l.5-.5q.4-.2 1-.2.9 0 1.5.4.6.5 1 1.2.3.8.3 1.8 0 1.1-.3 1.8-.4.8-1 1.2t-1.5.4q-.6 0-1-.2-.3-.2-.5-.5t-.4-.4zm1.8-3.2q.6 0 1-.4.4-.3.6-.9.2-.5.2-1.2t-.2-1.2q-.2-.6-.6-.9t-1-.3-1 .3-.6.8q-.3.6-.3 1.3t.3 1.3q.2.5.6.8.4.4 1 .4m5.5 3.2h-1v-9h1v1.1h.1q.1-.2.3-.5.2-.2.6-.5.4-.2 1-.2.8 0 1.4.4.7.5 1 1.2.4.8.4 1.8 0 1.1-.4 1.8-.3.8-1 1.2-.6.4-1.4.4-.6 0-1-.2t-.6-.5-.3-.4h-.1zm1.8-3.2q.7 0 1.1-.4.4-.3.6-.9.2-.5.2-1.2t-.2-1.2q-.2-.6-.6-.9t-1.1-.3q-.6 0-1 .3t-.6.8q-.2.6-.2 1.3t.2 1.3q.2.5.6.8.4.4 1 .4m5.3.8q-.3 0-.6-.2-.2-.2-.2-.5 0-.4.2-.6.3-.2.6-.2t.6.2q.2.2.2.6 0 .3-.2.5-.3.2-.6.2m0-4.7q-.3 0-.6-.2-.2-.3-.2-.6t.2-.5q.3-.3.6-.3t.6.3q.2.2.2.5t-.2.6q-.3.2-.6.2m5.7 4.7h-1.1l-2.6-6.6h1.2l1.4 3.9.4 1.2q0 .3.1.5.1-.2.1-.5l.4-1.2 1.4-3.9h1.2zm5.2-8.8h1.4v8.8h-1.1v-7.7h-.1l-2.1 1.5V245zm4.2 8.8q-.3 0-.6-.2-.2-.2-.2-.5 0-.4.2-.6.3-.2.6-.2t.5.2q.3.2.3.6 0 .3-.3.5-.2.2-.5.2m0-4.7q-.3 0-.6-.2-.2-.3-.2-.6t.2-.5q.3-.3.6-.3t.5.3q.3.2.3.5t-.3.6q-.2.2-.5.2m5.3 4.8q-.9 0-1.6-.4-.6-.4-1-1.2t-.4-1.8.4-1.8q.4-.7 1-1.1.7-.5 1.6-.5.5 0 .9.2.4.1.8.3.3.2.6.6.2.3.4.7l-1.1.3q0-.2-.2-.4-.1-.2-.3-.4t-.5-.2q-.3-.1-.6-.1-.6 0-1.1.3-.4.4-.6.9-.2.6-.2 1.2 0 .7.2 1.2.2.6.6.9.5.4 1.1.4.3 0 .6-.1t.5-.3q.2-.1.4-.4l.2-.4 1 .2q-.1.5-.4.8-.3.4-.6.6-.4.3-.8.4t-.9.1m5.3-.1h-1.1v-6.6h1v1h.1q.2-.5.6-.8.5-.3 1.1-.3h.5v1.1h-.2q-.2-.1-.4-.1-.5 0-.9.2-.3.2-.5.6-.2.3-.2.8zm4.5 0h-1.1v-6.6h1.1zm-.6-7.7q-.3 0-.5-.2t-.2-.5q0-.2.2-.5.2-.2.5-.2.4 0 .6.2.2.3.2.5 0 .3-.2.5t-.6.2m3.7 1.1h1.3v.9h-1.3v4q0 .4.1.6.2.2.6.2h.3q.1 0 .3-.1l.2.9q-.2.1-.4.1h-.4q-.9 0-1.3-.4-.5-.4-.5-1.3v-4h-1v-.9h1v-1.5h1.1zm3.7 6.6h-1.1v-6.6h1.1zm-.5-7.7q-.3 0-.5-.2-.3-.2-.3-.5 0-.2.3-.5.2-.2.5-.2t.5.2q.2.3.2.5 0 .3-.2.5t-.5.2m5 7.8q-.9 0-1.5-.4-.7-.4-1.1-1.2t-.4-1.8.4-1.8q.4-.7 1.1-1.1.6-.5 1.5-.5.5 0 .9.2.4.1.8.3.3.2.6.6.2.3.4.7l-1 .3q-.1-.2-.3-.4-.1-.2-.3-.4t-.5-.2q-.3-.1-.6-.1-.6 0-1.1.3-.4.4-.6.9-.2.6-.2 1.2 0 .7.2 1.2.2.6.6.9.5.4 1.1.4.3 0 .6-.1t.5-.3q.2-.1.4-.4l.2-.4 1 .2q-.1.5-.4.8-.2.4-.6.6-.3.3-.8.4-.4.1-.9.1m6 0q-.6 0-1.1-.2-.5-.3-.8-.7-.3-.5-.3-1.1t.2-.9q.3-.4.6-.6.4-.2.9-.3.4-.1.9-.1.5-.1.9-.1.4-.1.6-.2.1-.1.1-.3v-.1q0-.4-.1-.7-.2-.2-.5-.4-.3-.1-.7-.1-.5 0-.8.1-.4.2-.6.4t-.3.4l-1-.3q.2-.6.7-.9.4-.4.9-.5.5-.2 1-.2.4 0 .8.1t.8.3q.4.3.6.7.3.5.3 1.2v4.4h-1v-.9h-.1q-.1.2-.4.4-.2.3-.6.5-.4.1-1 .1m.2-.9q.6 0 1-.2.4-.3.6-.6.2-.4.2-.8v-.9q0 .1-.2.1-.3.1-.5.1-.3.1-.6.1-.2 0-.4.1-.4 0-.7.1t-.5.4q-.2.2-.2.6 0 .3.1.5.2.3.5.4t.7.1m4.7-8h1.1v8.8h-1.1zm4.3 3.4h-.9l-.1-3.4h1.1zm2 0h-.9l-.2-3.4h1.2zm2.9 7h-1q.5-1.1.8-2t.5-1.7q.1-.7.1-1.5t-.1-1.8q-.2-1-.5-2-.4-1-.8-1.9h1q.4.7.8 1.7.3 1 .5 2 .2 1.1.2 2 0 1.3-.4 2.6-.4 1.4-1.1 2.6"/><path fill="#cbd5e1" d="M223 275h2v16h-2z"/><defs><clipPath id="j"><path d="M120 291h208a12 12 0 0 1 12 12v56a12 12 0 0 1-12 12H120a12 12 0 0 1-12-12v-56a12 12 0 0 1 12-12"/></clipPath></defs><mask id="i" maskUnits="userSpaceOnUse"><path fill="#fff" d="M0 0h760v600H0z"/><path stroke-width="0" d="M120 291h208a12 12 0 0 1 12 12v56a12 12 0 0 1-12 12H120a12 12 0 0 1-12-12v-56a12 12 0 0 1 12-12"/></mask><defs><filter id="h" width="155.172%" height="260%" x="-27.586%" y="-80%"><feGaussianBlur result="b" stdDeviation="8"/><feFlood flood-color="#3b82f615" result="f"/><feComposite in="f" in2="b" operator="in"/></filter></defs><g filter="url(#h)" mask="url(#i)"><path fill="#fff" d="M120 295h208a12 12 0 0 1 12 12v56a12 12 0 0 1-12 12H120a12 12 0 0 1-12-12v-56a12 12 0 0 1 12-12"/></g><path fill="#fff" d="M120 291h208a12 12 0 0 1 12 12v56a12 12 0 0 1-12 12H120a12 12 0 0 1-12-12v-56a12 12 0 0 1 12-12"/><path fill="none" stroke="#3b82f6" stroke-width="4" d="M111.515 294.515A12 12 0 0 1 120 291h208a12 12 0 0 1 12 12v56a12 12 0 0 1-12 12H120a12 12 0 0 1-12-12v-56a12 12 0 0 1 3.515-8.485" clip-path="url(#j)"/><path fill="#dbeafe" d="M138 313h20a8 8 0 0 1 8 8v20a8 8 0 0 1-8 8h-20a8 8 0 0 1-8-8v-20a8 8 0 0 1 8-8"/><clipPath id="k"><path d="M138 321h20v20h-20z"/></clipPath><mask id="l"><path fill="#fff" d="M138 321h20v20h-20z"/></mask><image width="20" height="20" x="138" y="321" clip-path="url(#k)" href="data:image/svg+xml;utf8,%3Csvg fill=%22none%22 xmlns=%22http://www.w3.org/2000/svg%22 width=%2220%22 height=%2220%22 viewBox=%220 0 24 24%22%3E%3Cdefs%3E%3CclipPath id=%22leftHalf%22%3E%3Crect x=%220%22 y=%220%22 width=%2212%22 height=%2224%22%3E%3C/rect%3E%3C/clipPath%3E%3CclipPath id=%22rightHalf%22%3E%3Crect x=%2212%22 y=%220%22 width=%2212%22 height=%2224%22%3E%3C/rect%3E%3C/clipPath%3E%3C/defs%3E%3Cpath clip-path=%22url(%23leftHalf)%22 fill=%22%233b82f6%22 d=%22M12.5156 2.15675C12.1896 2.02007 11.8104 2.02007 11.4844 2.15675L4.48438 4.96925C3.89364 5.20626 3.5 5.77696 3.5 6.41115V11.6781C3.5 15.6941 6.22938 19.1801 10.1058 20.2849L11.6211 20.7167C11.8692 20.7875 12.1308 20.7875 12.3789 20.7167L13.8942 20.2849C17.7706 19.1801 20.5 15.6941 20.5 11.6781V6.41115C20.5 5.77696 20.1064 5.20626 19.5156 4.96925L12.5156 2.15675Z%22%3E%3C/path%3E%3Cpath clip-path=%22url(%23rightHalf)%22 fill=%22%232563eb%22 d=%22M12.5156 2.15675C12.1896 2.02007 11.8104 2.02007 11.4844 2.15675L4.48438 4.96925C3.89364 5.20626 3.5 5.77696 3.5 6.41115V11.6781C3.5 15.6941 6.22938 19.1801 10.1058 20.2849L11.6211 20.7167C11.8692 20.7875 12.1308 20.7875 12.3789 20.7167L13.8942 20.2849C17.7706 19.1801 20.5 15.6941 20.5 11.6781V6.41115C20.5 5.77696 20.1064 5.20626 19.5156 4.96925L12.5156 2.15675Z%22%3E%3C/path%3E%3C/svg%3E" mask="url(#l)" preserveAspectRatio="none"/><path fill="#0f172a" d="M181.4 336.2q-1.4 0-2.5-.6-1-.6-1.6-1.8-.7-1.1-.7-2.8t.7-2.8q.6-1.2 1.7-1.8 1-.6 2.4-.6.8 0 1.6.2.7.3 1.3.7.6.5 1 1.2.3.6.5 1.5h-2.2q0-.4-.2-.8-.2-.3-.5-.5t-.7-.4q-.3-.1-.8-.1-.8 0-1.4.4t-.9 1.2q-.3.7-.3 1.8t.3 1.9q.3.7.9 1.1t1.4.4q.4 0 .8-.1.4-.2.7-.4t.5-.5q.2-.4.2-.8h2.2q-.1.7-.5 1.4-.3.6-.9 1.1-.5.5-1.3.8t-1.7.3m8-.1h-2.1v-10.2h4q1.1 0 1.9.4t1.3 1.2q.4.7.4 1.7t-.4 1.8q-.5.7-1.3 1.1h-.1l2.2 4h-2.4l-1.9-3.6h-1.6zm0-8.5v3.2h1.5q.6 0 1-.2t.6-.5q.2-.4.2-.9t-.2-.8q-.2-.4-.6-.6t-1-.2zm7.1-1.7h2.1v10.2h-2.1zm6.6 1.7H200v-1.7h8.3v1.7h-3.1v8.5h-2.1zm6.6-1.7h2.1v10.2h-2.1zm8.4 10.3q-1.3 0-2.4-.6t-1.7-1.8q-.6-1.1-.6-2.8t.6-2.8q.6-1.2 1.7-1.8t2.4-.6q.9 0 1.6.2.8.3 1.4.7.6.5.9 1.2.4.6.5 1.5h-2.1q-.1-.4-.3-.8-.2-.3-.4-.5-.3-.2-.7-.4-.4-.1-.8-.1-.8 0-1.4.4t-.9 1.2q-.4.7-.4 1.8t.4 1.9q.3.7.9 1.1t1.4.4q.4 0 .8-.1l.6-.4q.3-.2.5-.5.2-.4.3-.8h2.1q-.1.7-.4 1.4-.3.6-.9 1.1t-1.3.8q-.8.3-1.8.3m7.7-.1h-2.4l3.5-10.2h2.8l3.5 10.2h-2.3l-.8-2.4h-3.6zm1.2-4h2.6l-.3-.9q-.3-1-.6-2.1-.2-.7-.4-1.6-.2.9-.4 1.6-.3 1.1-.6 2.1zm14 4h-6.5v-10.2h2.1v8.5h4.4zm8.3 0h-3.6v-10.2h3.6q1.6 0 2.7.6t1.7 1.8q.6 1.1.6 2.7t-.6 2.7q-.6 1.2-1.7 1.8t-2.7.6m-1.5-8.4v6.6h1.4q1 0 1.7-.4.6-.3 1-1 .3-.8.3-1.9t-.4-1.9q-.3-.7-.9-1-.7-.4-1.7-.4zm9.7 8.4h-2.3l3.5-10.2h2.8l3.5 10.2h-2.3l-.8-2.4h-3.6zm1.3-4h2.6l-.3-.9q-.3-1-.6-2.1-.2-.7-.4-1.6-.2.9-.4 1.6-.3 1.1-.6 2.1zm10.2-4.5h-3.1v-1.7h8.3v1.7h-3.1v8.5H269zm8.3 8.5H275l3.5-10.2h2.8l3.5 10.2h-2.3l-.8-2.4h-3.6zm1.3-4h2.6l-.3-.9q-.3-1-.6-2.1-.2-.7-.4-1.6-.2.9-.4 1.6-.3 1.1-.6 2.1zm12.9 4h-2.1v-10.2h2.1v5.1-.2q.3-.4.7-.9t.8-1.1l2.5-2.9h2.6l-3.8 4.4 3.9 5.8h-2.5l-2.9-4.4-1.3 1.5zm14.8 0h-6.8v-10.2h6.8v1.7h-4.8v2.5h4.4v1.7h-4.4v2.6h4.8zm6.9 0h-2v-3.8l-3.8-6.4h2.4l1.7 3.2q.3.5.5.9.1.2.2.5.1-.3.2-.5.2-.4.4-.9l1.7-3.2h2.4l-3.7 6.4z"/><defs><clipPath id="m"><path d="M156 387h137a8 8 0 0 1 8 8v18a8 8 0 0 1-8 8H156a8 8 0 0 1-8-8v-18a8 8 0 0 1 8-8"/></clipPath></defs><path fill="#f8fafc" d="M156 387h137a8 8 0 0 1 8 8v18a8 8 0 0 1-8 8H156a8 8 0 0 1-8-8v-18a8 8 0 0 1 8-8"/><path fill="none" stroke="#e2e8f0" stroke-width="2" d="M150.343 389.343A8 8 0 0 1 156 387h137a8 8 0 0 1 8 8v18a8 8 0 0 1-8 8H156a8 8 0 0 1-8-8v-18a8 8 0 0 1 2.343-5.657" clip-path="url(#m)"/><path fill="#3b82f6" d="M164 401a3 3 0 0 1 3 3 3 3 0 0 1-3 3 3 3 0 0 1-3-3 3 3 0 0 1 3-3"/><path fill="#64748b" d="M178.8 408.5q-.9 0-1.6-.3t-1.1-.8q-.4-.6-.4-1.3h1.1q.1.5.4.8.2.3.7.5.4.1.9.1.6 0 1.1-.2t.8-.5q.2-.4.2-.8 0-.5-.2-.7-.2-.3-.6-.5-.4-.1-.9-.2l-1-.3q-1.1-.3-1.7-.9t-.6-1.4.4-1.3q.4-.6 1.1-.9t1.5-.3q.9 0 1.5.3.7.3 1.1.9.4.5.4 1.1h-1.1q-.1-.6-.6-.9-.5-.4-1.3-.4-.6 0-1 .2t-.7.5q-.2.3-.2.7 0 .5.3.8.3.2.7.4.4.1.7.2l.8.3.8.2q.4.2.8.5.4.2.7.7.2.4.2 1 0 .7-.4 1.3-.3.5-1 .9-.7.3-1.8.3m7.6 0q-1 0-1.7-.4-.6-.4-1-1.2-.4-.7-.4-1.8 0-1 .4-1.7.3-.8 1-1.2.7-.5 1.6-.5.5 0 1 .2t.9.6q.4.3.7 1 .2.6.2 1.5v.4h-4.7q0 .7.2 1.1.3.5.7.8.5.3 1.1.3.4 0 .7-.1.3-.2.5-.4.3-.2.4-.5l1 .2q-.1.5-.5.9t-.9.6-1.2.2m-2-3.9h3.6q0-.5-.2-.9-.2-.5-.6-.7-.4-.3-.9-.3-.6 0-1.1.3-.4.3-.6.7t-.2.9m9 3.9q-1 0-1.7-.4t-1-1.2q-.4-.7-.4-1.8 0-1 .4-1.7.3-.8 1-1.2.7-.5 1.6-.5.5 0 1 .2t.9.6q.4.3.7 1 .2.6.2 1.5v.4h-4.7q0 .7.2 1.1.3.5.7.8.5.3 1.1.3.4 0 .7-.1.3-.2.5-.4.3-.2.4-.5l1 .2q-.2.5-.5.9-.4.4-.9.6-.6.2-1.2.2m-2-3.9h3.6q0-.5-.2-.9-.2-.5-.6-.7-.4-.3-.9-.3-.6 0-1.1.3-.4.3-.6.7t-.2.9m8.7 3.9q-.8 0-1.5-.4-.6-.4-.9-1.2-.4-.7-.4-1.8 0-1 .4-1.8.3-.7.9-1.2.7-.4 1.5-.4.6 0 1 .2.4.3.6.5.2.3.3.5h.1v-3.3h1v8.8h-1v-1h-.1q-.1.1-.3.4t-.6.5-1 .2m.1-.9q.6 0 1-.4.4-.3.7-.8.2-.6.2-1.3t-.2-1.3q-.2-.5-.7-.8-.4-.3-1-.3t-1 .3-.6.9q-.2.5-.2 1.2t.2 1.2q.2.6.6.9.4.4 1 .4m7 .9q-.7 0-1.2-.2t-.9-.6q-.3-.4-.4-.9l1-.3q.1.6.5.8.4.3 1 .3.7 0 1.1-.3t.4-.7q0-.3-.3-.6-.2-.2-.7-.3l-1.1-.3q-.9-.2-1.3-.6-.4-.5-.4-1.2 0-.5.3-1 .3-.4.9-.6.5-.3 1.2-.3t1.1.2q.5.2.8.6.3.3.5.8l-1 .3q-.1-.4-.5-.7-.3-.3-.9-.3t-1 .3-.4.7q0 .3.3.6.3.2.8.3l1 .3q.9.2 1.3.6.5.4.5 1.1 0 .6-.3 1-.4.5-1 .7-.5.3-1.3.3m9.6-9.3h1l-2.8 10.5h-1zm6.8 9.2h-1.1v-8.8h1.6l2.1 5.5q.1.2.2.5t.2.7l.2.6q0 .1.1.2v-.1q.1-.4.2-.7.1-.4.2-.7t.2-.5l2.1-5.5h1.6v8.8h-1.1v-5.6q0-.4.1-.8v-1.2q-.1.3-.2.5-.1.4-.3.8-.1.4-.2.7-.1.4-.2.6l-2 5h-.9l-2-5q-.1-.2-.2-.5-.1-.4-.2-.7-.2-.4-.3-.8l-.2-.6v1.2q.1.4.1.7zm10.7-4v4h-1.1v-6.6h1v1.2q.3-.6.7-.9.6-.4 1.3-.4t1.2.3.8.8q.3.6.3 1.4v4.2h-1.1v-4.1q0-.8-.4-1.2t-1.1-.4q-.4 0-.8.2t-.6.6-.2.9m8.8 4.1q-1 0-1.7-.4t-1-1.2q-.4-.7-.4-1.8 0-1 .3-1.7.4-.8 1.1-1.2.6-.5 1.5-.5.6 0 1.1.2t.9.6q.4.3.6 1 .3.6.3 1.5v.4h-4.7q0 .7.2 1.1.3.5.7.8.5.3 1.1.3.3 0 .7-.1.3-.2.5-.4t.4-.5l1 .2q-.2.5-.5.9-.4.4-.9.6-.6.2-1.2.2m-2-3.9h3.6q0-.5-.2-.9-.2-.5-.6-.7-.4-.3-1-.3t-1 .3-.6.7-.2.9m7.3 3.8h-1.1v-6.6h1v1.2l.4-.6q.3-.4.7-.5.3-.2.8-.2.7 0 1.1.4t.5.9l.4-.6q.3-.3.7-.5.5-.2 1-.2.6 0 1 .2.5.3.8.8t.3 1.2v4.5h-1.1V404q0-.7-.4-1t-.9-.3-.8.1q-.3.2-.5.5-.1.4-.1.8v4.3h-1.1v-4.5q0-.6-.4-.9-.3-.3-.9-.3-.4 0-.7.1-.3.2-.5.6-.2.3-.2.8zm12.1.1q-.9 0-1.6-.4t-1-1.2q-.4-.8-.4-1.8t.4-1.8q.3-.7 1-1.1.7-.5 1.6-.5t1.5.5q.7.4 1.1 1.1.4.8.4 1.8t-.4 1.8-1.1 1.2q-.6.4-1.5.4m0-.9q.6 0 1.1-.4.4-.3.6-.9.2-.5.2-1.2 0-.6-.2-1.2-.2-.5-.6-.9-.5-.3-1.1-.3-.7 0-1.1.3-.4.4-.6.9-.2.6-.2 1.2 0 .7.2 1.2.2.6.6.9.4.4 1.1.4m5.6-3.2v4H265v-6.6h1v1.2q.3-.6.7-.9.6-.4 1.3-.4t1.2.3.8.8q.2.6.2 1.4v4.2h-1v-4.1q0-.8-.4-1.2t-1.1-.4q-.5 0-.8.2-.4.2-.6.6t-.2.9m7.1 4h-1.1v-6.6h1.1zm-.6-7.7q-.3 0-.5-.2t-.2-.5q0-.2.2-.5.2-.2.5-.2t.6.2q.2.3.2.5 0 .3-.2.5-.3.2-.6.2m5.1 7.8q-.9 0-1.6-.4t-1-1.2q-.4-.8-.4-1.8t.4-1.8q.3-.7 1-1.1.7-.5 1.6-.5.4 0 .9.2.4.1.7.3.4.2.6.6.3.3.4.7l-1 .3-.2-.4-.4-.4q-.2-.2-.4-.2-.3-.1-.6-.1-.7 0-1.1.3-.4.4-.6.9-.2.6-.2 1.2 0 .7.2 1.2.2.6.6.9.4.4 1.1.4.3 0 .6-.1.2-.1.5-.3.2-.1.3-.4.2-.2.2-.4l1 .2q-.1.5-.3.8-.3.4-.6.6-.4.3-.8.4-.5.1-.9.1m6.4 0q-.7 0-1.2-.2t-.9-.6q-.3-.4-.4-.9l1-.3q.1.6.5.8.4.3 1 .3.7 0 1.1-.3t.4-.7q0-.3-.3-.6-.2-.2-.7-.3l-1.1-.3q-.9-.2-1.3-.6-.4-.5-.4-1.2 0-.5.3-1 .3-.4.8-.6.6-.3 1.3-.3t1.1.2q.5.2.8.6.3.3.4.8l-.9.3q-.1-.4-.5-.7-.3-.3-.9-.3t-1 .3-.4.7q0 .3.3.6.3.2.8.3l1 .3q.9.2 1.3.6.5.4.5 1.1 0 .6-.4 1-.3.5-.9.7-.5.3-1.3.3"/><defs><clipPath id="n"><path d="M156 427h137a8 8 0 0 1 8 8v18a8 8 0 0 1-8 8H156a8 8 0 0 1-8-8v-18a8 8 0 0 1 8-8"/></clipPath></defs><path fill="#f8fafc" d="M156 427h137a8 8 0 0 1 8 8v18a8 8 0 0 1-8 8H156a8 8 0 0 1-8-8v-18a8 8 0 0 1 8-8"/><path fill="none" stroke="#e2e8f0" stroke-width="2" d="M150.343 429.343A8 8 0 0 1 156 427h137a8 8 0 0 1 8 8v18a8 8 0 0 1-8 8H156a8 8 0 0 1-8-8v-18a8 8 0 0 1 2.343-5.657" clip-path="url(#n)"/><path fill="#3b82f6" d="M164 441a3 3 0 0 1 3 3 3 3 0 0 1-3 3 3 3 0 0 1-3-3 3 3 0 0 1 3-3"/><path fill="#64748b" d="M178.8 448.4h-2.7v-8.8h2.8q1.3 0 2.2.6.9.5 1.4 1.5.4.9.4 2.3 0 1.3-.4 2.3-.5 1-1.5 1.5-.9.6-2.2.6m-1.6-7.8v6.8h1.5q1.1 0 1.8-.4t1-1.2q.4-.8.4-1.8 0-1.1-.4-1.8-.3-.8-1-1.2t-1.7-.4zm10.1 7.9q-.9 0-1.6-.4t-1.1-1.2q-.3-.7-.3-1.8 0-1 .3-1.7.4-.8 1.1-1.2.6-.5 1.5-.5.5 0 1 .2.6.2 1 .6.4.3.6 1 .3.6.3 1.5v.4h-4.8q.1.7.3 1.1.2.5.7.8.4.3 1 .3.4 0 .7-.1.4-.2.6-.4t.3-.5l1.1.2q-.2.5-.6.9-.3.4-.9.6-.5.2-1.2.2m-2-3.9h3.7q0-.5-.2-.9-.2-.5-.6-.7-.4-.3-1-.3t-1 .3-.6.7-.3.9m8.5 3.9q-.7 0-1.2-.2t-.9-.6q-.3-.4-.4-.9l1-.3q.1.6.5.8.4.3 1 .3.7 0 1.1-.3t.4-.7q0-.3-.2-.6-.3-.2-.8-.3l-1.1-.3q-.8-.2-1.3-.6-.4-.5-.4-1.2 0-.5.3-1 .3-.4.9-.6.5-.3 1.2-.3t1.2.2q.4.2.7.6.3.3.5.8l-1 .3q-.1-.4-.4-.7t-1-.3q-.6 0-1 .3-.3.3-.3.7 0 .3.2.6.3.2.9.3l.9.3q.9.2 1.4.6.4.4.4 1.1 0 .6-.3 1-.4.5-.9.7-.6.3-1.4.3m6.8 0q-.9 0-1.6-.4t-1-1.2q-.4-.8-.4-1.8t.4-1.8q.3-.7 1-1.1.7-.5 1.6-.5.5 0 .9.2.4.1.7.3.4.2.6.6.3.3.4.7l-1 .3q0-.2-.2-.4-.1-.2-.3-.4-.3-.2-.5-.2-.3-.1-.6-.1-.7 0-1.1.3-.4.4-.6.9-.2.6-.2 1.2 0 .7.2 1.2.2.6.6.9.4.4 1.1.4.3 0 .6-.1t.5-.3q.2-.1.3-.4.2-.2.3-.4l1 .2q-.2.5-.4.8-.3.4-.6.6-.4.3-.8.4t-.9.1m5.2-.1h-1v-6.6h1v1h.1q.1-.5.6-.8t1.1-.3h.5v1.1h-.2q-.2-.1-.4-.1-.5 0-.9.2t-.6.6q-.2.3-.2.8zm4.5 0h-1v-6.6h1zm-.5-7.7q-.3 0-.5-.2t-.2-.5q0-.2.2-.5.2-.2.5-.2t.5.2q.3.3.3.5 0 .3-.3.5-.2.2-.5.2m3.5 10.1h-1.1v-9h1v1.1h.1q.1-.2.3-.5.2-.2.6-.5.4-.2 1-.2.9 0 1.5.4.6.5 1 1.2.3.8.3 1.8 0 1.1-.3 1.8-.4.8-1 1.2t-1.5.4q-.6 0-1-.2-.3-.2-.6-.5-.2-.3-.3-.4zm1.8-3.2q.6 0 1-.4.4-.3.6-.9.2-.5.2-1.2t-.2-1.2q-.2-.6-.6-.9t-1-.3-1 .3-.7.8q-.2.6-.2 1.3t.2 1.3q.3.5.7.8.4.4 1 .4m5.7-5.8h1.3v.9h-1.3v4q0 .4.2.6.1.2.5.2h.3q.2 0 .3-.1l.2.9q-.2.1-.4.1h-.4q-.8 0-1.3-.4t-.5-1.3v-4h-1v-.9h1v-1.5h1.1zm5.3 6.7q-.9 0-1.5-.4-.7-.4-1.1-1.2-.3-.8-.3-1.8t.3-1.8q.4-.7 1.1-1.1.6-.5 1.5-.5t1.6.5q.7.4 1.1 1.1.3.8.3 1.8t-.3 1.8q-.4.8-1.1 1.2t-1.6.4m0-.9q.7 0 1.1-.4.5-.3.7-.9.2-.5.2-1.2 0-.6-.2-1.2-.2-.5-.7-.9-.4-.3-1.1-.3-.6 0-1 .3-.5.4-.7.9-.2.6-.2 1.2 0 .7.2 1.2.2.6.7.9.4.4 1 .4m5.6.8h-1v-6.6h1v1h.1q.1-.5.6-.8t1.1-.3h.5v1.1h-.2q-.2-.1-.4-.1-.5 0-.9.2t-.6.6q-.2.3-.2.8zm5.7.1q-.7 0-1.2-.2t-.9-.6q-.3-.4-.4-.9l1-.3q.1.6.5.8.4.3 1 .3.7 0 1.1-.3t.4-.7q0-.3-.2-.6-.3-.2-.8-.3l-1.1-.3q-.8-.2-1.3-.6-.4-.5-.4-1.2 0-.5.3-1 .3-.4.9-.6.5-.3 1.2-.3t1.2.2q.4.2.7.6.3.3.5.8l-1 .3q-.1-.4-.4-.7t-1-.3q-.6 0-1 .3-.3.3-.3.7 0 .3.2.6.3.2.9.3l.9.3q.9.2 1.4.6.4.4.4 1.1 0 .6-.3 1-.4.5-.9.7-.6.3-1.4.3"/><defs><clipPath id="o"><path d="M156 467h137a8 8 0 0 1 8 8v18a8 8 0 0 1-8 8H156a8 8 0 0 1-8-8v-18a8 8 0 0 1 8-8"/></clipPath></defs><path fill="#f8fafc" d="M156 467h137a8 8 0 0 1 8 8v18a8 8 0 0 1-8 8H156a8 8 0 0 1-8-8v-18a8 8 0 0 1 8-8"/><path fill="none" stroke="#e2e8f0" stroke-width="2" d="M150.343 469.343A8 8 0 0 1 156 467h137a8 8 0 0 1 8 8v18a8 8 0 0 1-8 8H156a8 8 0 0 1-8-8v-18a8 8 0 0 1 2.343-5.657" clip-path="url(#o)"/><path fill="#3b82f6" d="M164 481a3 3 0 0 1 3 3 3 3 0 0 1-3 3 3 3 0 0 1-3-3 3 3 0 0 1 3-3"/><path fill="#64748b" d="M177.2 488.4h-1.1v-8.8h2.9q1.1 0 1.7.4.7.4 1 1t.3 1.4-.3 1.4q-.3.7-1 1-.6.4-1.7.4h-1.8zm0-7.8v3.6h1.8q.7 0 1.1-.2t.6-.7q.2-.4.2-.9t-.2-.9-.6-.7q-.4-.2-1.1-.2zm7.4 7.8h-1v-6.6h1v1h.1q.2-.5.6-.8.5-.3 1.1-.3h.5v1.1h-.2q-.2-.1-.4-.1-.5 0-.9.2-.3.2-.5.6-.3.3-.3.8zm4.6 0h-1.1v-6.6h1.1zm-.6-7.7q-.3 0-.5-.2t-.2-.5q0-.2.2-.5.2-.2.5-.2t.6.2q.2.3.2.5 0 .3-.2.5-.3.2-.6.2m5.4 7.7h-1.1l-2.5-6.6h1.2l1.4 3.9q.2.6.3 1.2.1.3.2.5 0-.2.1-.5l.4-1.2 1.4-3.9h1.1zm5.6.1q-.6 0-1.1-.2-.5-.3-.8-.7-.3-.5-.3-1.1t.2-.9q.2-.4.6-.6.3-.2.8-.3t.9-.1q.6-.1 1-.1.3-.1.5-.2t.2-.3v-.1q0-.4-.2-.7-.1-.2-.4-.4-.3-.1-.8-.1-.4 0-.8.1-.3.2-.5.4t-.3.4l-1.1-.3q.3-.6.7-.9.5-.4 1-.5.5-.2 1-.2.3 0 .7.1.5.1.8.3.4.3.7.7.2.5.2 1.2v4.4h-1v-.9h-.1q-.1.2-.3.4-.3.3-.7.5-.4.1-.9.1m.2-.9q.6 0 1-.2.4-.3.6-.6.2-.4.2-.8v-.9q-.1.1-.3.1-.2.1-.5.1-.3.1-.5.1-.3 0-.4.1-.4 0-.8.1-.3.1-.5.4-.2.2-.2.6 0 .3.2.5.2.3.5.4t.7.1m5.9-5.8h1.4v.9h-1.4v4q0 .4.2.6t.6.2h.3q.1 0 .2-.1l.3.9q-.2.1-.4.1h-.4q-.9 0-1.4-.4-.4-.4-.4-1.3v-4h-1v-.9h1v-1.5h1zm5.5 6.7q-1 0-1.7-.4t-1-1.2q-.4-.7-.4-1.8 0-1 .4-1.7.3-.8 1-1.2.7-.5 1.6-.5.5 0 1 .2t.9.6q.4.3.7 1 .2.6.2 1.5v.4h-4.7q0 .7.2 1.1.3.5.7.8.5.3 1.1.3.4 0 .7-.1.3-.2.5-.4.3-.2.4-.5l1 .2q-.2.5-.5.9-.4.4-.9.6-.6.2-1.2.2m-2-3.9h3.6q0-.5-.2-.9-.2-.5-.6-.7-.4-.3-.9-.3-.6 0-1.1.3-.4.3-.6.7t-.2.9m10.8 3.8h-1.1v-8.8h1.1v4.6q.2-.1.3-.3.3-.4.6-.7.3-.4.6-.7l2.6-2.9h1.5l-3.5 3.8 3.5 5h-1.3l-3-4.2-1.3 1.3zm9.6.1q-.9 0-1.6-.4t-1.1-1.2q-.4-.7-.4-1.8 0-1 .4-1.7.4-.8 1-1.2.7-.5 1.6-.5.5 0 1 .2t.9.6q.4.3.7 1 .2.6.2 1.5v.4h-4.7q0 .7.3 1.1.2.5.7.8.4.3 1 .3.4 0 .7-.1l.6-.4q.2-.2.3-.5l1 .2q-.1.5-.5.9-.3.4-.9.6-.5.2-1.2.2m-2-3.9h3.7q-.1-.5-.2-.9-.2-.5-.6-.7-.4-.3-1-.3t-1 .3-.7.7q-.2.4-.2.9m6.1 6.1.3-.9.1.1h.6q.3 0 .5-.3.2-.2.4-.7l.1-.5-2.5-6.6h1.2l1.4 3.9.4 1.2q0 .3.1.5.1-.2.1-.5l.4-1.2 1.4-3.9h1.2l-2.9 7.5q-.2.6-.5.9t-.6.5q-.4.2-.9.2-.3 0-.5-.1-.2 0-.3-.1m9.1-2.2q-.7 0-1.2-.2t-.8-.6q-.4-.4-.5-.9l1-.3q.1.6.5.8.4.3 1 .3.7 0 1.1-.3t.4-.7q0-.3-.2-.6-.3-.2-.8-.3l-1-.3q-.9-.2-1.4-.6-.4-.5-.4-1.2 0-.5.3-1 .3-.4.9-.6.5-.3 1.2-.3t1.2.2q.4.2.7.6.3.3.5.8l-1 .3q-.1-.4-.4-.7t-1-.3q-.6 0-.9.3-.4.3-.4.7 0 .3.2.6.3.2.9.3l1 .3q.9.2 1.3.6t.4 1.1q0 .6-.3 1-.3.5-.9.7-.6.3-1.4.3"/><path fill="#cbd5e1" d="M364 215h140v2H364zm139 2h2v16h-2z"/><defs><clipPath id="p"><path d="M424 233h160a8 8 0 0 1 8 8v14a8 8 0 0 1-8 8H424a8 8 0 0 1-8-8v-14a8 8 0 0 1 8-8"/></clipPath></defs><path fill="#fff" d="M424 233h160a8 8 0 0 1 8 8v14a8 8 0 0 1-8 8H424a8 8 0 0 1-8-8v-14a8 8 0 0 1 8-8"/><path fill="none" stroke="#e2e8f0" stroke-width="2" d="M418.343 235.343A8 8 0 0 1 424 233h160a8 8 0 0 1 8 8v14a8 8 0 0 1-8 8H424a8 8 0 0 1-8-8v-14a8 8 0 0 1 2.343-5.657" clip-path="url(#p)"/><path fill="#64748b" d="M431.2 252.4h-1.1v-8.8h1.1v3.8h4.6v-3.8h1.1v8.8h-1.1v-4h-4.6zm8.9 0H439v-8.8h1.1v4.6q.1-.1.2-.3.3-.4.6-.7.3-.4.7-.7l2.6-2.9h1.4l-3.5 3.8 3.5 5h-1.3l-3-4.2-1.2 1.3zm9.7 0H447v-8.8h2.9q1.2 0 2.2.6.9.5 1.3 1.5.5.9.5 2.3 0 1.3-.5 2.3-.4 1-1.4 1.5-.9.6-2.2.6m-1.7-7.8v6.8h1.6q1.1 0 1.8-.4t1-1.2.3-1.8q0-1.1-.3-1.8-.3-.8-1-1.2t-1.7-.4zm8.7 7.8h-1.1v-8.8h5.3v1h-4.2v3h3.8v1h-3.8zm6.2-3.6q0-.9.2-2 .2-1 .5-2 .4-1 .8-1.7h1q-.4.9-.7 1.9-.4 1-.5 2-.2 1-.2 1.8t.1 1.6q.2.8.5 1.7t.8 1.9h-1q-.7-1.3-1.1-2.6t-.4-2.6m5.3-1.8h-.8l-.2-3.4h1.2zm2 0h-.8l-.2-3.4h1.2zm5 5.5q-.9 0-1.6-.4-.6-.4-1-1.2t-.4-1.8.4-1.8q.4-.7 1-1.1.7-.5 1.6-.5.5 0 .9.2.4.1.8.3.3.2.6.6.2.3.3.7l-1 .3q0-.2-.2-.4-.1-.2-.3-.4-.3-.2-.5-.2-.3-.1-.6-.1-.7 0-1.1.3-.4.4-.6.9-.2.6-.2 1.2 0 .7.2 1.2.2.6.6.9.4.4 1.1.4.3 0 .6-.1t.5-.3q.2-.1.3-.4.2-.2.3-.4l1 .2q-.2.5-.4.8-.3.4-.6.6-.4.3-.8.4t-.9.1m6.4 0q-.7 0-1.2-.2t-.9-.6q-.3-.4-.4-.9l1-.3q.1.6.5.8.4.3 1 .3.7 0 1.1-.3t.4-.7q0-.3-.2-.6-.3-.2-.8-.3l-1.1-.3q-.9-.2-1.3-.6-.4-.5-.4-1.2 0-.5.3-1 .3-.4.9-.6.5-.3 1.2-.3t1.2.2q.4.2.7.6.3.3.5.8l-1 .3q-.1-.4-.4-.7-.4-.3-1-.3t-1 .3-.4.7q0 .3.3.6.3.2.8.3l1 .3q.9.2 1.4.6.4.4.4 1.1 0 .6-.3 1-.4.5-1 .7-.5.3-1.3.3m5.2 2.3h-1.1v-9h1v1.1h.1q.2-.2.4-.5l.5-.5q.4-.2 1-.2.9 0 1.5.4.6.5 1 1.2.3.8.3 1.8 0 1.1-.3 1.8-.4.8-1 1.2t-1.5.4q-.6 0-1-.2-.3-.2-.5-.5t-.4-.4zm1.8-3.2q.6 0 1-.4.4-.3.6-.9.2-.5.2-1.2t-.2-1.2q-.2-.6-.6-.9t-1-.3-1 .3-.6.8q-.3.6-.3 1.3t.3 1.3q.2.5.6.8.4.4 1 .4m5.5 3.2h-1v-9h1v1.1h.1q.1-.2.3-.5.2-.2.6-.5.4-.2 1-.2.8 0 1.4.4.7.5 1 1.2.4.8.4 1.8 0 1.1-.4 1.8-.3.8-1 1.2-.6.4-1.4.4-.6 0-1-.2t-.6-.5-.3-.4h-.1zm1.8-3.2q.7 0 1.1-.4.4-.3.6-.9.2-.5.2-1.2t-.2-1.2q-.2-.6-.6-.9t-1.1-.3q-.6 0-1 .3t-.6.8q-.2.6-.2 1.3t.2 1.3q.2.5.6.8.4.4 1 .4m5.3.8q-.3 0-.6-.2-.2-.2-.2-.5 0-.4.2-.6.3-.2.6-.2t.6.2q.2.2.2.6 0 .3-.2.5-.3.2-.6.2m0-4.7q-.3 0-.6-.2-.2-.3-.2-.6t.2-.5q.3-.3.6-.3t.6.3q.2.2.2.5t-.2.6q-.3.2-.6.2m5.7 4.7h-1.1l-2.6-6.6h1.2l1.4 3.9.4 1.2q0 .3.1.5.1-.2.1-.5l.4-1.2 1.4-3.9h1.2zm5.2-8.8h1.4v8.8h-1.1v-7.7h-.1l-2.1 1.5V245zm4.2 8.8q-.3 0-.6-.2-.2-.2-.2-.5 0-.4.2-.6.3-.2.6-.2t.5.2q.3.2.3.6 0 .3-.3.5-.2.2-.5.2m0-4.7q-.3 0-.6-.2-.2-.3-.2-.6t.2-.5q.3-.3.6-.3t.5.3q.3.2.3.5t-.3.6q-.2.2-.5.2m4.9 4.8q-.7 0-1.2-.2-.6-.2-.9-.6t-.5-.9l1.1-.3q.1.6.5.8.4.3 1 .3t1-.3q.5-.3.5-.7 0-.3-.3-.6-.2-.2-.7-.3l-1.1-.3q-.9-.2-1.3-.6-.5-.5-.5-1.2 0-.5.4-1 .3-.4.8-.6.6-.3 1.3-.3.6 0 1.1.2t.8.6q.3.3.4.8l-.9.3q-.2-.4-.5-.7t-.9-.3-1 .3-.4.7q0 .3.3.6.2.2.8.3l1 .3q.9.2 1.3.6.5.4.5 1.1 0 .6-.4 1-.3.5-.9.7-.6.3-1.3.3m6.8 0q-.9 0-1.6-.4t-1.1-1.2q-.3-.7-.3-1.8 0-1 .3-1.7.4-.8 1.1-1.2.6-.5 1.5-.5.5 0 1 .2t1 .6q.4.3.6 1 .3.6.3 1.5v.4h-4.8q0 .7.3 1.1.2.5.7.8.4.3 1 .3.4 0 .7-.1.4-.2.6-.4t.3-.5l1.1.2q-.2.5-.6.9-.3.4-.9.6-.5.2-1.2.2m-2-3.9h3.7q-.1-.5-.2-.9-.2-.5-.6-.7-.4-.3-1-.3t-1 .3-.7.7q-.1.4-.2.9m7.3-.2v4h-1v-6.6h1v1.2q.3-.6.7-.9.6-.4 1.3-.4t1.2.3.7.8q.3.6.3 1.4v4.2h-1v-4.1q0-.8-.4-1.2t-1.1-.4q-.5 0-.9.2-.3.2-.6.6-.2.4-.2.9m8.3 4.1q-.7 0-1.2-.2t-.9-.6q-.3-.4-.4-.9l1-.3q.1.6.5.8.4.3 1 .3.7 0 1.1-.3t.4-.7q0-.3-.3-.6-.2-.2-.7-.3l-1.1-.3q-.9-.2-1.3-.6-.4-.5-.4-1.2 0-.5.3-1 .3-.4.8-.6.6-.3 1.3-.3t1.1.2q.5.2.8.6.3.3.4.8l-.9.3q-.1-.4-.5-.7-.3-.3-.9-.3t-1 .3-.4.7q0 .3.3.6.3.2.8.3l1 .3q.9.2 1.3.6.5.4.5 1.1 0 .6-.4 1-.3.5-.9.7-.5.3-1.3.3m5.1-.1h-1v-6.6h1zm-.5-7.7q-.3 0-.5-.2t-.2-.5q0-.2.2-.5.2-.2.5-.2t.5.2q.3.3.3.5 0 .3-.3.5-.2.2-.5.2m3.6 1.1h1.4v.9h-1.4v4q0 .4.2.6t.6.2h.3q.1 0 .2-.1l.3.9q-.2.1-.4.1h-.4q-.9 0-1.3-.4-.5-.4-.5-1.3v-4h-1v-.9h1v-1.5h1zm3.8 6.6h-1.1v-6.6h1.1zm-.5-7.7q-.3 0-.6-.2-.2-.2-.2-.5 0-.2.2-.5.3-.2.6-.2t.5.2q.2.3.2.5 0 .3-.2.5t-.5.2m5.3 7.7h-1.1l-2.5-6.6h1.2l1.4 3.9.4 1.2q0 .3.1.5 0-.2.1-.5l.4-1.2 1.4-3.9h1.1zm6.5.1q-.9 0-1.6-.4t-1.1-1.2q-.3-.7-.3-1.8 0-1 .3-1.7.4-.8 1.1-1.2.6-.5 1.5-.5.5 0 1 .2t1 .6q.4.3.6 1 .3.6.3 1.5v.4H563q.1.7.3 1.1.2.5.7.8.4.3 1 .3.4 0 .7-.1.4-.2.6-.4t.3-.5l1.1.2q-.2.5-.6.9-.3.4-.9.6-.5.2-1.2.2m-2-3.9h3.7q-.1-.5-.2-.9-.2-.5-.6-.7-.4-.3-1-.3t-1 .3-.6.7-.3.9m7.6-1.6h-.9l-.1-3.4h1.1zm2 0h-.9l-.1-3.4h1.1zm2.9 7h-1q.5-1.1.8-2 .4-.9.5-1.7.2-.7.2-1.5t-.2-1.8-.5-2-.8-1.9h1q.5.7.8 1.7.4 1 .5 2 .2 1.1.2 2 0 1.3-.4 2.6-.3 1.4-1.1 2.6"/><path fill="#cbd5e1" d="M503 275h2v16h-2z"/><defs><clipPath id="s"><path d="M396 291h216a12 12 0 0 1 12 12v56a12 12 0 0 1-12 12H396a12 12 0 0 1-12-12v-56a12 12 0 0 1 12-12"/></clipPath></defs><mask id="r" maskUnits="userSpaceOnUse"><path fill="#fff" d="M0 0h760v600H0z"/><path stroke-width="0" d="M396 291h216a12 12 0 0 1 12 12v56a12 12 0 0 1-12 12H396a12 12 0 0 1-12-12v-56a12 12 0 0 1 12-12"/></mask><defs><filter id="q" width="153.333%" height="260%" x="-26.667%" y="-80%"><feGaussianBlur result="b" stdDeviation="8"/><feFlood flood-color="#8b5cf615" result="f"/><feComposite in="f" in2="b" operator="in"/></filter></defs><g filter="url(#q)" mask="url(#r)"><path fill="#fff" d="M396 295h216a12 12 0 0 1 12 12v56a12 12 0 0 1-12 12H396a12 12 0 0 1-12-12v-56a12 12 0 0 1 12-12"/></g><path fill="#fff" d="M396 291h216a12 12 0 0 1 12 12v56a12 12 0 0 1-12 12H396a12 12 0 0 1-12-12v-56a12 12 0 0 1 12-12"/><path fill="none" stroke="#8b5cf6" stroke-width="4" d="M387.515 294.515A12 12 0 0 1 396 291h216a12 12 0 0 1 12 12v56a12 12 0 0 1-12 12H396a12 12 0 0 1-12-12v-56a12 12 0 0 1 3.515-8.485" clip-path="url(#s)"/><path fill="#ede9fe" d="M414 313h20a8 8 0 0 1 8 8v20a8 8 0 0 1-8 8h-20a8 8 0 0 1-8-8v-20a8 8 0 0 1 8-8"/><clipPath id="t"><path d="M414 321h20v20h-20z"/></clipPath><mask id="u"><path fill="#fff" d="M414 321h20v20h-20z"/></mask><image width="20" height="20" x="414" y="321" clip-path="url(#t)" href="data:image/svg+xml;utf8,%3Csvg fill=%22none%22 xmlns=%22http://www.w3.org/2000/svg%22 width=%2220%22 height=%2220%22 viewBox=%220 0 24 24%22%3E%3Cpath fill=%22%237c3aed%22 fill-rule=%22evenodd%22 clip-rule=%22evenodd%22 d=%22M5.625 1.5C4.58947 1.5 3.75 2.33947 3.75 3.375V20.625C3.75 21.6605 4.58947 22.5 5.625 22.5H18.375C19.4105 22.5 20.25 21.6605 20.25 20.625V12.75C20.25 10.6789 18.5711 9 16.5 9H14.625C13.5895 9 12.75 8.16053 12.75 7.125V5.25C12.75 3.17893 11.0711 1.5 9 1.5H5.625ZM7.5 15C7.5 14.5858 7.83579 14.25 8.25 14.25H15.75C16.1642 14.25 16.5 14.5858 16.5 15C16.5 15.4142 16.1642 15.75 15.75 15.75H8.25C7.83579 15.75 7.5 15.4142 7.5 15ZM8.25 17.25C7.83579 17.25 7.5 17.5858 7.5 18C7.5 18.4142 7.83579 18.75 8.25 18.75H12C12.4142 18.75 12.75 18.4142 12.75 18C12.75 17.5858 12.4142 17.25 12 17.25H8.25Z%22%3E%3C/path%3E%3Cpath fill=%22%237c3aed%22 d=%22M12.9712 1.8159C13.768 2.73648 14.25 3.93695 14.25 5.25V7.125C14.25 7.33211 14.4179 7.5 14.625 7.5H16.5C17.8131 7.5 19.0135 7.98204 19.9341 8.77881C19.0462 5.37988 16.3701 2.70377 12.9712 1.8159Z%22%3E%3C/path%3E%3C/svg%3E" mask="url(#u)" preserveAspectRatio="none"/><path fill="#0f172a" d="M456.7 336.2q-1.3 0-2.2-.3-.9-.4-1.4-1.1-.5-.8-.5-1.9h2q.1.5.3.9.3.3.7.5.5.2 1 .2.6 0 1-.2.4-.1.7-.4.2-.3.2-.7t-.2-.6-.6-.4-1-.3l-1.1-.3q-1.3-.3-2-1t-.7-1.8q0-.9.5-1.6.4-.7 1.3-1 .9-.4 2-.4t2 .4q.8.3 1.3 1 .4.7.4 1.6h-2q0-.6-.5-.9-.5-.4-1.2-.4-.6 0-.9.2-.4.1-.6.4t-.2.6q0 .4.2.6.2.3.6.4.4.2.8.3l.9.2q.7.2 1.2.4.6.2 1 .6t.7.9q.2.5.2 1.1 0 .9-.5 1.6-.4.7-1.3 1.1-.9.3-2.1.3m12.2-.1h-6.8v-10.2h6.8v1.7h-4.7v2.5h4.3v1.7h-4.3v2.6h4.7zm3.8 0h-2.1v-10.2h2.3l3.2 5.2q.3.4.5.8.3.5.6 1.1.1.2.2.5v-.5q-.1-.6-.1-1.2v-5.9h2.1v10.2h-2.3l-2.9-4.7q-.4-.5-.6-1-.3-.5-.6-1.1l-.4-.8v.8q.1.7.1 1.2zm12.3.1q-1.2 0-2.1-.3-.9-.4-1.4-1.1-.5-.8-.6-1.9h2.1q0 .5.3.9.2.3.7.5.4.2 1 .2.5 0 1-.2.4-.1.6-.4t.2-.7-.2-.6-.6-.4-.9-.3l-1.1-.3q-1.3-.3-2.1-1-.7-.7-.7-1.8 0-.9.5-1.6t1.4-1q.8-.4 1.9-.4 1.2 0 2 .4.8.3 1.3 1t.5 1.6h-2q-.1-.6-.5-.9-.5-.4-1.3-.4-.5 0-.9.2-.4.1-.6.4t-.2.6q0 .4.3.6.2.3.6.4.3.2.8.3l.9.2 1.2.4q.5.2 1 .6.4.4.6.9t.2 1.1q0 .9-.4 1.6-.5.7-1.4 1.1-.9.3-2.1.3m5.4-10.3h2.1v10.2h-2.1zm6.7 1.7H494v-1.7h8.3v1.7h-3.1v8.5h-2.1zm6.6-1.7h2.1v10.2h-2.1zm9.6 10.2h-2.7l-3.6-10.2h2.4l1.6 4.9q.3 1 .6 2.1.2.7.4 1.5.2-.8.4-1.5.3-1.1.6-2.1l1.5-4.9h2.3zm11.6 0h-6.8v-10.2h6.8v1.7h-4.7v2.5h4.3v1.7h-4.3v2.6h4.7zm8.6 0h-3.6v-10.2h3.6q1.6 0 2.7.6t1.7 1.8q.6 1.1.6 2.7t-.6 2.7q-.6 1.2-1.7 1.8-1.2.6-2.7.6m-1.5-8.4v6.6h1.4q1 0 1.6-.4.7-.3 1-1 .4-.8.4-1.9t-.4-1.9q-.3-.7-1-1-.6-.4-1.6-.4zm9.7 8.4h-2.3l3.5-10.2h2.7l3.6 10.2h-2.3l-.8-2.4h-3.6zm1.3-4h2.6l-.3-.9q-.3-1-.6-2.1-.2-.7-.4-1.6-.2.9-.4 1.6-.3 1.1-.6 2.1zm10.2-4.5h-3.1v-1.7h8.3v1.7h-3.1v8.5h-2.1zm8.3 8.5h-2.3l3.5-10.2h2.7l3.6 10.2h-2.3l-.8-2.4h-3.6zm1.3-4h2.6l-.3-.9q-.3-1-.6-2.1-.2-.7-.4-1.6-.3.9-.4 1.6-.3 1.1-.6 2.1zm12.9 4h-2.1v-10.2h2.1v2.8l-.1 2.3q.1-.1.1-.2.3-.4.7-.9t.8-1.1l2.5-2.9h2.6l-3.8 4.4 3.9 5.8h-2.5l-2.9-4.4-1.3 1.5zm14.8 0h-6.8v-10.2h6.8v1.7h-4.8v2.5h4.4v1.7h-4.4v2.6h4.8zm6.9 0h-2.1v-3.8l-3.7-6.4h2.4l1.7 3.2q.3.5.5.9.1.2.2.5.1-.3.2-.5.2-.4.4-.9l1.7-3.2h2.4l-3.7 6.4z"/><defs><clipPath id="v"><path d="M430 387h148a8 8 0 0 1 8 8v18a8 8 0 0 1-8 8H430a8 8 0 0 1-8-8v-18a8 8 0 0 1 8-8"/></clipPath></defs><path fill="#f8fafc" d="M430 387h148a8 8 0 0 1 8 8v18a8 8 0 0 1-8 8H430a8 8 0 0 1-8-8v-18a8 8 0 0 1 8-8"/><path fill="none" stroke="#e2e8f0" stroke-width="2" d="M424.343 389.343A8 8 0 0 1 430 387h148a8 8 0 0 1 8 8v18a8 8 0 0 1-8 8H430a8 8 0 0 1-8-8v-18a8 8 0 0 1 2.343-5.657" clip-path="url(#v)"/><path fill="#8b5cf6" d="M438 401a3 3 0 0 1 3 3 3 3 0 0 1-3 3 3 3 0 0 1-3-3 3 3 0 0 1 3-3"/><path fill="#64748b" d="M455.4 408.4h-5.3v-8.8h5.3v1h-4.2v2.9h3.9v1h-3.9v2.9h4.2zm2.4 0h-1.2l2.3-3.4-2.2-3.2h1.3l.8 1.3q.3.5.5.9l.2.4.2-.4q.2-.4.5-.9l.9-1.3h1.2l-2.2 3.3 2.3 3.3h-1.2l-1-1.5q-.3-.5-.5-.9-.1-.2-.2-.3-.1.1-.2.3-.2.4-.5.9zm7.1-6.6h1.4v.9h-1.4v4q0 .4.2.6t.6.2h.2q.2 0 .3-.1l.2.9q-.1.1-.3.1h-.4q-.9 0-1.4-.4-.4-.4-.4-1.3v-4h-1v-.9h1v-1.5h1zm5.5 6.7q-1 0-1.7-.4t-1-1.2q-.4-.7-.4-1.8 0-1 .4-1.7.3-.8 1-1.2.7-.5 1.5-.5.6 0 1.1.2t.9.6q.4.3.7 1 .2.6.2 1.5v.4h-4.7q0 .7.2 1.1.3.5.7.8.5.3 1.1.3.4 0 .7-.1.3-.2.5-.4.3-.2.4-.5l1 .2q-.2.5-.5.9-.4.4-.9.6-.6.2-1.2.2m-2-3.9h3.6q0-.5-.2-.9-.2-.5-.6-.7-.4-.3-1-.3-.5 0-1 .3-.4.3-.6.7t-.2.9m7.3-.2v4h-1.1v-6.6h1v1.2q.3-.6.7-.9.6-.4 1.3-.4t1.2.3.8.8q.2.6.2 1.4v4.2h-1v-4.1q0-.8-.4-1.2t-1.1-.4q-.5 0-.8.2-.4.2-.6.6t-.2.9m8.5 4.1q-.9 0-1.5-.4t-1-1.2q-.3-.7-.3-1.8 0-1 .3-1.8.4-.7 1-1.2.6-.4 1.5-.4.6 0 1 .2.4.3.6.5.2.3.3.5v-3.3h1.1v8.8h-1v-1h-.1l-.4.4q-.2.3-.5.5-.4.2-1 .2m.1-.9q.6 0 1-.4.4-.3.6-.8.3-.6.3-1.3t-.3-1.3q-.2-.5-.6-.8t-1-.3-1 .3-.6.9q-.2.5-.2 1.2t.2 1.2q.2.6.6.9.4.4 1 .4m7.5.9q-.9 0-1.6-.4t-1.1-1.2q-.4-.7-.4-1.8 0-1 .4-1.7.4-.8 1-1.2.7-.5 1.6-.5.5 0 1 .2t.9.6q.4.3.7 1 .2.6.2 1.5v.4h-4.7q0 .7.3 1.1.2.5.7.8.4.3 1 .3.4 0 .7-.1l.6-.4q.2-.2.3-.5l1 .2q-.1.5-.5.9t-.9.6-1.2.2m-2-3.9h3.7q-.1-.5-.2-.9-.2-.5-.6-.7-.4-.3-1-.3t-1 .3q-.5.3-.7.7t-.2.9m8.7 3.9q-.8 0-1.4-.4-.7-.4-1-1.2-.4-.7-.4-1.8 0-1 .4-1.8.3-.7 1-1.2.6-.4 1.4-.4.6 0 1 .2.4.3.6.5.2.3.3.5h.1v-3.3h1v8.8h-1v-1h-.1q-.1.1-.3.4t-.6.5-1 .2m.2-.9q.6 0 1-.4.4-.3.6-.8.2-.6.2-1.3t-.2-1.3q-.2-.5-.6-.8t-1-.3q-.7 0-1.1.3t-.6.9q-.2.5-.2 1.2t.2 1.2q.2.6.6.9.4.4 1.1.4m9.3.8h-1.1v-8.8h3q1 0 1.7.4.6.4.9 1 .4.6.4 1.4t-.4 1.4q-.3.7-.9 1-.7.4-1.7.4H508zm0-7.8v3.6h1.8q.7 0 1.2-.2.4-.2.6-.7.2-.4.2-.9t-.2-.9-.7-.7q-.4-.2-1.1-.2zm8.7 7.8q-.7 0-1.2-.2-.5-.3-.8-.8-.3-.6-.3-1.4v-4.2h1.1v4.1q0 .7.4 1.2.4.4 1.1.4.4 0 .8-.2t.6-.6.2-1v-3.9h1.1v6.6h-1v-1.3q-.3.7-.8 1t-1.2.3m7.9.1q-.7 0-1-.2-.4-.2-.6-.5t-.3-.4h-.2v1h-1v-8.8h1.1v3.3h.1q.1-.2.3-.5l.5-.5q.4-.2 1.1-.2.8 0 1.4.4.6.5 1 1.2.3.8.3 1.8 0 1.1-.3 1.8-.4.8-1 1.2t-1.4.4m-.2-.9q.6 0 1-.4.5-.3.7-.9.2-.5.2-1.2t-.2-1.2q-.2-.6-.7-.9-.4-.3-1-.3t-1 .3-.6.8q-.2.6-.2 1.3t.2 1.3q.2.5.6.8.4.4 1 .4m4.5-8h1v8.8h-1zm3.9 8.8h-1v-6.6h1zm-.5-7.7q-.3 0-.5-.2t-.2-.5q0-.2.2-.5.2-.2.5-.2t.5.2q.3.3.3.5 0 .3-.3.5-.2.2-.5.2m5.1 7.8q-.9 0-1.6-.4t-1.1-1.2q-.3-.8-.3-1.8t.3-1.8q.4-.7 1.1-1.1.7-.5 1.6-.5.4 0 .9.2.4.1.7.3.4.2.6.6.3.3.4.7l-1 .3-.2-.4-.4-.4q-.2-.2-.5-.2-.2-.1-.5-.1-.7 0-1.1.3-.4.4-.7.9-.2.6-.2 1.2 0 .7.2 1.2.3.6.7.9.4.4 1.1.4.3 0 .6-.1.2-.1.4-.3.3-.1.4-.4.2-.2.2-.4l1 .2q-.1.5-.4.8-.2.4-.6.6-.3.3-.7.4-.5.1-.9.1m8.8-.1H545v-8.8h1.2v3l-.1 1.6q.2-.1.3-.3.3-.4.6-.7.3-.4.6-.7l2.7-2.9h1.4l-3.5 3.8 3.5 5h-1.3l-3-4.2-1.2 1.3zm9.5.1q-.9 0-1.6-.4t-1.1-1.2q-.3-.7-.3-1.8 0-1 .3-1.7.4-.8 1.1-1.2.6-.5 1.5-.5.5 0 1 .2t1 .6q.4.3.6 1 .3.6.3 1.5v.4h-4.8q.1.7.3 1.1.2.5.7.8.4.3 1 .3.4 0 .7-.1.4-.2.6-.4t.3-.5l1.1.2q-.2.5-.6.9-.3.4-.9.6-.5.2-1.2.2m-2-3.9h3.7q0-.5-.2-.9-.2-.5-.6-.7-.4-.3-1-.3t-1 .3-.6.7-.3.9m6.2 6.1.2-.9.2.1h.5q.3 0 .5-.3.2-.2.4-.7l.2-.5-2.5-6.6h1.1l1.4 3.9.4 1.2q.1.3.1.5.1-.2.2-.5.1-.6.3-1.2l1.4-3.9h1.2l-2.9 7.5q-.2.6-.5.9t-.6.5q-.4.2-.9.2-.2 0-.4-.1-.2 0-.3-.1m9-2.2q-.6 0-1.2-.2-.5-.2-.8-.6-.4-.4-.5-.9l1-.3q.2.6.6.8.3.3.9.3.7 0 1.1-.3t.4-.7q0-.3-.2-.6-.2-.2-.7-.3l-1.1-.3q-.9-.2-1.3-.6-.5-.5-.5-1.2 0-.5.3-1 .4-.4.9-.6.6-.3 1.3-.3.6 0 1.1.2t.8.6q.3.3.4.8l-.9.3q-.2-.4-.5-.7t-.9-.3-1 .3-.4.7q0 .3.3.6.2.2.8.3l1 .3q.9.2 1.3.6t.4 1.1q0 .6-.3 1-.3.5-.9.7-.6.3-1.4.3"/><defs><clipPath id="w"><path d="M430 427h148a8 8 0 0 1 8 8v18a8 8 0 0 1-8 8H430a8 8 0 0 1-8-8v-18a8 8 0 0 1 8-8"/></clipPath></defs><path fill="#f8fafc" d="M430 427h148a8 8 0 0 1 8 8v18a8 8 0 0 1-8 8H430a8 8 0 0 1-8-8v-18a8 8 0 0 1 8-8"/><path fill="none" stroke="#e2e8f0" stroke-width="2" d="M424.343 429.343A8 8 0 0 1 430 427h148a8 8 0 0 1 8 8v18a8 8 0 0 1-8 8H430a8 8 0 0 1-8-8v-18a8 8 0 0 1 2.343-5.657" clip-path="url(#w)"/><path fill="#8b5cf6" d="M438 441a3 3 0 0 1 3 3 3 3 0 0 1-3 3 3 3 0 0 1-3-3 3 3 0 0 1 3-3"/><path fill="#64748b" d="M453 448.4h-1.3l-2.4-8.8h1.1l1.4 5.4q.1.4.2.9.1.4.2.9.1.2.1.5.1-.3.2-.5 0-.5.2-.9.1-.5.2-.9l1.4-5.4h1.2l1.4 5.4q.2.4.3.9.1.4.2.9 0 .2.1.5 0-.3.1-.5.1-.5.2-.9.1-.5.2-.9l1.4-5.4h1.1l-2.4 8.8h-1.3l-1.5-5.6q-.1-.5-.2-1.1l-.2-.8q-.1.4-.1.7-.2.6-.3 1.2zm10.6.1q-.6 0-1.1-.2-.6-.3-.8-.7-.3-.5-.3-1.1t.2-.9q.2-.4.6-.6.3-.2.8-.3.4-.1.9-.1.6-.1 1-.1.3-.1.5-.2t.2-.3v-.1q0-.4-.2-.7-.1-.2-.4-.4-.3-.1-.8-.1t-.8.1q-.3.2-.5.4t-.3.4l-1.1-.3q.3-.6.7-.9.4-.4 1-.5.5-.2 1-.2.3 0 .7.1t.8.3q.4.3.7.7.2.5.2 1.2v4.4h-1v-.9h-.1q-.1.2-.3.4-.3.3-.7.5-.4.1-.9.1m.2-.9q.6 0 1-.2.4-.3.6-.6.2-.4.2-.8v-.9q-.1.1-.3.1-.2.1-.5.1-.3.1-.5.1-.3 0-.4.1-.4 0-.8.1-.3.1-.5.4-.2.2-.2.6 0 .3.2.5.2.3.5.4t.7.1m4.7-8h1v8.8h-1zm2.9 0h1v8.8h-1zm5.7 8.9q-1 0-1.7-.4t-1-1.2q-.4-.7-.4-1.8 0-1 .3-1.7.4-.8 1.1-1.2.6-.5 1.5-.5.6 0 1.1.2t.9.6q.4.3.6 1 .3.6.3 1.5v.4h-4.7q0 .7.2 1.1.3.5.7.8.5.3 1.1.3.3 0 .7-.1.3-.2.5-.4t.4-.5l1 .2q-.2.5-.5.9-.4.4-.9.6-.6.2-1.2.2m-2-3.9h3.6q0-.5-.2-.9-.2-.5-.6-.7-.4-.3-1-.3t-1 .3-.6.7-.2.9m7.4-2.8h1.4v.9h-1.4v4q0 .4.2.6t.6.2h.3q.1 0 .2-.1l.3.9q-.2.1-.4.1h-.4q-.9 0-1.4-.4-.4-.4-.4-1.3v-4h-1v-.9h1v-1.5h1zm7.3 6.6h-1.1v-8.8h1.6l2.2 5.5q0 .2.1.5t.2.7l.2.6q.1.1.1.2 0-.1.1-.1.1-.4.2-.7.1-.4.2-.7t.1-.5l2.2-5.5h1.6v8.8h-1.1v-7.6q-.1.3-.2.5l-.2.8q-.2.4-.3.7-.1.4-.2.6l-1.9 5h-1l-2-5q-.1-.2-.2-.5-.1-.4-.2-.7-.1-.4-.3-.8l-.2-.6q.1.2.1.4zm12.4.1q-1 0-1.6-.4-.7-.4-1.1-1.2-.4-.7-.4-1.8 0-1 .4-1.7.3-.8 1-1.2.7-.5 1.6-.5.5 0 1 .2t.9.6q.4.3.7 1 .2.6.2 1.5v.4h-4.7q0 .7.2 1.1.3.5.7.8.5.3 1.1.3.4 0 .7-.1.3-.2.5-.4.3-.2.4-.5l1 .2q-.1.5-.5.9t-.9.6-1.2.2m-2-3.9h3.6q0-.5-.1-.9-.2-.5-.6-.7-.4-.3-1-.3t-1 .3q-.5.3-.7.7t-.2.9m7.5-2.8h1.3v.9h-1.3v4q0 .4.1.6.2.2.6.2h.3q.1 0 .3-.1l.2.9q-.2.1-.4.1h-.4q-.8 0-1.3-.4t-.5-1.3v-4h-1v-.9h1v-1.5h1.1zm4.5 6.7q-.6 0-1.1-.2-.5-.3-.8-.7-.3-.5-.3-1.1t.2-.9q.2-.4.6-.6t.8-.3q.5-.1.9-.1.6-.1 1-.1.3-.1.5-.2t.2-.3v-.1q0-.4-.2-.7-.1-.2-.4-.4-.3-.1-.8-.1-.4 0-.8.1-.3.2-.5.4t-.3.4l-1.1-.3q.3-.6.7-.9.5-.4 1-.5.5-.2 1-.2.3 0 .7.1.5.1.8.3.4.3.7.7.2.5.2 1.2v4.4h-1v-.9h-.1q-.1.2-.3.4-.3.3-.7.5-.3.1-.9.1m.2-.9q.6 0 1-.2.4-.3.6-.6.2-.4.2-.8v-.9q-.1.1-.3.1-.2.1-.5.1-.3.1-.5.1-.3 0-.4.1-.4 0-.7.1-.4.1-.6.4-.2.2-.2.6 0 .3.2.5.2.3.5.4t.7.1m7.2.9q-.9 0-1.5-.4t-1-1.2q-.3-.7-.3-1.8 0-1 .3-1.8.4-.7 1-1.2.6-.4 1.5-.4.6 0 1 .2l.5.5q.3.3.4.5v-3.3h1.1v8.8h-1v-1h-.1l-.4.4q-.2.3-.5.5-.4.2-1 .2m.1-.9q.6 0 1-.4.4-.3.6-.8.3-.6.3-1.3t-.3-1.3q-.2-.5-.6-.8t-1-.3-1 .3-.6.9q-.2.5-.2 1.2t.2 1.2q.2.6.6.9.4.4 1 .4m6.6.9q-.6 0-1.1-.2-.6-.3-.9-.7-.3-.5-.3-1.1t.3-.9q.2-.4.6-.6.3-.2.8-.3.4-.1.9-.1.6-.1 1-.1.3-.1.5-.2t.2-.3v-.1q0-.4-.2-.7-.1-.2-.4-.4-.3-.1-.8-.1t-.8.1q-.3.2-.5.4l-.4.4-1-.3q.3-.6.7-.9.4-.4 1-.5.5-.2 1-.2.3 0 .7.1t.8.3q.4.3.7.7.2.5.2 1.2v4.4h-1v-.9h-.1q-.1.2-.3.4-.3.3-.7.5-.4.1-.9.1m.2-.9q.5 0 1-.2.4-.3.6-.6.2-.4.2-.8v-.9q-.1.1-.3.1-.2.1-.5.1-.3.1-.5.1-.3 0-.5.1-.3 0-.7.1-.3.1-.5.4-.2.2-.2.6 0 .3.2.5.2.3.5.4t.7.1m5.9-5.8h1.4v.9h-1.4v4q0 .4.2.6t.6.2h.2q.2 0 .3-.1l.2.9q-.1.1-.3.1h-.4q-.9 0-1.4-.4-.4-.4-.4-1.3v-4h-1v-.9h1v-1.5h1zm4.5 6.7q-.6 0-1.1-.2-.5-.3-.8-.7-.3-.5-.3-1.1t.2-.9q.3-.4.6-.6.4-.2.9-.3.4-.1.9-.1.5-.1.9-.1.4-.1.6-.2.1-.1.1-.3v-.1q0-.4-.1-.7-.2-.2-.5-.4-.3-.1-.7-.1-.5 0-.8.1-.4.2-.6.4t-.3.4l-1-.3q.3-.6.7-.9.4-.4.9-.5.5-.2 1-.2.4 0 .8.1t.8.3q.4.3.6.7.3.5.3 1.2v4.4h-1v-.9h-.1q-.1.2-.4.4-.2.3-.6.5-.4.1-1 .1m.2-.9q.6 0 1-.2.4-.3.6-.6.2-.4.2-.8v-.9q0 .1-.2.1-.3.1-.5.1-.3.1-.6.1-.2 0-.4.1-.4 0-.7.1t-.5.4q-.2.2-.2.6 0 .3.1.5.2.3.5.4t.7.1"/><defs><clipPath id="x"><path d="M430 467h148a8 8 0 0 1 8 8v18a8 8 0 0 1-8 8H430a8 8 0 0 1-8-8v-18a8 8 0 0 1 8-8"/></clipPath></defs><path fill="#f8fafc" d="M430 467h148a8 8 0 0 1 8 8v18a8 8 0 0 1-8 8H430a8 8 0 0 1-8-8v-18a8 8 0 0 1 8-8"/><path fill="none" stroke="#e2e8f0" stroke-width="2" d="M424.343 469.343A8 8 0 0 1 430 467h148a8 8 0 0 1 8 8v18a8 8 0 0 1-8 8H430a8 8 0 0 1-8-8v-18a8 8 0 0 1 2.343-5.657" clip-path="url(#x)"/><path fill="#8b5cf6" d="M438 481a3 3 0 0 1 3 3 3 3 0 0 1-3 3 3 3 0 0 1-3-3 3 3 0 0 1 3-3"/><path fill="#64748b" d="M455.2 488.4h-5.1v-8.8h1.1v7.8h4zm3.3.1q-.6 0-1.1-.2-.5-.3-.8-.7-.3-.5-.3-1.1t.2-.9q.3-.4.6-.6.4-.2.9-.3.4-.1.9-.1.5-.1.9-.1.4-.1.6-.2.1-.1.1-.3v-.1q0-.4-.1-.7-.2-.2-.5-.4-.3-.1-.7-.1-.5 0-.8.1-.4.2-.6.4t-.3.4l-1-.3q.3-.6.7-.9.4-.4.9-.5.5-.2 1-.2.4 0 .8.1t.8.3q.4.3.6.7.3.5.3 1.2v4.4h-1v-.9h-.1q-.1.2-.4.4-.2.3-.6.5-.4.1-1 .1m.2-.9q.6 0 1-.2.4-.3.6-.6.2-.4.2-.8v-.9q0 .1-.2.1-.3.1-.5.1-.3.1-.6.1-.2 0-.4.1-.4 0-.7.1t-.5.4q-.2.2-.2.6 0 .3.1.5.2.3.5.4t.7.1m7.8.9q-.6 0-1-.2t-.6-.5-.3-.4h-.1v1h-1.1v-8.8h1.1v3.3h.1q.1-.2.3-.5.2-.2.6-.5.3-.2 1-.2.8 0 1.4.4.7.5 1 1.2.4.8.4 1.8 0 1.1-.4 1.8-.3.8-1 1.2-.6.4-1.4.4m-.2-.9q.6 0 1.1-.4.4-.3.6-.9.2-.5.2-1.2t-.2-1.2q-.2-.6-.6-.9t-1.1-.3q-.6 0-1 .3t-.6.8q-.2.6-.2 1.3t.2 1.3q.2.5.6.8.4.4 1 .4m7.3.9q-1 0-1.7-.4t-1-1.2q-.4-.7-.4-1.8 0-1 .3-1.7.4-.8 1.1-1.2.6-.5 1.5-.5.5 0 1.1.2.5.2.9.6.4.3.6 1 .3.6.3 1.5v.4h-4.8q.1.7.3 1.1.3.5.7.8.5.3 1.1.3.3 0 .7-.1.3-.2.5-.4t.4-.5l1 .2q-.2.5-.5.9-.4.4-.9.6-.6.2-1.2.2m-2-3.9h3.6q0-.5-.2-.9-.2-.5-.6-.7-.4-.3-1-.3t-1 .3-.6.7-.2.9m6.2-5h1v8.8h-1zm5.1 8.9q-.6 0-1.2-.2-.5-.2-.8-.6-.4-.4-.5-.9l1-.3q.1.6.5.8.4.3 1 .3.7 0 1.1-.3t.4-.7q0-.3-.2-.6-.3-.2-.7-.3l-1.1-.3q-.9-.2-1.4-.6-.4-.5-.4-1.2 0-.5.3-1 .3-.4.9-.6.5-.3 1.2-.3t1.2.2q.4.2.7.6.3.3.5.8l-1 .3q-.1-.4-.4-.7t-1-.3q-.5 0-.9.3t-.4.7q0 .3.2.6.3.2.9.3l1 .3q.9.2 1.3.6t.4 1.1q0 .6-.3 1-.3.5-.9.7-.6.3-1.4.3m9.7-9.3h.9l-2.8 10.5h-.9zm6.8 9.2h-1.2v-8.8h1.3l3.6 5.6.3.6q.2.3.5.7.1.3.2.5v-7.4h1.1v8.8h-1.4l-3.1-5q-.2-.3-.5-.7-.2-.4-.5-.9-.2-.3-.4-.8v1.7q.1.5.1.7zm10.4.1q-.9 0-1.5-.4-.7-.4-1.1-1.2t-.4-1.8.4-1.8q.4-.7 1.1-1.1.6-.5 1.5-.5t1.6.5q.7.4 1 1.1.4.8.4 1.8t-.4 1.8q-.3.8-1 1.2t-1.6.4m0-.9q.7 0 1.1-.4.4-.3.6-.9.2-.5.2-1.2 0-.6-.2-1.2-.2-.5-.6-.9-.4-.3-1.1-.3-.6 0-1.1.3-.4.4-.6.9-.2.6-.2 1.2 0 .7.2 1.2.2.6.6.9.5.4 1.1.4m5.8-5.8h1.3v.9h-1.3v4q0 .4.2.6.1.2.5.2h.3q.2 0 .3-.1l.2.9q-.2.1-.4.1h-.4q-.8 0-1.3-.4t-.5-1.3v-4h-1v-.9h1v-1.5h1.1zm5.4 6.7q-.9 0-1.6-.4t-1.1-1.2q-.3-.7-.3-1.8 0-1 .3-1.7.4-.8 1-1.2.7-.5 1.6-.5.5 0 1 .2t.9.6q.5.3.7 1 .3.6.3 1.5v.4H519q0 .7.3 1.1.2.5.7.8.4.3 1 .3.4 0 .7-.1l.6-.4q.2-.2.3-.5l1 .2q-.1.5-.5.9-.3.4-.9.6-.5.2-1.2.2m-2-3.9h3.7q-.1-.5-.2-.9-.2-.5-.6-.7-.4-.3-1-.3t-1 .3-.7.7q-.1.4-.2.9m8.5 3.9q-.7 0-1.2-.2t-.9-.6q-.3-.4-.4-.9l1-.3q.1.6.5.8.4.3 1 .3.7 0 1.1-.3t.4-.7q0-.3-.3-.6-.2-.2-.7-.3l-1.1-.3q-.9-.2-1.3-.6-.4-.5-.4-1.2 0-.5.3-1 .3-.4.9-.6.5-.3 1.2-.3t1.1.2q.5.2.8.6.3.3.5.8l-1 .3q-.1-.4-.5-.7-.3-.3-.9-.3t-1 .3-.4.7q0 .3.3.6.3.2.8.3l1 .3q.9.2 1.3.6.5.4.5 1.1 0 .6-.3 1-.4.5-1 .7-.5.3-1.3.3"/><defs><clipPath id="y"><path d="M150 525h429a8 8 0 0 1 8 8v32a8 8 0 0 1-8 8H150a8 8 0 0 1-8-8v-32a8 8 0 0 1 8-8"/></clipPath></defs><path fill="rgba(100, 116, 139, 0.08)" d="M150 525h429a8 8 0 0 1 8 8v32a8 8 0 0 1-8 8H150a8 8 0 0 1-8-8v-32a8 8 0 0 1 8-8"/><path fill="none" stroke="#cbd5e1" stroke-width="2" d="M144.343 527.343A8 8 0 0 1 150 525h429a8 8 0 0 1 8 8v32a8 8 0 0 1-8 8H150a8 8 0 0 1-8-8v-32a8 8 0 0 1 2.343-5.657" clip-path="url(#y)"/><path fill="#64748b" d="M162.2 541.2h-.8l.4-1.7-1.6.9-.2-.7 1.6-.8-1.4-.8.5-.7 1.3 1 .2-1.7h.8l-.4 1.7 1.6-1 .3.7-1.7.8 1.4.8-.5.7-1.3-.9zm9.2 3.6q-.9 0-1.6-.4t-1.1-1.1q-.3-.8-.3-1.8 0-.9.2-1.8.3-.9.9-1.6t1.3-1.1q.8-.5 1.8-.5.9 0 1.6.4t1 1.1q.4.8.4 1.8 0 .9-.3 1.8t-.9 1.6q-.5.7-1.3 1.1-.8.5-1.7.5m0-1q.7 0 1.3-.3.6-.4 1.1-.9.4-.6.6-1.3.2-.8.2-1.5 0-.8-.3-1.3-.2-.5-.7-.7-.4-.3-1-.3-.8 0-1.4.3-.6.4-1 1-.4.5-.6 1.3-.3.7-.3 1.4 0 .8.3 1.3t.7.8q.5.2 1.1.2m6.5-2.7-.6 3.6h-.9l1-6h.9l-.2 1q.4-.5.8-.8.5-.3 1.2-.3.6 0 1 .2.5.3.6.8.2.5.1 1.3l-.6 3.8h-1l.6-3.8q.2-.7-.1-1.1t-.9-.4q-.5 0-.9.2-.3.2-.6.6t-.4.9m6.3-4.4h1l-1.4 8h-.9zm.9 10.1.4-.8h.1q.3.1.5.1.3-.1.5-.3t.4-.6l.3-.5-1.3-6h1l.7 3.5q.1.6.1 1.1.1.2.1.5.1-.3.2-.5.2-.5.5-1.1l1.9-3.5h1.1l-3.8 6.9q-.3.4-.6.7t-.6.5q-.4.1-.8.1h-.5q-.1 0-.2-.1m10.7-2.1h-1l1-6h.9l-.1 1q.1-.3.4-.5.3-.4.7-.5.3-.2.7-.2.5 0 .8.2t.4.6q.1.2.2.5.1-.3.4-.6t.7-.5q.5-.2.9-.2.6 0 1 .3.4.2.5.7.2.4.1 1.1l-.7 4.1h-.9l.7-4.1q0-.4-.1-.7t-.4-.4q-.2-.1-.5-.1-.4 0-.8.2-.3.2-.5.5t-.3.7l-.6 3.9h-1l.7-4.2q.1-.5-.2-.8t-.8-.3q-.3 0-.7.2-.3.2-.6.5-.2.3-.3.8zm10.9.1q-.8 0-1.3-.4t-.7-1.1 0-1.6q.1-1 .6-1.7.4-.7 1-1 .7-.4 1.4-.4.6 0 .9.2t.5.4l.2.4h.1l.1-.9h1l-1 6h-.9l.1-1h-.1q-.1.2-.4.5-.2.2-.6.4t-.9.2m.3-.9q.5 0 .9-.3.5-.3.8-.8.2-.5.3-1.1.1-.7 0-1.2t-.4-.8-.9-.3-1 .3-.7.8-.4 1.2q-.1.6 0 1.1.2.5.5.8t.9.3m6.3.9q-.6 0-1.1-.2-.4-.2-.7-.5t-.3-.8v-.1l.9-.2q.1.5.4.7t.8.2q.4 0 .8-.1.3-.1.5-.4.2-.2.3-.4 0-.3-.1-.5-.2-.2-.6-.3l-1-.2q-.8-.2-1.1-.7-.4-.4-.3-1 .1-.5.5-.9.3-.4.8-.6.6-.2 1.2-.2.8 0 1.3.3.5.4.6.9v.3l-.8.1q-.1-.3-.3-.6-.3-.2-.8-.2-.4 0-.7.1t-.5.4q-.3.2-.3.4-.1.3.1.5t.8.3l.8.2q.8.2 1.1.7.4.4.3 1-.1.4-.3.7-.2.4-.6.6-.3.2-.8.4-.4.1-.9.1m5.8-6.1h1.3l-.2.8H219l-.6 3.6q-.1.4.1.6.1.2.5.2h.2q.2-.1.3-.1v.8q-.1.1-.3.1h-.4q-.8 0-1.1-.4-.4-.4-.3-1.1l.6-3.7h-.9l.2-.8h.9l.2-1.5h1zm4 6.1q-.7 0-1.2-.3-.6-.3-.9-.8-.2-.6-.2-1.3 0-.8.2-1.5.3-.7.7-1.2.5-.6 1.1-.9t1.2-.3 1 .2q.5.2.7.6.3.4.3.9t-.3.8q-.3.4-.8.6-.6.2-1.4.3t-1.8.1v.4q0 .4.1.8.2.3.5.5t.9.2 1-.2q.5-.3.7-.7l.9.3q-.3.7-1.1 1.1-.7.4-1.6.4m-1.3-3.5h1.4q.7-.1 1.1-.2.3-.2.5-.4t.2-.6q0-.3-.3-.5t-.8-.2q-.6 0-1 .3t-.7.7q-.2.4-.4.9m6.1 3.4h-1l1-6h1l-.2.9h.1q.2-.5.7-.8.5-.2 1-.2h.5l-.2 1q0-.1-.2-.1h-.3q-.5 0-.8.2-.4.2-.7.5-.2.3-.3.7zm7.2 0h-.9l1.3-8h1l-.8 4.6h.1l3-2.6h1.2l-2.9 2.5 2.1 3.5H238l-1.8-2.9-.7.6zm7.6.1q-.7 0-1.2-.3-.6-.3-.8-.8-.3-.6-.3-1.3 0-.8.2-1.5.3-.7.7-1.2.5-.6 1.1-.9t1.3-.3q.5 0 1 .2.4.2.6.6.3.4.3.9t-.3.8q-.3.4-.8.6-.6.2-1.4.3t-1.8.1v.4q0 .4.2.8.1.3.4.5.4.2.9.2.6 0 1-.2.5-.3.7-.7l.9.3q-.3.7-1 1.1-.8.4-1.7.4m-1.2-3.5h1.3q.7-.1 1.1-.2.4-.2.5-.4.2-.2.2-.6 0-.3-.3-.5t-.7-.2q-.6 0-1.1.3-.4.3-.7.7-.2.4-.3.9m4.6 5.5.4-.8h.1q.3.1.5.1.3-.1.5-.3t.4-.6l.3-.5-1.3-6h1l.7 3.5q.1.6.2 1.1v.5q.1-.3.2-.5.2-.5.5-1.1l1.9-3.5h1.1l-3.8 6.9q-.2.4-.6.7-.3.3-.6.5-.4.1-.8.1h-.4q-.2 0-.3-.1m10.7-2.1h-1l1-6h1zm.7-7q-.3 0-.5-.2-.1-.2-.1-.5.1-.2.3-.4t.5-.2.4.2q.2.2.2.4-.1.3-.3.5t-.5.2m3.1 7.1q-.6 0-1.1-.2-.4-.2-.7-.5t-.3-.8v-.1l.9-.2q.1.5.4.7t.8.2q.4 0 .8-.1.3-.1.5-.4.2-.2.3-.4 0-.3-.1-.5-.2-.2-.6-.3l-1-.2q-.8-.2-1.1-.7-.4-.4-.3-1 .1-.5.5-.9.3-.4.8-.6.6-.2 1.2-.2.8 0 1.3.3.5.4.6.9v.3l-.8.1q-.1-.3-.3-.6-.3-.2-.8-.2-.4 0-.7.1t-.5.4q-.3.2-.3.4 0 .3.2.5.1.2.7.3l.8.2q.8.2 1.1.7.4.4.3 1-.1.4-.3.7-.2.4-.6.6-.3.2-.8.4-.4.1-.9.1m8.9 0q-.6 0-1.1-.2-.4-.2-.7-.5t-.3-.8v-.1l.9-.2q.1.5.4.7t.8.2q.4 0 .8-.1.3-.1.5-.4.2-.2.3-.4 0-.3-.2-.5-.1-.2-.5-.3l-1-.2q-.8-.2-1.1-.7-.4-.4-.3-1 .1-.5.5-.9.3-.4.8-.6.6-.2 1.2-.2.8 0 1.3.3.4.4.6.9v.3l-.8.1q-.1-.3-.3-.6-.3-.2-.8-.2-.4 0-.7.1t-.6.4q-.2.2-.2.4-.1.3.1.5t.7.3l.9.2q.8.2 1.1.7.4.4.3 1-.1.4-.3.7-.2.4-.6.6-.3.2-.8.4-.4.1-.9.1m5.8-6.1h1.3l-.2.8h-1.2l-.6 3.6q-.1.4.1.6.1.2.5.2h.2q.2-.1.3-.1v.8q-.1.1-.3.1h-.4q-.8 0-1.1-.4-.4-.4-.3-1.1l.6-3.7h-.9l.2-.8h.9l.2-1.5h1zm4 6.1q-.7 0-1.3-.3-.5-.3-.8-.9-.2-.5-.2-1.3 0-.7.2-1.4.2-.6.6-1.2.4-.5 1-.8t1.4-.3q.7 0 1.3.3.5.3.8.8.2.6.2 1.3 0 .8-.2 1.4-.2.7-.6 1.2-.5.6-1.1.9t-1.3.3m0-.9q.6 0 1-.2.4-.3.7-.7t.4-.9q.2-.5.2-1t-.2-.9q-.1-.3-.4-.5-.3-.3-.8-.3-.6 0-1 .3t-.7.7-.4.9q-.2.5-.2 1 0 .7.4 1.2.3.4 1 .4m5.1.8h-1l1-6h.9l-.1.9h.1q.2-.5.7-.8.4-.2 1-.2h.5l-.2 1q-.1-.1-.2-.1h-.4q-.4 0-.8.2-.3.2-.6.5-.2.3-.3.7zm5.7.1q-.8 0-1.3-.3t-.8-.8q-.3-.6-.3-1.3 0-.8.3-1.5.2-.7.7-1.2.4-.6 1-.9t1.3-.3q.6 0 1 .2t.7.6q.2.4.2.9t-.3.8q-.2.4-.8.6-.5.2-1.4.3-.7.1-1.7.1-.1.2-.1.4 0 .4.2.8.1.3.5.5.3.2.8.2.6 0 1.1-.2.4-.3.6-.7l.9.3q-.3.7-1 1.1t-1.6.4m-1.3-3.5h1.4q.6-.1 1-.2.4-.2.6-.4.1-.2.1-.6 0-.3-.3-.5-.2-.2-.7-.2-.6 0-1 .3-.5.3-.7.7-.3.4-.4.9m7.4 3.5q-1 0-1.6-.7-.6-.6-.6-1.7 0-.7.2-1.4.3-.7.6-1.2.4-.6 1-.9t1.3-.3q.6 0 .9.2t.5.4q.1.3.2.4h.1l.5-2.9h1l-1.4 8h-.9l.1-1h-.1q-.1.2-.3.5-.2.2-.6.4t-.9.2m.1-.9q.6 0 1-.2.4-.3.7-.7.3-.5.4-1t.1-1q0-.7-.3-1.1-.3-.5-1-.5-.5 0-.9.3t-.7.7-.4.9q-.2.5-.2 1 0 .7.3 1.2.4.4 1 .4m4.6 2.7h-.7l.9-3.1h1.1zm8.3-1.8q-1 0-1.6-.7-.6-.6-.6-1.7 0-.7.2-1.4.3-.7.6-1.2.4-.6 1-.9t1.3-.3q.6 0 .9.2t.5.4q.1.3.2.4h.1l.5-2.9h1l-1.4 8h-.9l.1-1h-.1q-.1.2-.3.5-.2.2-.6.4t-.9.2m.1-.9q.6 0 1-.2.4-.3.7-.7.3-.5.4-1t.1-1q0-.7-.3-1.1-.3-.5-1-.5-.5 0-.9.3t-.7.7-.4.9q-.2.5-.2 1 0 .7.3 1.2.4.4 1 .4m6.8.9q-.7 0-1.2-.3-.6-.3-.8-.8-.3-.6-.3-1.3 0-.8.2-1.5.3-.7.7-1.2.5-.6 1.1-.9t1.3-.3q.5 0 1 .2.4.2.6.6.3.4.3.9t-.3.8q-.3.4-.8.6t-1.4.3q-.8.1-1.8.1v.4q0 .4.2.8.1.3.4.5.4.2.9.2.6 0 1-.2.5-.3.7-.7l.9.3q-.3.7-1 1.1-.8.4-1.7.4m-1.2-3.5h1.3q.7-.1 1.1-.2.4-.2.5-.4.2-.2.2-.6 0-.3-.3-.5t-.7-.2q-.6 0-1.1.3-.4.3-.7.7-.2.4-.3.9m6 3.4h-.9l1-6h.9l-.2.9h.1q.2-.5.7-.8.5-.2 1-.2h.5l-.2 1q0-.1-.2-.1h-.3q-.4 0-.8.2t-.6.5q-.3.3-.3.7zm4.2 0h-1l1-6h1zm.7-7q-.3 0-.5-.2t-.1-.5q0-.2.3-.4.2-.2.5-.2.2 0 .4.2t.1.4q0 .3-.2.5-.3.2-.5.2m3.7 7h-1l-1.3-6h1l.7 3.5q.1.6.2 1.1v.5q.1-.3.2-.5.2-.5.5-1.1l1.9-3.5h1.1zm6 .1q-.8 0-1.3-.3t-.8-.8q-.3-.6-.3-1.3 0-.8.3-1.5.2-.7.7-1.2.4-.6 1-.9t1.3-.3q.6 0 1 .2t.7.6q.2.4.2.9t-.3.8q-.2.4-.8.6-.5.2-1.4.3-.7.1-1.7.1-.1.2-.1.4 0 .4.2.8.1.3.5.5.3.2.8.2.6 0 1.1-.2.4-.3.6-.7l.9.3q-.3.7-1 1.1t-1.6.4m-1.3-3.5h1.4q.6-.1 1-.2.4-.2.6-.4.1-.2.1-.6 0-.3-.3-.5-.2-.2-.7-.2-.6 0-1 .3-.5.3-.7.7-.3.4-.4.9m7.4 3.5q-1 0-1.6-.7-.6-.6-.6-1.7 0-.7.2-1.4.3-.7.7-1.2.3-.6.9-.9t1.3-.3q.6 0 .9.2t.5.4q.2.3.2.4h.1l.5-2.9h1l-1.4 8h-.9l.2-1h-.2q-.1.2-.3.5-.2.2-.6.4t-.9.2m.2-.9q.5 0 .9-.2.4-.3.7-.7.3-.5.4-1t.1-1q0-.7-.3-1.1-.3-.5-1-.5-.5 0-.9.3t-.7.7-.4.9q-.2.5-.2 1 0 .7.3 1.2.4.4 1.1.4m8.3.8h-1l1.3-8h1l-.8 4.6h.2l3-2.6h1.2l-3 2.5 2.2 3.5h-1.3l-1.7-2.9-.7.6zm7.6.1q-.8 0-1.3-.3t-.8-.8q-.3-.6-.3-1.3 0-.8.3-1.5.2-.7.7-1.2.4-.6 1-.9t1.3-.3q.6 0 1 .2t.7.6q.2.4.2.9t-.3.8q-.2.4-.8.6-.5.2-1.4.3-.7.1-1.7.1-.1.2-.1.4 0 .4.2.8.1.3.5.5.3.2.8.2.6 0 1.1-.2.4-.3.6-.7l.9.3q-.3.7-1 1.1t-1.6.4m-1.3-3.5h1.4q.6-.1 1-.2.4-.2.6-.4.1-.2.1-.6 0-.3-.2-.5-.3-.2-.8-.2-.6 0-1 .3-.5.3-.7.7-.3.4-.4.9m4.6 5.5.4-.8h.1q.3.1.6.1.2-.1.4-.3.3-.2.5-.6l.2-.5-1.3-6h1l.7 3.5q.1.6.2 1.1v.5q.1-.3.2-.5.3-.5.6-1.1l1.8-3.5h1.1l-3.7 6.9q-.3.4-.6.7t-.7.5q-.3.1-.8.1h-.4q-.2 0-.3-.1m8.8-2q-.7 0-1.1-.2t-.7-.5-.3-.8v-.1l.9-.2q0 .5.3.7t.9.2q.4 0 .7-.1.4-.1.6-.4.2-.2.3-.4 0-.3-.2-.5-.1-.2-.6-.3l-.9-.2q-.8-.2-1.1-.7-.4-.4-.3-1 .1-.5.4-.9.4-.4.9-.6t1.2-.2q.8 0 1.3.3.4.4.6.9v.3l-.9.1q0-.3-.3-.6-.2-.2-.8-.2-.3 0-.6.1-.4.1-.6.4-.2.2-.2.4-.1.3.1.5t.7.3l.9.2q.8.2 1.1.7.4.4.3 1-.1.4-.3.7-.2.4-.6.6-.3.2-.8.4-.4.1-.9.1m9.3 0q-.8 0-1.3-.3t-.8-.9q-.3-.5-.3-1.3 0-.7.3-1.4.2-.6.6-1.2.4-.5 1-.8t1.4-.3q.4 0 .8.1t.7.3q.2.2.4.6.2.3.3.7l-1 .2q0-.3-.1-.4-.1-.2-.3-.4-.1-.1-.3-.2-.3-.1-.6-.1-.5 0-.9.3t-.7.7-.5.9q-.1.5-.1 1t.1.8q.2.4.5.6t.8.2q.3 0 .6-.1.2-.1.5-.2l.4-.4.2-.4.9.3q-.1.4-.4.7t-.7.5q-.3.3-.7.4t-.8.1m6.2 0q-.7 0-1.2-.3t-.8-.9q-.3-.5-.3-1.3 0-.7.2-1.4.3-.6.7-1.2.4-.5 1-.8t1.4-.3q.7 0 1.2.3t.8.8q.3.6.3 1.3 0 .8-.2 1.4-.3.7-.7 1.2-.4.6-1 .9t-1.4.3m.1-.9q.5 0 .9-.2.5-.3.8-.7.2-.4.4-.9.1-.5.1-1t-.1-.9q-.2-.3-.5-.5-.3-.3-.8-.3t-.9.3q-.5.3-.7.7-.3.4-.5.9-.1.5-.1 1 0 .7.3 1.2.3.4 1.1.4m5 .8h-.9l1-6h.9l-.2 1q.2-.3.4-.5.3-.4.7-.5.4-.2.7-.2.5 0 .8.2t.5.6q.1.2.1.5l.4-.6q.4-.3.8-.5t.9-.2.9.3q.4.2.6.7.2.4.1 1.1l-.7 4.1h-1l.7-4.1q.1-.4 0-.7-.2-.3-.4-.4t-.5-.1q-.5 0-.8.2-.4.2-.6.5t-.2.7l-.7 3.9h-1l.7-4.2q.1-.5-.2-.8-.2-.3-.7-.3-.4 0-.7.2-.4.2-.6.5-.3.3-.3.8zm9.3 2.2h-1l1.4-8.2h.9l-.1.9q.1-.2.4-.4.2-.3.6-.4.4-.2.9-.2.7 0 1.2.3t.7.8q.3.5.3 1.3 0 .7-.2 1.4-.2.6-.6 1.2-.4.5-1 .9-.6.3-1.3.3-.6 0-.9-.2t-.5-.5l-.2-.4h-.1zm2.1-3q.5 0 .9-.2.5-.3.7-.7.3-.5.5-1 .1-.5.1-1 0-.7-.3-1.1-.3-.5-1-.5-.6 0-1 .3t-.7.7q-.2.4-.4.9-.1.5-.1 1.1 0 .7.3 1.1t1 .4m6.1.8q-.6 0-1-.2-.5-.3-.6-.8-.2-.5-.1-1.2l.6-3.8h1l-.6 3.7q-.1.7.2 1.1t.9.4q.4 0 .8-.2t.6-.6q.3-.3.4-.8l.6-3.6h.9l-.9 6h-1l.2-1.2q-.3.6-.8.9-.6.3-1.2.3m6.6-6h1.2l-.1.8h-1.3l-.6 3.6q0 .4.1.6.2.2.5.2h.3q.1-.1.2-.1l.1.8q-.2.1-.3.1h-.4q-.8 0-1.2-.4t-.2-1.1l.6-3.7h-.9l.1-.8h.9l.3-1.5h.9zm4 6.1q-.8 0-1.3-.3t-.8-.8q-.3-.6-.3-1.3 0-.8.3-1.5.2-.7.7-1.2.4-.6 1-.9t1.3-.3q.6 0 1 .2t.7.6q.2.4.2.9t-.3.8q-.2.4-.8.6-.5.2-1.4.3-.7.1-1.7.1-.1.2-.1.4 0 .4.2.8.1.3.5.5.3.2.8.2.6 0 1.1-.2.4-.3.6-.7l.9.3q-.3.7-1 1.1t-1.6.4m-1.3-3.5h1.4q.6-.1 1-.2.4-.2.6-.4.1-.2.1-.6 0-.3-.3-.5-.2-.2-.7-.2-.6 0-1 .3-.5.3-.7.7-.3.4-.4.9m7.4 3.5q-1 0-1.6-.7-.6-.6-.6-1.7 0-.7.3-1.4.2-.7.6-1.2.3-.6.9-.9t1.3-.3q.6 0 .9.2t.5.4q.2.3.2.4h.1l.5-2.9h1l-1.4 8h-.9l.2-1h-.1q-.2.2-.4.5-.2.2-.6.4t-.9.2m.2-.9q.5 0 .9-.2.4-.3.7-.7.3-.5.4-1t.1-1q0-.7-.3-1.1-.3-.5-1-.5-.5 0-.9.3t-.7.7-.4.9q-.2.5-.2 1 0 .7.3 1.2.4.4 1.1.4m9.8.9q-.7 0-1.2-.3-.6-.3-.8-.9-.3-.5-.3-1.3 0-.7.2-1.4.2-.6.6-1.2.5-.5 1.1-.8t1.3-.3 1.3.3q.5.3.8.8.3.6.3 1.3 0 .8-.3 1.4-.2.7-.6 1.2-.4.6-1 .9t-1.4.3m0-.9q.6 0 1-.2.4-.3.7-.7t.4-.9q.2-.5.2-1t-.2-.9q-.1-.3-.4-.5-.3-.3-.8-.3-.6 0-1 .3t-.7.7-.4.9q-.2.5-.2 1 0 .7.4 1.2.3.4 1 .4m5.7-2.8-.6 3.6h-1l1-6h1l-.2 1q.3-.5.7-.8.6-.3 1.2-.3.7 0 1.1.2.4.3.6.8t.1 1.3l-.7 3.8h-.9l.6-3.8q.1-.7-.2-1.1t-.9-.4q-.4 0-.8.2t-.7.6q-.2.4-.3.9m10.3 3.7q-1 0-1.5-.7-.6-.6-.6-1.7 0-.7.2-1.4t.6-1.2q.4-.6 1-.9.5-.3 1.2-.3.6 0 1 .2.3.2.4.4.2.3.3.4l.5-2.9h1l-1.3 8h-1l.2-1h-.1q-.1.2-.4.5-.2.2-.6.4-.3.2-.9.2m.2-.9q.5 0 .9-.2.4-.3.7-.7.3-.5.4-1 .2-.5.2-1 0-.7-.4-1.1-.3-.5-1-.5-.5 0-.9.3t-.7.7-.4.9-.1 1q0 .7.3 1.2.3.4 1 .4m6.8.9q-.8 0-1.3-.3t-.8-.8q-.3-.6-.3-1.3 0-.8.3-1.5.2-.7.7-1.2.4-.6 1-.9t1.3-.3q.6 0 1 .2t.7.6q.2.4.2.9t-.3.8q-.2.4-.8.6-.5.2-1.4.3-.7.1-1.7.1v.4q0 .4.1.8.1.3.5.5.3.2.8.2.6 0 1.1-.2.4-.3.7-.7l.8.3q-.3.7-1 1.1t-1.6.4m-1.3-3.5h1.4q.6-.1 1-.2.4-.2.6-.4.1-.2.1-.6 0-.3-.2-.5-.3-.2-.8-.2-.6 0-1 .3-.5.3-.7.7-.3.4-.4.9m6.1 3.4h-1l1-6h.9l-.1 1q.1-.3.4-.5.3-.4.6-.5.4-.2.8-.2t.7.2q.4.2.5.6.1.2.2.5.1-.3.4-.6t.7-.5.9-.2.9.3q.4.2.6.7.2.4.1 1.1l-.7 4.1h-.9l.6-4.1q.1-.4 0-.7t-.4-.4q-.2-.1-.5-.1-.4 0-.8.2-.3.2-.5.5t-.3.7l-.6 3.9h-1l.7-4.2q.1-.5-.2-.8t-.8-.3q-.3 0-.7.2-.3.2-.6.5-.2.3-.3.8zm10.9.1q-.8 0-1.3-.4t-.7-1.1-.1-1.6q.2-1 .6-1.7.5-.7 1.1-1 .7-.4 1.4-.4.6 0 .9.2t.5.4l.2.4h.1l.1-.9h1l-1 6h-1l.2-1h-.1q-.1.2-.4.5-.2.2-.6.4t-.9.2m.3-.9q.5 0 .9-.3.5-.3.7-.8.3-.5.4-1.1.1-.7 0-1.2t-.4-.8-.9-.3-1 .3-.7.8-.4 1.2q-.1.6 0 1.1t.5.8q.3.3.9.3m5.7-2.8-.5 3.6h-1l1-6h.9l-.2 1q.4-.5.8-.8.5-.3 1.2-.3.6 0 1.1.2.4.3.6.8.1.5 0 1.3l-.6 3.8h-1l.7-3.8q.1-.7-.2-1.1t-.9-.4q-.5 0-.8.2-.4.2-.7.6t-.4.9m7.3 3.7q-1 0-1.6-.7-.6-.6-.6-1.7 0-.7.3-1.4.2-.7.6-1.2.3-.6.9-.9t1.3-.3q.6 0 .9.2t.5.4q.2.3.2.4h.1l.5-2.9h1l-1.4 8h-.9l.2-1h-.1q-.2.2-.4.5-.2.2-.6.4t-.9.2m.2-.9q.5 0 .9-.2.4-.3.7-.7.3-.5.4-1t.1-1q0-.7-.3-1.1-.3-.5-1-.5-.5 0-.9.3t-.7.7-.4.9q-.2.5-.2 1 0 .7.3 1.2.4.4 1.1.4m-324.6 14.3h-.8l.4-1.7-1.6.9-.2-.7 1.6-.8-1.4-.8.5-.7 1.3 1 .2-1.7h.8l-.4 1.7 1.6-1 .3.7-1.7.8 1.4.8-.5.7-1.3-.9zm6.8 3.5h-.9l1.3-8h1.4l1.2 5q0 .2.1.5 0 .2.1.5 0 .4.1.7v.1q0-.1.1-.2.1-.3.3-.6l.2-.6q.2-.2.3-.4l2.7-5h1.5l-1.3 8h-1l.7-4.6q.1-.3.1-.6.1-.3.2-.7 0-.4.1-.7 0-.2.1-.4-.2.3-.3.5-.2.4-.3.8l-.4.6q-.1.3-.2.5l-2.6 4.6h-.9l-1-4.6q-.1-.3-.2-.7 0-.4-.1-.9-.1-.4-.2-.7v.3q-.1.4-.1.7-.1.4-.1.7-.1.3-.1.6zm11.1.1q-.7 0-1.2-.4t-.7-1.1q-.3-.7-.1-1.6.2-1 .6-1.7t1.1-1q.6-.4 1.4-.4.5 0 .9.2.3.2.4.4.2.2.2.4h.1l.2-.9h.9l-1 6h-.9l.2-1h-.2q-.1.2-.3.5l-.6.4q-.4.2-1 .2m.3-.9q.6 0 1-.3t.7-.8.4-1.1q.1-.7 0-1.2t-.5-.8q-.3-.3-.8-.3-.6 0-1 .3-.5.3-.7.8-.3.5-.4 1.2-.1.6 0 1.1t.4.8q.4.3.9.3m6.3.9q-.6 0-1-.2-.5-.2-.7-.5-.3-.3-.4-.8v-.1l1-.2q0 .5.3.7t.8.2.8-.1q.4-.1.6-.4.2-.2.2-.4.1-.3-.1-.5t-.6-.3l-1-.2q-.7-.2-1.1-.7-.3-.4-.2-1 .1-.5.4-.9.4-.4.9-.6t1.1-.2q.9 0 1.3.3.5.4.6.9l.1.1v.2l-.9.1q-.1-.3-.3-.6-.2-.2-.8-.2-.4 0-.7.1t-.5.4q-.2.2-.3.4 0 .3.2.5t.7.3l.9.2q.8.2 1.1.7.3.4.2 1 0 .4-.3.7-.2.4-.5.6l-.8.4q-.5.1-1 .1m5.9-6.1h1.2l-.1.8h-1.3l-.6 3.6q0 .4.1.6t.5.2h.3q.1-.1.2-.1l.1.8q-.2.1-.4.1h-.3q-.8 0-1.2-.4t-.2-1.1l.6-3.7h-.9l.1-.8h.9l.2-1.5h1zm4 6.1q-.8 0-1.3-.3t-.8-.8q-.3-.6-.3-1.3 0-.8.3-1.5.2-.7.7-1.2.4-.6 1-.9t1.3-.3q.6 0 1 .2t.7.6q.2.4.2.9t-.3.8q-.2.4-.8.6-.5.2-1.4.3-.7.1-1.7.1-.1.2-.1.4 0 .4.2.8.1.3.5.5.3.2.8.2.6 0 1.1-.2.4-.3.6-.7l.9.3q-.3.7-1 1.1t-1.6.4m-1.3-3.5h1.4q.6-.1 1-.2.4-.2.6-.4.1-.2.1-.6 0-.3-.3-.5-.2-.2-.7-.2-.6 0-1 .3-.5.3-.7.7-.3.4-.4.9m6.1 3.4h-1l1-6h.9l-.1.9q.3-.5.7-.8.5-.2 1.1-.2h.4l-.1 1q-.1-.1-.2-.1h-.4q-.4 0-.8.2t-.6.5q-.3.3-.3.7zm7.2 0h-1l1.4-8h.9l-.8 4.6h.2l3-2.6h1.2l-3 2.5 2.2 3.5h-1.3l-1.7-2.9-.7.6zm7.6.1q-.7 0-1.3-.3-.5-.3-.8-.8-.3-.6-.3-1.3 0-.8.3-1.5.2-.7.7-1.2.4-.6 1-.9t1.3-.3q.6 0 1 .2t.7.6q.2.4.2.9t-.2.8q-.3.4-.9.6-.5.2-1.4.3-.7.1-1.7.1v.4q0 .4.1.8.1.3.5.5.3.2.9.2.5 0 1-.2.4-.3.7-.7l.9.3q-.4.7-1.1 1.1t-1.6.4m-1.3-3.5h1.4q.6-.1 1-.2.4-.2.6-.4.1-.2.1-.6 0-.3-.2-.5-.3-.2-.8-.2-.6 0-1 .3-.5.3-.7.7-.3.4-.4.9m4.6 5.5.4-.8h.1q.3.1.6.1.2-.1.4-.3.3-.2.5-.6l.2-.5-1.3-6h1l.7 3.5q.2.6.2 1.1v.5q.1-.3.2-.5.3-.5.6-1.1l1.8-3.5h1.1l-3.7 6.9q-.3.4-.6.7t-.7.5q-.3.1-.8.1h-.4q-.2 0-.3-.1m11.8-2q-.6 0-1-.2t-.7-.5-.3-.8v-.1l.9-.2q0 .5.3.7t.9.2q.4 0 .7-.1.4-.1.6-.4.2-.2.3-.4 0-.3-.2-.5-.1-.2-.6-.3l-.9-.2q-.8-.2-1.2-.7-.3-.4-.2-1 .1-.5.4-.9.4-.4.9-.6t1.2-.2q.8 0 1.3.3.4.4.6.9v.3l-.9.1q0-.3-.3-.6-.2-.2-.8-.2-.3 0-.6.1-.4.1-.6.4-.2.2-.2.4-.1.3.1.5t.7.3l.9.2q.8.2 1.1.7.4.4.3 1-.1.4-.3.7-.3.4-.6.6t-.8.4q-.4.1-1 .1m5.9-6.1h1.2l-.1.8h-1.2l-.6 3.6q-.1.4 0 .6.2.2.6.2h.2q.1-.1.3-.1v.8q-.1.1-.3.1h-.4q-.8 0-1.2-.4-.3-.4-.2-1.1l.6-3.7h-.9l.1-.8h.9l.3-1.5h.9zm4 6.1q-.8 0-1.3-.3t-.8-.9q-.3-.5-.3-1.3 0-.7.3-1.4.2-.6.6-1.2.4-.5 1-.8t1.4-.3q.7 0 1.2.3.6.3.8.8.3.6.3 1.3 0 .8-.2 1.4-.2.7-.7 1.2-.4.6-1 .9t-1.3.3m0-.9q.5 0 1-.2.4-.3.7-.7t.4-.9.1-1-.1-.9q-.1-.3-.4-.5-.4-.3-.8-.3-.6 0-1 .3t-.7.7-.4.9q-.2.5-.2 1 0 .7.3 1.2.4.4 1.1.4m5.1.8h-1l1-6h.9l-.1.9q.3-.5.7-.8.5-.2 1.1-.2h.4l-.1 1q-.1-.1-.2-.1h-.4q-.4 0-.8.2t-.6.5-.3.7zm5.7.1q-.8 0-1.3-.3t-.8-.8q-.3-.6-.3-1.3 0-.8.2-1.5.3-.7.7-1.2.5-.6 1.1-.9t1.3-.3q.5 0 1 .2.4.2.6.6.3.4.3.9t-.3.8q-.2.4-.8.6-.5.2-1.4.3-.8.1-1.8.1v.4q0 .4.2.8.1.3.4.5.4.2.9.2.6 0 1-.2.5-.3.7-.7l.9.3q-.3.7-1 1.1-.8.4-1.6.4m-1.3-3.5h1.3q.7-.1 1.1-.2.4-.2.5-.4.2-.2.2-.6 0-.3-.3-.5t-.7-.2q-.6 0-1.1.3-.4.3-.7.7-.2.4-.3.9m7.4 3.5q-1 0-1.6-.7-.6-.6-.6-1.7 0-.7.2-1.4t.6-1.2q.4-.6 1-.9t1.3-.3q.6 0 .9.2t.5.4q.1.3.2.4h.1l.5-2.9h.9l-1.3 8h-.9l.1-1h-.1q-.1.2-.3.5-.2.2-.6.4t-.9.2m.1-.9q.6 0 1-.2.4-.3.7-.7l.4-1q.1-.5.1-1 0-.7-.3-1.1-.3-.5-1-.5-.5 0-1 .3-.4.3-.6.7-.3.4-.5.9-.1.5-.1 1 0 .7.3 1.2.3.4 1 .4m8.7-7.2h1l-1.3 8h-1zm3.9 8.1q-.8 0-1.3-.3t-.8-.9q-.3-.5-.3-1.3 0-.7.2-1.4.3-.6.7-1.2.4-.5 1-.8t1.4-.3q.7 0 1.2.3t.8.8q.3.6.3 1.3 0 .8-.2 1.4-.3.7-.7 1.2-.4.6-1 .9t-1.3.3m0-.9q.5 0 .9-.2.5-.3.8-.7.2-.4.4-.9.1-.5.1-1t-.1-.9q-.2-.3-.5-.5-.3-.3-.8-.3t-.9.3q-.5.3-.7.7-.3.4-.5.9-.1.5-.1 1 0 .7.3 1.2.3.4 1.1.4m6.6.9q-.8 0-1.3-.3t-.8-.9q-.3-.5-.3-1.3 0-.7.2-1.4.3-.6.7-1.2.4-.5 1-.8t1.4-.3q.4 0 .8.1t.7.3q.2.2.4.6.2.3.3.7l-1 .2q0-.3-.1-.4-.1-.2-.3-.4-.1-.1-.3-.2-.3-.1-.6-.1-.5 0-.9.3t-.7.7-.5.9q-.1.5-.1 1t.1.8q.2.4.5.6t.8.2q.3 0 .6-.1.2-.1.5-.2l.4-.4.2-.4.9.3q-.2.4-.4.7-.3.3-.7.5-.3.3-.7.4t-.8.1m6 0q-.8 0-1.3-.4t-.7-1.1 0-1.6q.1-1 .6-1.7.4-.7 1-1 .7-.4 1.4-.4.6 0 .9.2t.5.4l.2.4h.1l.1-.9h1l-1 6h-.9l.1-1h-.1q-.1.2-.4.5-.2.2-.6.4-.3.2-.9.2m.3-.9q.5 0 1-.3.4-.3.7-.8.2-.5.3-1.1.2-.7 0-1.2-.1-.5-.4-.8t-.9-.3q-.5 0-1 .3-.4.3-.7.8t-.4 1.2q-.1.6.1 1.1.1.5.4.8t.9.3m5.5-7.2h1l-1.3 8h-1zm2.7 0h1l-1.4 8h-.9zm.9 10.1.4-.8h.1q.3.1.5.1.3-.1.5-.3t.4-.6l.3-.5-1.3-6h1l.7 3.5q.1.6.1 1.1.1.2.1.5.1-.3.2-.5.2-.5.5-1.1l1.9-3.5h1.1l-3.8 6.9q-.3.4-.6.7t-.6.5q-.4.1-.8.1h-.5q-.1 0-.2-.1m6.9-.2h-.8l1-3.1h1.1zm1.4-6.2q-.4 0-.5-.3-.2-.2-.2-.5.1-.3.3-.5t.5-.2.5.3q.2.2.1.5 0 .3-.2.5-.3.2-.5.2m7.2 4.4q-.7 0-1.2-.3-.6-.3-.8-.8-.3-.6-.3-1.3 0-.8.2-1.5.3-.7.7-1.2.5-.6 1.1-.9t1.3-.3q.5 0 1 .2.4.2.6.6.3.4.3.9t-.3.8q-.3.4-.8.6-.6.2-1.4.3t-1.8.1v.4q0 .4.1.8.2.3.5.5.4.2.9.2.6 0 1-.2.5-.3.7-.7l.9.3q-.3.7-1 1.1-.8.4-1.7.4m-1.2-3.5h1.3q.7-.1 1.1-.2.4-.2.5-.4.2-.2.2-.6 0-.3-.3-.5t-.7-.2q-.7 0-1.1.3t-.7.7q-.2.4-.3.9m6.6-.2-.6 3.6h-.9l1-6h.9l-.2 1q.3-.5.8-.8t1.2-.3q.6 0 1 .2.5.3.6.8.2.5.1 1.3l-.6 3.8h-1l.6-3.8q.1-.7-.2-1.1-.2-.4-.8-.4-.5 0-.9.2t-.6.6q-.3.4-.4.9m7.4 3.7q-.7 0-1.2-.3t-.8-.9q-.3-.5-.3-1.3 0-.7.2-1.4.3-.6.7-1.2.4-.5 1-.8t1.4-.3q.4 0 .8.1t.6.3q.3.2.5.6.2.3.3.7l-1 .2q0-.3-.1-.4-.1-.2-.3-.4-.1-.1-.4-.2-.2-.1-.5-.1-.5 0-.9.3-.5.3-.7.7-.3.4-.5.9-.1.5-.1 1t.1.8q.2.4.5.6t.8.2q.3 0 .6-.1.2-.1.5-.2l.4-.4.2-.4.9.3q-.2.4-.4.7-.3.3-.7.5-.3.3-.7.4t-.9.1m4.8-.1h-.9l.9-6h1l-.2.9h.1q.2-.5.7-.8.5-.2 1-.2h.5l-.2 1q0-.1-.2-.1h-.3q-.5 0-.8.2-.4.2-.6.5-.3.3-.4.7zm2.7 2.1.4-.8h.1q.3.1.6.1.2-.1.4-.3.3-.2.5-.6l.2-.5-1.3-6h1l.7 3.5q.1.6.2 1.1v.5q.1-.3.2-.5.3-.5.6-1.1l1.8-3.5h1.1l-3.7 6.9q-.3.4-.6.7t-.7.5q-.3.1-.8.1h-.4q-.2 0-.3-.1m7.3.1h-1l1.4-8.2h.9l-.2.9h.1q.1-.2.4-.4.2-.3.6-.4.3-.2.9-.2.7 0 1.1.3.5.3.8.8t.3 1.3q0 .7-.3 1.4-.2.6-.6 1.2-.3.5-.9.9-.6.3-1.3.3-.6 0-.9-.2t-.5-.5l-.2-.4h-.1zm2.1-3q.5 0 .9-.2.4-.3.7-.7.3-.5.4-1 .2-.5.2-1 0-.7-.3-1.1-.4-.5-1.1-.5-.5 0-.9.3t-.7.7-.4.9-.1 1.1q0 .7.3 1.1t1 .4m6.1-5.2h1.3l-.2.8H344l-.6 3.6q-.1.4.1.6.1.2.5.2h.2q.2-.1.3-.1l.1.8q-.2.1-.4.1h-.4q-.8 0-1.1-.4-.4-.4-.3-1.1l.6-3.7h-.9l.2-.8h.9l.2-1.5h1zm4 6.1q-.7 0-1.2-.3-.6-.3-.8-.8-.3-.6-.3-1.3 0-.8.2-1.5.3-.7.7-1.2.5-.6 1.1-.9t1.3-.3q.5 0 1 .2.4.2.6.6.3.4.3.9t-.3.8q-.3.4-.8.6t-1.4.3q-.8.1-1.8.1v.4q0 .4.2.8.1.3.4.5.4.2.9.2.6 0 1-.2.5-.3.7-.7l.9.3q-.3.7-1 1.1-.8.4-1.7.4m-1.2-3.5h1.3q.7-.1 1.1-.2.4-.2.5-.4.2-.2.2-.6 0-.3-.3-.5t-.7-.2q-.6 0-1.1.3-.4.3-.7.7-.2.4-.3.9m7.4 3.5q-1 0-1.6-.7-.6-.6-.6-1.7 0-.7.2-1.4t.6-1.2q.4-.6 1-.9.5-.3 1.3-.3.6 0 .9.2t.5.4q.1.3.2.4h.1l.5-2.9h.9l-1.3 8h-.9l.1-1h-.1q-.1.2-.3.5l-.6.4q-.4.2-.9.2m.1-.9q.6 0 1-.2.4-.3.7-.7l.4-1q.1-.5.1-1 0-.7-.3-1.1-.3-.5-1-.5-.6 0-1 .3t-.6.7q-.3.4-.5.9-.1.5-.1 1 0 .7.3 1.2.3.4 1 .4m10.1.8h-1l-1.3-6h1l.7 3.5q.1.6.2 1.1v.5q.1-.3.2-.5.3-.5.6-1.1l1.8-3.5h1.1zm6 .1q-.7 0-1.3-.3-.5-.3-.8-.8-.3-.6-.3-1.3 0-.8.3-1.5.2-.7.7-1.2.4-.6 1-.9t1.3-.3q.6 0 1 .2t.7.6q.2.4.2.9t-.2.8q-.3.4-.9.6-.5.2-1.4.3-.7.1-1.7.1v.4q0 .4.1.8.1.3.5.5.3.2.9.2.5 0 1-.2.4-.3.7-.7l.9.3q-.4.7-1.1 1.1t-1.6.4m-1.3-3.5h1.4q.6-.1 1-.2.4-.2.6-.4t.2-.6q0-.3-.3-.5t-.8-.2q-.6 0-1 .3-.5.3-.7.7-.3.4-.4.9m6.1 3.4h-1l1-6h.9l-.1.9h.1q.2-.5.7-.8.4-.2 1-.2h.5l-.2 1q-.1-.1-.2-.1h-.4q-.4 0-.8.2-.3.2-.6.5-.2.3-.3.7zm5.2.1q-.6 0-1-.2-.5-.2-.7-.5-.3-.3-.4-.8v-.1l1-.2q0 .5.3.7t.8.2.8-.1q.4-.1.6-.4.2-.2.2-.4.1-.3-.1-.5t-.6-.3l-.9-.2q-.8-.2-1.2-.7-.3-.4-.2-1 .1-.5.4-.9.4-.4.9-.6t1.1-.2q.9 0 1.4.3.4.4.6.9v.3l-.9.1q-.1-.3-.3-.6-.2-.2-.8-.2-.4 0-.7.1t-.5.4q-.2.2-.2.4-.1.3.1.5t.7.3l.9.2q.8.2 1.1.7.3.4.2 1 0 .4-.3.7-.2.4-.5.6l-.8.4q-.5.1-1 .1m4.7-.1h-.9l1-6h.9zm.7-7q-.3 0-.4-.2-.2-.2-.2-.5.1-.2.3-.4t.5-.2.5.2q.1.2.1.4-.1.3-.3.5t-.5.2m3.5 7.1q-.7 0-1.2-.3-.6-.3-.8-.9-.3-.5-.3-1.3 0-.7.2-1.4.2-.6.6-1.2.5-.5 1.1-.8t1.3-.3 1.3.3q.5.3.8.8.3.6.3 1.3 0 .8-.3 1.4-.2.7-.6 1.2-.4.6-1 .9t-1.4.3m0-.9q.6 0 1-.2.4-.3.7-.7t.4-.9q.2-.5.2-1t-.2-.9q-.1-.3-.4-.5-.3-.3-.8-.3-.6 0-1 .3t-.7.7-.4.9q-.2.5-.2 1 0 .7.4 1.2.3.4 1 .4m5.7-2.8-.6 3.6h-1l1-6h1l-.2 1q.3-.5.7-.8.6-.3 1.2-.3.7 0 1.1.2.4.3.6.8t.1 1.3l-.7 3.8h-.9l.6-3.8q.1-.7-.2-1.1t-.9-.4q-.4 0-.8.2t-.7.6q-.2.4-.3.9m10.1 3.7q-.6 0-1.1-.2-.4-.2-.7-.5-.2-.3-.3-.8v-.1l.9-.2q.1.5.4.7t.8.2q.4 0 .8-.1.3-.1.5-.4.3-.2.3-.4 0-.3-.1-.5-.2-.2-.6-.3l-1-.2q-.8-.2-1.1-.7-.3-.4-.2-1 0-.5.4-.9.3-.4.9-.6.5-.2 1.1-.2.9 0 1.3.3.5.4.6.9 0 .1.1.1v.2l-.9.1q-.1-.3-.3-.6-.3-.2-.8-.2-.4 0-.7.1t-.5.4q-.2.2-.3.4 0 .3.2.5t.7.3l.8.2q.8.2 1.2.7.3.4.2 1-.1.4-.3.7-.2.4-.6.6-.3.2-.7.4-.5.1-1 .1m3.3 2 .4-.8q.3.1.6.1.2-.1.5-.3.2-.2.4-.6l.3-.5-1.3-6h1l.7 3.5q.1.6.1 1.1 0 .2.1.5.1-.3.2-.5.2-.5.5-1.1l1.9-3.5h1.1l-3.8 6.9q-.3.4-.6.7t-.7.5q-.3.1-.7.1h-.5q-.2 0-.2-.1m8.2-5.7-.6 3.6h-1l1-6h.9l-.1 1q.3-.5.7-.8.6-.3 1.2-.3t1.1.2q.4.3.6.8t0 1.3l-.6 3.8h-1l.7-3.8q.1-.7-.2-1.1t-.9-.4q-.4 0-.8.2t-.7.6q-.2.4-.3.9m7.4 3.7q-.7 0-1.3-.3-.5-.3-.8-.9-.2-.5-.2-1.3 0-.7.2-1.4.2-.6.6-1.2.4-.5 1-.8t1.4-.3q.4 0 .8.1t.7.3.5.6q.1.3.2.7l-.9.2q-.1-.3-.2-.4l-.2-.4-.4-.2q-.2-.1-.5-.1-.6 0-1 .3t-.7.7-.4.9q-.2.5-.2 1t.2.8q.1.4.4.6t.8.2q.3 0 .6-.1t.5-.2l.4-.4q.2-.2.3-.4l.9.3q-.2.4-.5.7t-.6.5q-.4.3-.8.4t-.8.1m6.3 0q-.7 0-1.2-.3-.6-.3-.9-.8-.2-.6-.2-1.3 0-.8.2-1.5.3-.7.7-1.2.5-.6 1.1-.9.5-.3 1.2-.3.6 0 1 .2.5.2.7.6t.2.9-.2.8q-.3.4-.8.6-.6.2-1.4.3t-1.8.1v.4q0 .4.1.8.2.3.5.5t.9.2 1-.2q.5-.3.7-.7l.9.3q-.4.7-1.1 1.1t-1.6.4m-1.3-3.5h1.4q.7-.1 1-.2.4-.2.6-.4t.2-.6q0-.3-.3-.5t-.8-.2q-.6 0-1 .3t-.7.7q-.2.4-.4.9m7.4 3.5q-1 0-1.5-.7-.6-.6-.6-1.7 0-.7.2-1.4t.6-1.2q.4-.6 1-.9.5-.3 1.2-.3.6 0 1 .2.3.2.4.4.2.3.3.4l.5-2.9h1l-1.3 8h-1l.2-1h-.1q-.1.2-.4.5-.2.2-.5.4-.4.2-1 .2m.2-.9q.5 0 .9-.2.5-.3.7-.7.3-.5.4-1 .2-.5.2-1 0-.7-.3-1.1-.4-.5-1-.5t-1 .3-.7.7-.4.9-.1 1q0 .7.3 1.2.3.4 1 .4m8.3.8h-.9l1-6h.9zm.7-7q-.3 0-.4-.2-.2-.2-.1-.5 0-.2.2-.4.3-.2.5-.2.3 0 .5.2.1.2.1.4 0 .3-.3.5-.2.2-.5.2m3.5 1h1.4l-.2.7h-1.3l-1 5.9q-.1.6-.4 1-.2.4-.7.6-.4.2-.9.2h-.2q-.1-.1-.2-.1h-.2l.2-.9q.1 0 .3.1h.2q.4 0 .6-.2.2-.3.3-.7l1-5.9h-1.2l.1-.7h1.2l.1-.5q.1-.6.4-1 .2-.5.7-.7.4-.2 1-.2h.4q.2 0 .4.1l-.3.8h-.6q-.5 0-.7.2-.3.3-.3.8zm7.2 6.1q-.7 0-1.2-.3t-.8-.9q-.3-.5-.3-1.3 0-.7.2-1.4.2-.6.7-1.2.4-.5 1-.8t1.3-.3q.5 0 .9.1.3.1.6.3t.5.6q.2.3.2.7l-.9.2q0-.3-.1-.4-.1-.2-.3-.4l-.4-.2q-.2-.1-.5-.1-.5 0-1 .3-.4.3-.7.7t-.4.9-.1 1 .1.8q.1.4.4.6.4.2.8.2t.6-.1q.3-.1.5-.2.3-.2.4-.4.2-.2.3-.4l.9.3q-.2.4-.5.7-.2.3-.6.5-.3.3-.7.4t-.9.1m5.1-8.1h1l-1.3 8h-1zm3.9 8.1q-.8 0-1.3-.3t-.8-.9q-.3-.5-.3-1.3 0-.7.3-1.4.2-.6.6-1.2.4-.5 1-.8t1.4-.3q.7 0 1.2.3.6.3.8.8.3.6.3 1.3 0 .8-.2 1.4-.2.7-.7 1.2-.4.6-1 .9t-1.3.3m0-.9q.5 0 1-.2.4-.3.7-.7t.4-.9.1-1-.1-.9q-.1-.3-.4-.5-.4-.3-.8-.3-.6 0-1 .3t-.7.7-.4.9q-.2.5-.2 1 0 .7.3 1.2.4.4 1.1.4m6.1.8q-.6 0-1-.2-.4-.3-.6-.8t0-1.2l.6-3.8h1l-.7 3.7q-.1.7.2 1.1t.9.4q.5 0 .8-.2.4-.2.7-.6.2-.3.3-.8l.6-3.6h1l-1 6h-.9l.1-1.2q-.3.6-.7.9-.6.3-1.3.3m6.8.1q-1 0-1.6-.7-.5-.6-.5-1.7 0-.7.2-1.4t.6-1.2q.4-.6.9-.9.6-.3 1.3-.3.6 0 .9.2.4.2.5.4.2.3.2.4h.1l.5-2.9h1l-1.4 8h-.9l.2-1h-.1q-.2.2-.4.5-.2.2-.6.4t-.9.2m.2-.9q.5 0 .9-.2.4-.3.7-.7.3-.5.4-1t.1-1q0-.7-.3-1.1-.3-.5-1-.5-.5 0-.9.3t-.7.7-.4.9q-.2.5-.2 1 0 .7.4 1.2.3.4 1 .4m10.2.9q-.6 0-.9-.2-.4-.2-.5-.4-.2-.3-.3-.5h-.1l-.1 1h-1l1.4-8h.9l-.5 2.9h.1l.4-.4q.2-.2.5-.4.4-.2 1-.2t1.1.3.7.8q.3.5.3 1.3 0 .7-.2 1.4-.2.6-.6 1.2-.4.5-1 .9-.5.3-1.2.3m-.2-.9q.6 0 1-.2.4-.3.7-.7.3-.5.4-1t.1-1q0-.7-.3-1.1-.3-.5-1-.5-.5 0-1 .3-.4.3-.6.7-.3.4-.4.9-.2.5-.2 1.1 0 .7.3 1.1.4.4 1 .4m6.3.9q-.7 0-1.3-.4-.5-.4-.7-1.1t0-1.6q.1-1 .6-1.7.4-.7 1.1-1 .6-.4 1.3-.4.6 0 .9.2.4.2.5.4l.2.4h.1l.1-.9h1l-1 6h-.9l.1-1h-.1q-.1.2-.3.5l-.6.4q-.4.2-1 .2m.3-.9q.6 0 1-.3t.7-.8.4-1.1q.1-.7 0-1.2t-.5-.8q-.3-.3-.9-.3-.5 0-1 .3-.4.3-.7.8-.2.5-.3 1.2-.1.6 0 1.1t.4.8.9.3m6.7.9q-.7 0-1.2-.3-.6-.3-.8-.9-.3-.5-.3-1.3 0-.7.2-1.4.2-.6.6-1.2.5-.5 1.1-.8t1.3-.3q.5 0 .8.1.4.1.7.3t.5.6q.2.3.2.7l-.9.2q-.1-.3-.1-.4-.1-.2-.3-.4l-.4-.2q-.2-.1-.5-.1-.6 0-1 .3t-.7.7-.4.9q-.2.5-.2 1t.2.8q.1.4.4.6t.8.2q.3 0 .6-.1t.5-.2q.3-.2.4-.4.2-.2.3-.4l.9.3q-.2.4-.5.7t-.6.5q-.3.3-.8.4-.4.1-.8.1m4.8-.1h-1l1.3-8h1l-.8 4.6h.2l3-2.6h1.2l-3 2.5 2.2 3.5h-1.3l-1.7-2.9-.8.6zm7.1 0q-.6 0-1-.2-.4-.3-.6-.8t-.1-1.2l.7-3.8h.9l-.6 3.7q-.1.7.2 1.1t.9.4q.4 0 .8-.2t.6-.6q.3-.3.4-.8l.6-3.6h1l-1 6h-1l.2-1.2q-.3.6-.8.9t-1.2.3m5.1 2.2h-1l1.4-8.2h.9l-.2.9h.1q.1-.2.3-.4.3-.3.6-.4.4-.2 1-.2.7 0 1.1.3.5.3.8.8.2.5.2 1.3 0 .7-.2 1.4-.2.6-.6 1.2-.4.5-.9.9-.6.3-1.3.3-.6 0-.9-.2t-.5-.5l-.2-.4h-.1zm2.1-3q.5 0 .9-.2.4-.3.7-.7.3-.5.4-1 .2-.5.2-1 0-.7-.4-1.1-.3-.5-1-.5-.5 0-.9.3t-.7.7-.4.9-.1 1.1q0 .7.3 1.1t1 .4m9.6.9q-.7 0-1.2-.3-.6-.3-.9-.8-.2-.6-.2-1.3 0-.8.2-1.5.3-.7.7-1.2.5-.6 1.1-.9.5-.3 1.2-.3.6 0 1 .2.5.2.7.6t.2.9-.2.8q-.3.4-.8.6-.6.2-1.4.3t-1.8.1v.4q0 .4.1.8.2.3.5.5t.9.2 1-.2q.5-.3.7-.7l.9.3q-.4.7-1.1 1.1t-1.6.4m-1.3-3.5h1.4q.7-.1 1-.2.4-.2.6-.4t.2-.6q0-.3-.3-.5t-.8-.2q-.6 0-1 .3t-.7.7q-.2.4-.4.9m6.7-.2-.6 3.6h-1l1-6h1l-.2 1q.3-.5.7-.8.6-.3 1.3-.3.6 0 1 .2.4.3.6.8t.1 1.3l-.7 3.8h-.9l.6-3.8q.1-.7-.2-1.1t-.9-.4q-.4 0-.8.2t-.7.6q-.2.4-.3.9m7.2 3.7q-.8 0-1.3-.4t-.7-1.1-.1-1.6q.2-1 .6-1.7.5-.7 1.1-1 .7-.4 1.4-.4.6 0 .9.2t.5.4l.2.4h.1l.1-.9h1l-1 6h-.9l.1-1h-.1q-.1.2-.4.5-.2.2-.6.4t-.9.2m.3-.9q.5 0 .9-.3.5-.3.7-.8.3-.5.4-1.1.1-.7 0-1.2t-.4-.8-.9-.3-1 .3-.7.8-.4 1.2q-.1.6 0 1.1t.5.8q.3.3.9.3m7 .9q-.6 0-.9-.2t-.5-.4q-.1-.3-.2-.5h-.1l-.2 1h-.9l1.3-8h1l-.5 2.9h.1q.1-.2.3-.4t.6-.4.9-.2q.7 0 1.2.3.4.3.7.8t.3 1.3q0 .7-.2 1.4-.2.6-.6 1.2-.4.5-1 .9-.6.3-1.3.3m-.1-.9q.5 0 .9-.2.4-.3.7-.7.3-.5.5-1 .1-.5.1-1 0-.7-.3-1.1-.4-.5-1-.5t-1 .3-.7.7q-.2.4-.4.9-.1.5-.1 1.1 0 .7.3 1.1t1 .4m5.4-7.2h.9l-1.3 8h-1zm3.8 8.1q-.7 0-1.3-.3-.5-.3-.8-.8-.3-.6-.3-1.3 0-.8.3-1.5t.7-1.2q.5-.6 1-.9.6-.3 1.3-.3.6 0 1 .2.5.2.7.6t.2.9-.2.8q-.3.4-.8.6-.6.2-1.4.3t-1.8.1v.4q0 .4.1.8.2.3.5.5t.9.2 1-.2q.4-.3.7-.7l.9.3q-.4.7-1.1 1.1t-1.6.4m-1.3-3.5h1.4q.7-.1 1-.2.4-.2.6-.4t.2-.6q0-.3-.3-.5t-.8-.2q-.6 0-1 .3t-.7.7q-.2.4-.4.9m7.4 3.5q-1 0-1.5-.7-.6-.6-.6-1.7 0-.7.2-1.4t.6-1.2q.4-.6 1-.9.5-.3 1.2-.3.6 0 1 .2.3.2.4.4.2.3.3.4l.5-2.9h1l-1.3 8h-1l.2-1h-.1q-.1.2-.4.5-.2.2-.6.4-.3.2-.9.2m.2-.9q.5 0 .9-.2.4-.3.7-.7.3-.5.4-1 .2-.5.2-1 0-.7-.4-1.1-.3-.5-1-.5-.5 0-.9.3t-.7.7-.4.9-.1 1q0 .7.3 1.2.3.4 1 .4"/></svg>