<svg xmlns="http://www.w3.org/2000/svg" width="1200" height="560" viewBox="0 0 1200 560"><path fill="#f1f5f9" d="M0 0h1200v560H0z"/><path fill="#0f172a" d="M41 56.7h-7.4V39.3h6.9q1.9 0 3.2.5 1.3.6 1.9 1.6.7 1 .7 2.4 0 1-.4 1.8-.4.7-1.2 1.2-.7.5-1.6.7v.2q1 0 1.9.5.9.6 1.4 1.5.6.9.6 2.2 0 1.4-.7 2.5t-2 1.7q-1.4.6-3.3.6m-3.8-7.6v4.7h3.1q1.5 0 2.2-.6.8-.6.8-1.6 0-.8-.4-1.3-.3-.6-1-.9t-1.6-.3zm0-6.9v4.4H40q.7 0 1.4-.3.6-.2.9-.8.4-.5.4-1.2 0-.9-.7-1.5t-1.9-.6zm15.1 14.5h-3.5V43.6h3.5zm-1.8-14.8q-.8 0-1.3-.5-.6-.5-.6-1.3 0-.7.6-1.3.5-.5 1.3-.5t1.4.5q.6.6.6 1.3 0 .8-.6 1.3t-1.4.5m8.2 1.7h2.5v2.7h-2.5v6.6q0 .6.3.9t.9.3h.6q.4-.1.5-.1l.5 2.6q-.5.2-1.1.2-.6.1-1.1.1-2 0-3-.9-1.1-1-1.1-2.8v-6.9h-1.8v-2.7h1.8v-3.1h3.5zm10 13.4q-1.9 0-3.4-.9-1.4-.8-2.2-2.3t-.8-3.6q0-2 .8-3.5t2.2-2.4q1.5-.8 3.4-.8 1.2 0 2.2.3t1.7.8q.8.6 1.3 1.4t.7 1.8l-3.3.6q-.1-.5-.3-.9-.3-.4-.6-.7t-.7-.4q-.4-.2-.9-.2-1 0-1.6.5t-1 1.4q-.3.9-.3 2.1t.3 2.1q.4.9 1 1.4t1.6.5q.5 0 .9-.1.4-.2.7-.5.4-.3.6-.7t.3-1l3.3.6q-.2 1.1-.7 1.9t-1.3 1.4q-.7.6-1.7.9t-2.2.3m13.6 0q-2 0-3.5-.9-1.4-.8-2.2-2.3t-.8-3.6q0-2 .8-3.5t2.2-2.4q1.5-.8 3.5-.8 1.9 0 3.4.8 1.4.9 2.2 2.4t.8 3.5q0 2.1-.8 3.6t-2.2 2.3q-1.5.9-3.4.9m0-2.8q.9 0 1.5-.5.7-.5 1-1.4t.3-2.1q0-1.1-.3-2t-1-1.5q-.6-.5-1.5-.5-1 0-1.6.5-.6.6-1 1.5-.3.9-.3 2 0 1.2.3 2.1.4.9 1 1.4t1.6.5M94 56.7h-3.5V43.6H94zm-1.7-14.8q-.8 0-1.4-.5t-.6-1.3q0-.7.6-1.3.6-.5 1.4-.5t1.3.5q.6.6.6 1.3 0 .8-.6 1.3-.5.5-1.3.5m7.6 7.2v7.6h-3.5V43.6h3.3l.1 2.7q.5-1.2 1.4-1.9 1-.9 2.7-.9 1.3 0 2.3.6 1 .5 1.6 1.7.6 1.1.6 2.6v8.3h-3.6V49q0-1.2-.6-1.9t-1.7-.7q-.8 0-1.3.3-.6.4-.9 1-.4.6-.4 1.4m23.8 7.6h-4.1l-4.7-17.4h3.9l2 8.6q.3 1 .5 2.3l.4 2.4q0 .3.1.5 0-.2.1-.5l.4-2.4q.2-1.3.5-2.3l2.1-8.6h3.7l2.2 8.6q.2 1 .5 2.3l.4 2.4q0 .3.1.5 0-.2.1-.5l.4-2.4q.2-1.3.4-2.3l2.1-8.6h3.9L134 56.7h-4.1l-2.3-8.9q-.4-1.5-.7-3.2 0-.5-.1-1-.1.4-.2.9-.2 1.7-.6 3.3zm20.1.3q-1.2 0-2.2-.5-1-.4-1.6-1.3-.6-.8-.6-2.1 0-1.1.4-1.9.4-.7 1.1-1.1.7-.5 1.6-.7.9-.3 1.9-.4 1.1-.1 1.8-.2t1-.3q.4-.2.4-.6v-.1q0-.5-.3-.9-.2-.4-.7-.6-.4-.2-1.1-.2t-1.2.2-.8.5q-.3.4-.5.8l-3.2-.5q.4-1.2 1.1-2 .8-.8 2-1.2t2.6-.4q1.1 0 2.1.2 1 .3 1.8.8t1.2 1.4q.5.8.5 2v8.8h-3.4v-1.8h-.1q-.3.6-.8 1.1-.5.4-1.3.7-.7.3-1.7.3m1-2.5q.8 0 1.5-.3.6-.3.9-.9.4-.6.4-1.3v-1.4q-.2.1-.5.2t-.7.2-.7.1q-.4.1-.7.1-.7.1-1.2.3-.4.2-.7.6-.3.3-.3.9 0 .5.3.8.2.4.7.5.4.2 1 .2m8.7-15.2h3.5v17.4h-3.5zm5.9 0h3.5v17.4h-3.5zM171.2 57q-2 0-3.5-.8-1.4-.9-2.2-2.4t-.8-3.5q0-2.1.8-3.6t2.2-2.4q1.4-.8 3.3-.8 1.3 0 2.4.4t2 1.2q.8.8 1.3 2.1.5 1.2.5 2.9v1h-9q0 1 .4 1.7.4.8 1.1 1.2.6.3 1.6.3.6 0 1.1-.1.5-.2.8-.6.4-.3.6-.8l3.2.6q-.3 1.1-1.1 1.9t-2 1.2q-1.2.5-2.7.5m-3-8.1h5.6q-.1-.7-.3-1.2-.3-.8-.9-1.2t-1.5-.4q-1 0-1.6.4-.6.5-1 1.2-.2.5-.3 1.2m14.8-5.3h2.5v2.7H183v6.6q0 .6.3.9t.9.3h.6q.4-.1.5-.1l.5 2.6q-.5.2-1.1.2-.6.1-1.1.1-2 0-3-.9-1.1-1-1.1-2.8v-6.9h-1.8v-2.7h1.8v-3.1h3.5zm16.7 13.1h-7.4V39.3h7q1.9 0 3.2.5 1.3.6 1.9 1.6t.6 2.4q0 1-.4 1.8-.4.7-1.1 1.2t-1.6.7v.2q1 0 1.8.5.9.6 1.5 1.5.5.9.5 2.2 0 1.4-.7 2.5t-2 1.7-3.3.6m-3.8-7.6v4.7h3.1q1.6 0 2.3-.6t.7-1.6q0-.8-.3-1.3-.4-.6-1-.9-.7-.3-1.6-.3zm0-6.9v4.4h2.8q.8 0 1.4-.3.6-.2 1-.8.3-.5.3-1.2 0-.9-.7-1.5-.6-.6-1.9-.6zM211.2 57q-1.3 0-2.2-.5-1-.4-1.6-1.3-.6-.8-.6-2.1 0-1.1.4-1.9.4-.7 1.1-1.1.7-.5 1.6-.7.9-.3 1.9-.4 1.1-.1 1.8-.2t1-.3q.4-.2.4-.6v-.1q0-.5-.3-.9-.2-.4-.7-.6-.4-.2-1.1-.2t-1.2.2-.8.5q-.3.4-.5.8l-3.2-.5q.3-1.2 1.1-2t2-1.2q1.1-.4 2.6-.4 1.1 0 2.1.2 1 .3 1.7.8.8.5 1.3 1.4.5.8.5 2v8.8h-3.4v-1.8h-.1q-.3.6-.8 1.1-.5.4-1.3.7-.7.3-1.7.3m1-2.5q.8 0 1.4-.3.7-.3 1-.9.4-.6.4-1.3v-1.4q-.2.1-.5.2t-.7.2-.8.1q-.3.1-.6.1-.7.1-1.2.3t-.7.6q-.3.3-.3.9 0 .5.3.8.2.4.7.5.4.2 1 .2m14.5 2.5q-2 0-3.4-.9-1.4-.8-2.2-2.3t-.8-3.6q0-2 .8-3.5t2.2-2.4q1.4-.8 3.4-.8 1.2 0 2.2.3t1.7.8q.8.6 1.3 1.4t.7 1.8l-3.3.6q-.1-.5-.3-.9-.3-.4-.6-.7t-.7-.4q-.4-.2-.9-.2-1 0-1.6.5-.7.5-1 1.4t-.3 2.1.3 2.1 1 1.4q.6.5 1.6.5.5 0 .9-.1.4-.2.7-.5.4-.3.6-.7t.3-1l3.3.6q-.2 1.1-.7 1.9t-1.3 1.4q-.7.6-1.7.9t-2.2.3m11.2-.3h-3.5V39.3h3.5v9.4h.2l4.3-5.1h4.1l-4.9 5.7 5.1 7.4h-4.1l-3.7-5.3-1 1.1zm14.3.2q-1.3 0-2.4-.6-1-.6-1.5-1.7-.6-1.1-.6-2.6v-8.4h3.5v7.8q0 1.2.7 1.9.6.7 1.7.7.7 0 1.3-.4.6-.3.9-.9t.3-1.5v-7.6h3.6v13.1h-3.4V54q-.5 1.3-1.4 2-1 .9-2.7.9m13.4 4.7h-3.5v-18h3.4v2.2h.2q.2-.5.7-1 .4-.6 1.2-1 .7-.3 1.8-.3 1.5 0 2.7.7 1.2.8 1.9 2.3t.7 3.7-.7 3.7-1.9 2.3-2.7.8q-1.1 0-1.8-.4-.8-.4-1.2-.9-.5-.5-.7-1.1h-.1zm2.7-7.5q.9 0 1.5-.5.7-.5 1-1.4t.3-2q0-1.2-.3-2-.3-.9-.9-1.4-.7-.5-1.6-.5t-1.5.5q-.7.5-1 1.3-.3.9-.3 2.1t.3 2.1q.4.8 1 1.3t1.5.5m19.8 2.9q-2.1 0-3.6-.7-1.6-.6-2.4-1.9-.9-1.2-.9-3.1h3.4q.1.9.6 1.5.4.6 1.2.9.7.3 1.7.3t1.7-.3 1.1-.8.4-1.2q0-.6-.4-1-.3-.4-1-.7t-1.6-.5l-1.9-.5q-2.3-.5-3.5-1.7-1.3-1.1-1.3-3 0-1.6.9-2.8.8-1.2 2.3-1.8 1.5-.7 3.4-.7t3.4.7q1.4.7 2.2 1.8.8 1.2.8 2.8h-3.4q-.1-1.1-.9-1.7t-2.1-.6q-.9 0-1.6.3-.6.3-1 .7-.3.5-.3 1.1t.4 1q.4.5 1 .7.7.3 1.4.5l1.6.4q1.1.2 2 .6 1 .4 1.7 1.1.7.6 1.1 1.4.4.9.4 2 0 1.5-.8 2.7t-2.3 1.8q-1.5.7-3.7.7m14.5 0q-1.9 0-3.4-.9-1.4-.8-2.2-2.3t-.8-3.6q0-2 .8-3.5t2.2-2.4q1.5-.8 3.4-.8 2 0 3.5.8 1.4.9 2.2 2.4.7 1.5.7 3.5 0 2.1-.7 3.6-.8 1.5-2.2 2.3-1.5.9-3.5.9m0-2.8q1 0 1.6-.5t1-1.4q.3-.9.3-2.1 0-1.1-.3-2-.4-.9-1-1.5-.6-.5-1.6-.5-.9 0-1.5.5-.7.6-1 1.5t-.3 2q0 1.2.3 2.1t1 1.4q.6.5 1.5.5m8.3-14.9h3.5v17.4h-3.5zm10.4 17.6q-1.3 0-2.4-.6-1-.6-1.5-1.7-.6-1.1-.6-2.6v-8.4h3.5v7.8q0 1.2.6 1.9.7.7 1.8.7.7 0 1.3-.4.6-.3.9-.9t.3-1.5v-7.6h3.6v13.1h-3.4V54q-.5 1.3-1.4 2-1.1.9-2.7.9m13.9-13.3h2.4v2.7h-2.4v6.6q0 .6.3.9.2.3.9.3h.6q.3-.1.5-.1l.5 2.6q-.6.2-1.2.2-.5.1-1.1.1-1.9 0-3-.9-1-1-1-2.8v-6.9h-1.8v-2.7h1.8v-3.1h3.5zm7.6 13.1h-3.5V43.6h3.5zm-1.7-14.8q-.8 0-1.4-.5-.5-.5-.5-1.3 0-.7.5-1.3.6-.5 1.4-.5t1.4.5q.5.6.5 1.3 0 .8-.5 1.3-.6.5-1.4.5m10 15.1q-2 0-3.4-.9-1.5-.8-2.2-2.3-.8-1.5-.8-3.6 0-2 .8-3.5.7-1.5 2.2-2.4 1.4-.8 3.4-.8t3.4.8q1.4.9 2.2 2.4t.8 3.5q0 2.1-.8 3.6t-2.2 2.3q-1.4.9-3.4.9m0-2.8q.9 0 1.6-.5.6-.5.9-1.4t.3-2.1q0-1.1-.3-2t-.9-1.5q-.7-.5-1.6-.5t-1.6.5q-.6.6-.9 1.5t-.3 2q0 1.2.3 2.1t.9 1.4q.7.5 1.6.5m11.8-5.1v7.6h-3.5V43.6h3.3v2.7q.5-1.2 1.4-1.9 1-.9 2.7-.9 1.4 0 2.4.6 1 .5 1.5 1.7.6 1.1.6 2.6v8.3h-3.5V49q0-1.2-.6-1.9-.7-.7-1.8-.7-.7 0-1.3.3-.6.4-.9 1t-.3 1.4m16 7.9q-1.6 0-2.8-.5-1.2-.4-2-1.3-.8-.8-1-2.1l3.3-.5q.2.9.9 1.4.6.4 1.7.4 1 0 1.6-.4t.6-.9q0-.6-.4-.9-.5-.3-1.3-.5l-2.3-.5q-1.9-.3-2.8-1.3-1-.9-1-2.4 0-1.2.7-2.1.7-1 2-1.4 1.2-.5 2.9-.5 1.5 0 2.6.4 1.2.4 1.9 1.2t.9 1.9l-3.1.5q-.2-.7-.8-1.1-.5-.4-1.5-.4-.9 0-1.4.3-.6.4-.6 1 0 .5.3.9.4.3 1.4.5l2.3.4q1.9.4 2.8 1.3 1 .9 1 2.3 0 1.3-.8 2.2-.7 1-2.1 1.5-1.3.6-3 .6"/><path fill="#64748b" d="M36.5 83.3q-1.1 0-1.9-.4-.8-.3-1.3-1-.4-.6-.5-1.5h1.3q.1.6.4 1 .4.3.9.5t1.1.2q.7 0 1.2-.2.6-.2.9-.7.3-.4.3-.9t-.3-.8q-.2-.3-.7-.5-.4-.2-1-.4l-1.2-.3q-1.3-.4-1.9-1-.7-.7-.7-1.7 0-.8.4-1.5.5-.6 1.3-1 .8-.3 1.8-.3t1.8.3q.7.4 1.2 1 .4.6.5 1.4h-1.3q-.1-.8-.7-1.2-.7-.4-1.6-.4-.6 0-1.1.2t-.8.6-.3.9.4.8q.3.4.8.5.4.2.8.3l1 .3q.4.1.9.3t1 .5q.4.3.7.8t.3 1.2q0 .9-.4 1.5-.5.7-1.3 1.1t-2 .4m8.8 0q-1.1 0-1.9-.5t-1.3-1.4q-.4-.9-.4-2.1 0-1.1.4-2t1.2-1.4 1.8-.5q.6 0 1.2.2t1.1.6q.5.5.8 1.2t.3 1.8v.5h-5.6q.1.7.3 1.3.3.6.9.9.5.3 1.2.3.4 0 .8-.2.4-.1.6-.4.3-.2.4-.6l1.2.3q-.1.6-.6 1-.4.5-1 .7-.6.3-1.4.3m-2.4-4.7h4.3q0-.5-.2-.9-.2-.6-.7-.9-.5-.4-1.2-.4t-1.2.4q-.4.3-.7.9-.2.4-.3.9m10.4 4.7q-1 0-1.8-.5t-1.2-1.4-.4-2.1.4-2.1 1.2-1.4q.8-.4 1.8-.4.6 0 1.1.1t.9.4.7.7.4.9l-1.2.3q0-.3-.2-.5-.2-.3-.4-.5l-.6-.2q-.3-.1-.7-.1-.7 0-1.2.4t-.8 1q-.2.7-.2 1.4 0 .8.2 1.4.3.7.8 1.1t1.2.4q.4 0 .7-.1.4-.1.6-.3.3-.2.4-.5.2-.2.3-.6l1.2.4q-.2.5-.5.9t-.7.7-.9.4q-.5.2-1.1.2m7.5-.1q-.8 0-1.3-.3-.6-.3-1-1-.3-.6-.3-1.6v-4.8h1.3v4.7q0 .9.4 1.4.5.5 1.3.5.5 0 1-.3.4-.2.7-.7.2-.4.2-1.1v-4.5h1.2v7.6h-1.1v-1.4q-.4.7-.9 1.1-.6.4-1.5.4m6.9-.1h-1.2v-7.6h1.2v1.1h.1q.2-.6.7-.9.6-.4 1.3-.4h.3q.2.1.3.1v1.2h-.3q-.2-.1-.5-.1-.5 0-.9.3-.5.2-.7.6-.3.4-.3.9zm5.3 0h-1.2v-7.6H73zm-.6-8.9q-.4 0-.6-.2-.3-.3-.3-.6 0-.4.3-.6.2-.2.6-.2.3 0 .6.2t.3.6q0 .3-.3.6-.3.2-.6.2m4.2 1.3h1.6v1h-1.6v4.6q0 .5.2.8.2.2.7.2h.3q.2-.1.3-.1l.3 1.1q-.2 0-.5.1h-.4q-1 0-1.6-.5-.5-.6-.5-1.5v-4.7h-1.2v-1h1.2v-1.9h1.2zm3 10.4.3-1.1h.2q.3.1.6.1.4-.1.6-.3.2-.3.4-.8l.3-.7-3-7.6h1.4L82 80q.3.7.4 1.4l.2.6.2-.6q.1-.7.4-1.4l1.6-4.5h1.4l-3.4 8.7q-.2.6-.6 1-.3.4-.7.6t-1 .2H80q-.3-.1-.4-.1m8.7-.4h-.9l.6-3.8h1.4zm8.5.5h-1.2V75.5h1.2v1.2h.1q.1-.2.4-.5.2-.4.6-.6.5-.2 1.2-.2 1 0 1.7.4.7.5 1.1 1.4.5.9.5 2.1t-.4 2.1q-.5.9-1.2 1.4t-1.7.5q-.7 0-1.1-.3-.5-.2-.7-.6-.3-.3-.4-.5h-.1zm2.1-3.8q.8 0 1.2-.4.5-.4.8-1.1.2-.6.2-1.4t-.2-1.5q-.3-.6-.7-1-.5-.3-1.3-.3-.7 0-1.1.3-.5.4-.8 1-.2.6-.2 1.5 0 .8.2 1.5.3.6.8 1t1.1.4m8.4 1.1q-1.1 0-1.9-.5-.7-.5-1.2-1.4-.4-.9-.4-2.1t.4-2.1q.5-.9 1.2-1.4.8-.4 1.9-.4 1 0 1.8.4.8.5 1.2 1.4.5.9.5 2.1t-.5 2.1q-.4.9-1.2 1.4t-1.8.5m0-1.1q.7 0 1.2-.4t.8-1.1q.2-.6.2-1.4 0-.7-.2-1.4-.3-.6-.8-1t-1.2-.4q-.8 0-1.3.4t-.7 1q-.3.7-.3 1.4 0 .8.3 1.4.2.7.7 1.1t1.3.4m6.5.9h-1.3v-7.6h1.2v1.1h.1q.2-.6.8-.9.5-.4 1.2-.4h.3q.2.1.3.1v1.2h-.2q-.3-.1-.5-.1-.6 0-1 .3-.4.2-.7.6-.2.4-.2.9zm5.5-7.6h1.5v1h-1.5v4.6q0 .5.2.8.2.2.7.2h.3q.1-.1.3-.1l.2 1.1q-.2 0-.4.1h-.5q-1 0-1.5-.5-.6-.6-.6-1.5v-4.7h-1.1v-1h1.1v-1.9h1.3zm5.2 7.8q-.7 0-1.3-.3t-.9-.8q-.4-.5-.4-1.3 0-.6.3-1 .3-.5.7-.7t.9-.3q.6-.2 1.1-.2.7-.1 1.1-.2.5 0 .7-.1t.2-.4v-.1q0-.4-.2-.8-.2-.3-.5-.5-.4-.2-.9-.2-.6 0-1 .2t-.6.4l-.4.6-1.1-.4q.2-.7.7-1.1t1.1-.6q.6-.1 1.2-.1h.9q.5.1 1 .4.4.3.7.8.3.6.3 1.5v5h-1.2v-1h-.1q-.1.2-.4.5t-.8.5q-.4.2-1.1.2m.3-1.1q.6 0 1.1-.3.5-.2.7-.7.3-.4.3-.9v-1q-.1.1-.4.1-.2.1-.5.2-.4 0-.7.1h-.4q-.5.1-.9.2t-.6.4q-.2.2-.2.7 0 .4.2.6.2.3.5.4.4.2.9.2m9 1.1q-.7 0-1.2-.3-.4-.2-.6-.6-.3-.3-.4-.5h-.2v1.2h-1.1V72.9h1.2v3.8h.1q.1-.2.3-.5.3-.4.7-.6.5-.2 1.2-.2 1 0 1.7.4.7.5 1.1 1.4t.4 2.1-.4 2.1-1.1 1.4-1.7.5m-.2-1.1q.7 0 1.2-.4t.7-1.1q.3-.6.3-1.4t-.2-1.5q-.3-.6-.8-1-.5-.3-1.2-.3t-1.2.3q-.4.4-.7 1-.2.6-.2 1.5 0 .8.2 1.5.3.6.8 1 .4.4 1.1.4m6.5.9h-1.3v-7.6h1.3zm-.6-8.9q-.4 0-.6-.2-.3-.3-.3-.6 0-.4.3-.6.2-.2.6-.2.3 0 .6.2.2.2.2.6 0 .3-.2.6-.3.2-.6.2m2.7-1.3h1.3v10.2h-1.3zm4.6 10.2h-1.2v-7.6h1.2zm-.6-8.9q-.3 0-.6-.2-.2-.3-.2-.6 0-.4.2-.6.3-.2.6-.2.4 0 .6.2.3.2.3.6 0 .3-.3.6-.2.2-.6.2m4.2 1.3h1.6v1h-1.6v4.6q0 .5.2.8.3.2.7.2h.3q.2-.1.4-.1l.2 1.1q-.2 0-.4.1h-.5q-1 0-1.5-.5-.6-.6-.6-1.5v-4.7h-1.1v-1h1.1v-1.9h1.2zm3.1 10.4.3-1.1h.1q.4.1.7.1.3-.1.5-.3.3-.3.5-.8l.2-.7-2.9-7.6h1.3l1.6 4.5q.3.7.5 1.4.1.3.1.6l.2-.6.4-1.4 1.7-4.5h1.3l-3.4 8.7q-.2.6-.5 1t-.8.6q-.4.2-.9.2h-.6q-.2-.1-.3-.1m8.7-.4h-1l.6-3.8h1.5zm9.4-2.2q-.8 0-1.4-.3-.5-.3-.9-.8-.3-.5-.3-1.3 0-.6.2-1 .3-.5.7-.7t1-.3q.5-.2 1-.2.7-.1 1.1-.2.5 0 .7-.1t.2-.4v-.1q0-.4-.2-.8-.2-.3-.5-.5-.4-.2-.9-.2-.6 0-.9.2-.4.2-.7.4-.2.3-.3.6l-1.2-.4q.3-.7.8-1.1t1.1-.6q.6-.1 1.2-.1h.8q.5.1 1 .4.4.3.7.8.3.6.3 1.5v5h-1.2v-1h-.1q-.1.2-.4.5t-.7.5q-.5.2-1.1.2m.2-1.1q.7 0 1.1-.3.5-.2.7-.7.3-.4.3-.9v-1q-.1.1-.3.1l-.6.2q-.3 0-.6.1h-.5q-.5.1-.9.2-.3.1-.6.4-.2.2-.2.7 0 .4.2.6.2.3.6.4.3.2.8.2m6.7-3.7v4.6h-1.2v-7.6h1.2v1.4q.3-.8.8-1.1.6-.4 1.5-.4.8 0 1.4.3.5.3.9.9.3.7.3 1.6v4.9h-1.2v-4.8q0-.8-.5-1.3t-1.3-.5q-.5 0-.9.2-.5.2-.7.7-.3.5-.3 1.1m9.9 4.8q-.9 0-1.7-.5-.7-.5-1.1-1.4t-.4-2.1.4-2.1 1.1-1.4q.8-.4 1.7-.4.8 0 1.2.2t.7.6q.2.3.3.5h.1v-3.8h1.3v10.2h-1.2v-1.2h-.2q-.1.2-.3.5-.3.4-.7.6-.4.3-1.2.3m.2-1.1q.7 0 1.2-.4t.7-1q.3-.7.3-1.5 0-.9-.3-1.5-.2-.6-.7-1-.5-.3-1.2-.3t-1.2.3q-.5.4-.7 1-.3.7-.3 1.5t.3 1.4q.2.7.7 1.1t1.2.4m10.7.9h-1.2v-7.6h1.2zm-.6-8.9q-.4 0-.6-.2-.3-.3-.3-.6 0-.4.3-.6.2-.2.6-.2.3 0 .6.2.2.2.2.6 0 .3-.2.6-.3.2-.6.2m4 4.3v4.6h-1.2v-7.6h1.1v1.4q.4-.8.9-1.1.6-.4 1.5-.4.8 0 1.3.3.6.3.9.9.4.7.4 1.6v4.9h-1.3v-4.8q0-.8-.4-1.3-.5-.5-1.3-.5-.5 0-1 .2-.4.2-.7.7-.2.5-.2 1.1m8.8-3h1.8v1h-1.8v6.6h-1.2v-6.6h-1.5v-1h1.5v-1.1q0-.6.3-1.1.3-.4.8-.6.5-.3 1.1-.3.4 0 .7.1t.4.1l-.3 1.1q-.1 0-.3-.1h-.4q-.6 0-.8.3-.3.3-.3.8zm4.6 7.6h-1.2v-7.6h1.2v1.1h.1q.2-.6.7-.9.6-.4 1.3-.4h.3q.2.1.3.1v1.2h-.3q-.2-.1-.5-.1-.5 0-.9.3-.5.2-.7.6-.3.4-.3.9zm6.2.2q-.7 0-1.3-.3t-.9-.8q-.4-.5-.4-1.3 0-.6.3-1 .2-.5.7-.7.4-.2.9-.3.6-.2 1.1-.2.7-.1 1.1-.2.4 0 .6-.1.3-.1.3-.4v-.1q0-.4-.2-.8-.2-.3-.6-.5-.3-.2-.8-.2-.6 0-1 .2t-.6.4q-.3.3-.4.6l-1.2-.4q.3-.7.8-1.1t1.1-.6q.6-.1 1.2-.1h.9q.5.1.9.4.5.3.8.8.3.6.3 1.5v5h-1.2v-1h-.1q-.1.2-.4.5t-.8.5q-.4.2-1.1.2m.2-1.1q.7 0 1.2-.3.5-.2.7-.7.3-.4.3-.9v-1q-.1.1-.4.1-.2.1-.6.2-.3 0-.6.1h-.5l-.8.2q-.4.1-.6.4-.2.2-.2.7 0 .4.2.6.2.3.5.4.4.2.8.2m8.1 1.1q-.7 0-1.4-.3-.6-.2-1-.7-.4-.4-.5-1.1l1.2-.2q.1.6.6.9.4.3 1.1.3.8 0 1.3-.4.5-.3.5-.8 0-.4-.3-.6-.3-.3-.8-.4l-1.3-.3q-1.1-.3-1.6-.8t-.5-1.3q0-.7.4-1.2t1-.8q.6-.2 1.5-.2.7 0 1.3.2.5.2.9.6.3.5.5 1l-1.1.3q-.2-.4-.5-.8-.4-.3-1.1-.3t-1.2.3q-.4.3-.4.8 0 .4.3.7.3.2 1 .4l1.1.3q1.1.2 1.6.7.5.6.5 1.3t-.4 1.2q-.4.6-1.1.9t-1.6.3m6.3-7.8h1.5v1h-1.5v4.6q0 .5.2.8.2.2.7.2h.3q.1-.1.3-.1l.3 1.1q-.2 0-.5.1h-.5q-1 0-1.5-.5-.6-.6-.6-1.5v-4.7h-1.1v-1h1.1v-1.9h1.3zm4.3 7.6H240v-7.6h1.2v1.1h.1q.2-.6.7-.9.6-.4 1.3-.4h.3q.2.1.3.1v1.2h-.3q-.2-.1-.5-.1-.5 0-.9.3-.5.2-.7.6-.3.4-.3.9zm6.7.1q-.8 0-1.4-.3t-.9-1q-.3-.6-.3-1.6v-4.8h1.2v4.7q0 .9.5 1.4.4.5 1.2.5.6 0 1-.3.5-.2.7-.7.3-.4.3-1.1v-4.5h1.2v7.6h-1.2v-1.4q-.3.7-.8 1.1-.7.4-1.5.4m8.8.1q-1.1 0-1.9-.5-.7-.5-1.2-1.4-.4-.9-.4-2.1t.4-2.1q.5-.9 1.2-1.4.8-.4 1.9-.4.5 0 1 .1t.9.4.7.7.5.9l-1.2.3q-.1-.3-.3-.5-.1-.3-.4-.5-.2-.1-.5-.2-.4-.1-.7-.1-.8 0-1.3.4t-.7 1q-.3.7-.3 1.4 0 .8.3 1.4.2.7.7 1.1t1.3.4q.4 0 .7-.1t.5-.3q.3-.2.5-.5.1-.2.2-.6l1.2.4q-.2.5-.5.9t-.7.7-.9.4q-.5.2-1 .2m6.3-7.8h1.6v1H263v4.6q0 .5.2.8.2.2.7.2h.3q.2-.1.3-.1l.3 1.1q-.2 0-.5.1h-.4q-1 0-1.6-.5-.5-.6-.5-1.5v-4.7h-1.2v-1h1.2v-1.9h1.2zm5.7 7.7q-.7 0-1.3-.3t-.9-1q-.4-.6-.4-1.6v-4.8h1.3v4.7q0 .9.4 1.4.5.5 1.3.5.5 0 1-.3.4-.2.7-.7.2-.4.2-1.1v-4.5h1.3v7.6h-1.2v-1.4q-.4.7-.9 1.1-.6.4-1.5.4m6.9-.1h-1.2v-7.6h1.2v1.1h.1q.2-.6.7-.9.6-.4 1.3-.4h.3q.2.1.3.1v1.2h-.3q-.2-.1-.4-.1-.6 0-1 .3-.5.2-.7.6-.3.4-.3.9zm7.3.2q-1.1 0-1.9-.5t-1.2-1.4q-.5-.9-.5-2.1 0-1.1.4-2 .5-.9 1.2-1.4.8-.5 1.9-.5.6 0 1.2.2.5.2 1 .6.5.5.8 1.2t.3 1.8v.5h-5.5q0 .7.3 1.3.2.6.8.9.5.3 1.2.3.5 0 .8-.2.4-.1.7-.4.2-.2.4-.6l1.2.3q-.2.6-.6 1-.5.5-1.1.7-.6.3-1.4.3m-2.3-4.7h4.2q0-.5-.2-.9-.2-.6-.7-.9-.5-.4-1.1-.4-.7 0-1.2.4-.5.3-.8.9-.2.4-.2.9m14.3 4.7q-1 0-1.8-.5t-1.2-1.4q-.5-.9-.5-2.1t.5-2.1q.4-.9 1.2-1.4.8-.4 1.8-.4.6 0 1 .1.5.1.9.4t.7.7.5.9l-1.2.3q-.1-.3-.2-.5-.2-.3-.5-.5-.2-.1-.5-.2t-.7-.1q-.8 0-1.3.4t-.7 1q-.2.7-.2 1.4 0 .8.2 1.4.2.7.7 1.1t1.3.4q.4 0 .7-.1t.6-.3q.2-.2.4-.5.2-.2.2-.6l1.2.4q-.1.5-.4.9t-.7.7-.9.4q-.5.2-1.1.2m8 0q-1 0-1.8-.5t-1.2-1.4q-.5-.9-.5-2.1t.5-2.1q.4-.9 1.2-1.4.8-.4 1.8-.4t1.8.4q.8.5 1.3 1.4.4.9.4 2.1t-.4 2.1q-.5.9-1.3 1.4t-1.8.5m0-1.1q.8 0 1.3-.4t.7-1.1q.2-.6.2-1.4 0-.7-.2-1.4-.2-.6-.7-1t-1.3-.4-1.3.4-.7 1q-.2.7-.2 1.4 0 .8.2 1.4.2.7.7 1.1t1.3.4m6.5.9h-1.2v-7.6h1.2v1.4q.1-.5.4-.8.3-.4.8-.6.4-.2.9-.2.9 0 1.4.5.4.4.6 1.1.1-.4.4-.7.3-.4.9-.7.5-.2 1.1-.2t1.2.3q.5.3.9.9.3.5.3 1.4v5.2h-1.2V78q0-.9-.5-1.2-.5-.4-1.1-.4-.5 0-.9.2-.4.3-.6.6-.2.4-.2.9v5h-1.2v-5.3q0-.6-.4-1t-1.1-.4q-.4 0-.8.2-.4.3-.7.7-.2.4-.2 1zm12.3 2.9h-1.3V75.5h1.2v1.2h.2q.1-.2.3-.5.3-.4.7-.6t1.2-.2q.9 0 1.7.4.7.5 1.1 1.4t.4 2.1-.4 2.1-1.1 1.4q-.8.5-1.7.5-.7 0-1.2-.3-.4-.2-.7-.6-.2-.3-.3-.5h-.1zm2.1-3.8q.7 0 1.2-.4t.7-1.1q.3-.6.3-1.4t-.3-1.5q-.2-.6-.7-1-.5-.3-1.2-.3t-1.2.3q-.5.4-.7 1t-.2 1.5q0 .8.2 1.5.3.6.7 1 .5.4 1.2.4m7.4 1.1q-.8 0-1.4-.3t-.9-.8q-.4-.5-.4-1.3 0-.6.3-1 .3-.5.7-.7t1-.3q.5-.2 1-.2.7-.1 1.1-.2.5 0 .7-.1t.2-.4v-.1q0-.4-.2-.8-.2-.3-.5-.5-.4-.2-.9-.2-.6 0-1 .2l-.6.4q-.2.3-.3.6l-1.2-.4q.3-.7.8-1.1t1.1-.6q.6-.1 1.2-.1h.8q.5.1 1 .4.4.3.7.8.3.6.3 1.5v5h-1.2v-1h-.1q-.1.2-.4.5t-.7.5q-.5.2-1.1.2m.2-1.1q.6 0 1.1-.3.5-.2.7-.7.3-.4.3-.9v-1q-.1.1-.3.1l-.6.2q-.3 0-.6.1h-.5q-.5.1-.9.2-.3.1-.6.4-.2.2-.2.7 0 .4.2.6.2.3.6.4.3.2.8.2m6.7.9h-1.2v-7.6h1.2v1.1q.3-.6.8-.9.5-.4 1.2-.4h.4q.1.1.3.1v1.2h-.3q-.2-.1-.5-.1-.5 0-1 .3-.4.2-.6.6-.3.4-.3.9zm5.3 0h-1.3v-7.6h1.3zm-.6-8.9q-.4 0-.6-.2-.3-.3-.3-.6 0-.4.3-.6.2-.2.6-.2.3 0 .6.2.2.2.2.6 0 .3-.2.6-.3.2-.6.2m5.3 9.1q-.8 0-1.4-.3-.6-.2-1-.7-.4-.4-.5-1.1l1.2-.2q.1.6.6.9.4.3 1.1.3.8 0 1.3-.4.5-.3.5-.8 0-.4-.3-.6-.3-.3-.8-.4l-1.3-.3q-1.1-.3-1.6-.8t-.5-1.3q0-.7.4-1.2t1-.8q.6-.2 1.5-.2.7 0 1.3.2.5.2.9.6.3.5.5 1l-1.1.3q-.2-.4-.5-.8-.4-.3-1.1-.3t-1.2.3q-.4.3-.4.8 0 .4.3.7.3.2 1 .4l1.1.3q1.1.2 1.6.7.4.6.4 1.3t-.3 1.2q-.4.6-1.1.9t-1.6.3m7.9 0q-1 0-1.8-.5t-1.2-1.4-.4-2.1.4-2.1 1.2-1.4q.8-.4 1.8-.4 1.1 0 1.9.4.8.5 1.2 1.4t.4 2.1-.4 2.1-1.2 1.4-1.9.5m0-1.1q.8 0 1.3-.4t.7-1.1q.3-.6.3-1.4 0-.7-.3-1.4-.2-.6-.7-1t-1.3-.4q-.7 0-1.2.4t-.8 1q-.2.7-.2 1.4 0 .8.2 1.4.3.7.8 1.1t1.2.4m6.6-3.7v4.6h-1.3v-7.6h1.2v1.4q.3-.8.8-1.1.7-.4 1.5-.4t1.4.3.9.9q.3.7.3 1.6v4.9h-1.2v-4.8q0-.8-.5-1.3-.4-.5-1.2-.5-.6 0-1 .2t-.7.7q-.2.5-.2 1.1"/><defs><clipPath id="a"><path d="M48 112h1104a16 16 0 0 1 16 16v384a16 16 0 0 1-16 16H48a16 16 0 0 1-16-16V128a16 16 0 0 1 16-16"/></clipPath></defs><clipPath id="b"><path d="M48 112h1104a16 16 0 0 1 16 16v384a16 16 0 0 1-16 16H48a16 16 0 0 1-16-16V128a16 16 0 0 1 16-16"/></clipPath><mask id="c"><path fill="#fff" d="M33 113h1134v414H33z"/><path fill="none" stroke="#000" stroke-width="2" d="M36.686 116.686A16 16 0 0 1 48 112h1104a16 16 0 0 1 16 16v384a16 16 0 0 1-16 16H48a16 16 0 0 1-16-16V128a16 16 0 0 1 4.686-11.314"/></mask><path fill="#f8fafc" d="M48 112h1104a16 16 0 0 1 16 16v384a16 16 0 0 1-16 16H48a16 16 0 0 1-16-16V128a16 16 0 0 1 16-16"/><path fill="none" stroke="#e2e8f0" stroke-width="2" d="M36.686 116.686A16 16 0 0 1 48 112h1104a16 16 0 0 1 16 16v384a16 16 0 0 1-16 16H48a16 16 0 0 1-16-16V128a16 16 0 0 1 4.686-11.314" clip-path="url(#a)"/><defs><clipPath id="d" clip-path="url(#b)"><path d="M33 113h1134v51H33z"/></clipPath></defs><path fill="#f1f5f9" d="M33 113h1134v51H33z" clip-path="url(#b)" mask="url(#c)"/><path fill="none" stroke="#e2e8f0" stroke-width="2" d="M1167 164H33" clip-path="url(#d)"/><path fill="#64748b" d="M60.9 142.5q-1 0-1.7-.3-.8-.3-1.2-.9t-.4-1.5h1.5q0 .5.3.8.2.3.6.4.4.2.9.2t.9-.2.7-.4q.2-.3.2-.7 0-.3-.2-.6-.2-.2-.6-.3-.3-.2-.8-.3l-1-.3q-1.1-.2-1.7-.8t-.6-1.5q0-.8.4-1.4.4-.5 1.1-.9.8-.3 1.7-.3t1.6.3q.7.4 1.1.9.4.6.4 1.3h-1.5q0-.5-.5-.8-.4-.4-1.1-.4-.5 0-.9.2-.3.1-.5.4t-.2.6q0 .4.2.6t.6.4q.3.1.7.2l.8.2q.5.1.9.3.5.2.8.5.4.3.6.7t.2 1q0 .8-.3 1.4-.4.5-1.2.9-.7.3-1.8.3m9.1 0q-1.1 0-2-.6-.9-.5-1.5-1.5-.5-1-.5-2.4t.5-2.4q.6-1 1.5-1.5.9-.6 2-.6 1.2 0 2.1.6.9.5 1.4 1.5t.5 2.4-.5 2.4-1.4 1.6q-.9.5-2.1.5m0-1.4q.7 0 1.3-.4.5-.3.8-1t.3-1.7-.3-1.7-.8-1q-.6-.4-1.3-.4t-1.2.4q-.6.3-.9 1t-.3 1.7.3 1.7.9 1q.5.4 1.2.4m11.5 1.3h-5.4v-8.8h1.6v7.4h3.8zm5.5.1q-1 0-1.8-.4t-1.3-1.1q-.4-.7-.4-1.7v-5.7h1.6v5.6q0 .6.2 1t.7.7q.4.2 1 .2t1.1-.2q.4-.3.7-.7.2-.4.2-1v-5.6h1.6v5.7q0 1-.5 1.7-.4.7-1.2 1.1t-1.9.4m8.2-7.5h-2.7v-1.4h7v1.4h-2.7v7.4h-1.6zm6.2-1.4h1.6v8.8h-1.6zm7.7 8.9q-1.1 0-2.1-.6-.9-.5-1.4-1.5t-.5-2.4.5-2.4 1.4-1.5q1-.6 2.1-.6t2.1.6q.9.5 1.4 1.5t.5 2.4-.5 2.4-1.4 1.6q-1 .5-2.1.5m0-1.4q.7 0 1.3-.4.5-.3.8-1t.3-1.7-.3-1.7-.8-1q-.6-.4-1.3-.4t-1.3.4q-.5.3-.8 1t-.3 1.7.3 1.7.8 1q.6.4 1.3.4m7.7 1.3h-1.6v-8.8h1.8l3 4.8q.2.3.4.7t.4.9q.1.2.2.5v-6.9h1.5v8.8h-1.7L118 138l-.4-.8q-.3-.4-.5-.9-.2-.3-.4-.7v.7q0 .6.1 1z" clip-path="url(#b)" mask="url(#c)"/><clipPath id="e" clip-path="url(#b)"><path d="M392 130h16v16h-16z"/></clipPath><mask id="f"><path fill="#fff" d="M392 130h16v16h-16z" mask="url(#c)"/></mask><image width="16" height="16" x="392" y="130" clip-path="url(#e)" href="data:image/svg+xml;utf8,%3Csvg fill=%22none%22 xmlns=%22http://www.w3.org/2000/svg%22 width=%2216%22 height=%2216%22 viewBox=%220 0 24 24%22%3E%3Cpath fill=%22%2364748b%22 fill-rule=%22evenodd%22 clip-rule=%22evenodd%22 d=%22M12 1.5C9.10051 1.5 6.75 3.85051 6.75 6.75V9.75C5.09315 9.75 3.75 11.0931 3.75 12.75V19.5C3.75 21.1569 5.09315 22.5 6.75 22.5H17.25C18.9069 22.5 20.25 21.1569 20.25 19.5V12.75C20.25 11.0931 18.9069 9.75 17.25 9.75V6.75C17.25 3.85051 14.8995 1.5 12 1.5ZM15.75 9.75V6.75C15.75 4.67893 14.0711 3 12 3C9.92893 3 8.25 4.67893 8.25 6.75V9.75H15.75Z%22%3E%3C/path%3E%3C/svg%3E" mask="url(#f)" preserveAspectRatio="none"/><path fill="#64748b" d="M420.6 142.4h-5.7v-8.8h5.7v1.4h-4.2v2.3h3.8v1.3h-3.8v2.4h4.2zm8 0h-5.9v-1.2l3-2.9q.4-.5.7-.8.3-.4.4-.7.2-.3.2-.7t-.2-.7-.5-.4q-.3-.2-.8-.2-.4 0-.7.2-.4.1-.5.5-.2.3-.2.7h-1.5q0-.8.4-1.4t1-.9q.7-.4 1.6-.4.8 0 1.5.3.7.4 1 .9.4.6.4 1.3 0 .5-.2 1t-.6 1q-.5.6-1.4 1.4l-1.5 1.6v.1h3.8zm7.9 0h-5.7v-8.8h5.7v1.4h-4.1v2.3h3.8v1.3h-3.8v2.4h4.1z" clip-path="url(#b)" mask="url(#c)"/><clipPath id="g" clip-path="url(#b)"><path d="M552 129h18v18h-18z"/></clipPath><mask id="h"><path fill="#fff" d="M552 129h18v18h-18z" mask="url(#c)"/></mask><image width="18" height="18" x="552" y="129" clip-path="url(#g)" href="data:image/svg+xml;utf8,%3Csvg fill=%22none%22 stroke=%22%2364748b%22 stroke-width=%222%22 stroke-linecap=%22round%22 stroke-linejoin=%22round%22 xmlns=%22http://www.w3.org/2000/svg%22 width=%2218%22 height=%2218%22 viewBox=%220 0 24 24%22%3E%3Crect x=%222%22 y=%224%22 width=%2212%22 height=%2216%22 rx=%222%22%3E%3C/rect%3E%3Crect x=%2216%22 y=%228%22 width=%226%22 height=%2212%22 rx=%221%22%3E%3C/rect%3E%3C/svg%3E" mask="url(#h)" preserveAspectRatio="none"/><path fill="#64748b" d="M580.6 142.5q-1.1 0-2.1-.6-.9-.5-1.4-1.5t-.5-2.4.5-2.4q.6-1 1.5-1.5.9-.6 2-.6.7 0 1.3.2.7.2 1.2.6.4.4.8 1 .3.5.4 1.2h-1.6q-.1-.4-.3-.7-.1-.2-.4-.5-.3-.2-.6-.3-.4-.1-.8-.1-.7 0-1.2.4-.6.3-.9 1t-.3 1.7.3 1.7.9 1q.5.4 1.2.4.4 0 .8-.1.3-.1.6-.3.3-.3.4-.6.2-.3.3-.6h1.6q-.1.6-.4 1.1-.3.6-.8 1t-1.1.6q-.6.3-1.4.3m7.3-.1h-1.6v-8.8h3.3q1 0 1.7.4.7.3 1 1 .4.6.4 1.4 0 .9-.4 1.5-.3.6-1 .9-.1.1-.2.1l1.9 3.5h-1.8l-1.7-3.2h-1.6zm0-7.5v3h1.5q.5 0 .9-.2t.6-.5.2-.8q0-.4-.2-.8-.2-.3-.6-.5t-1-.2zm10.6 7.6q-1.2 0-2.1-.6-.9-.5-1.4-1.5t-.5-2.4.5-2.4 1.4-1.5q.9-.6 2.1-.6 1.1 0 2 .6.9.5 1.5 1.5.5 1 .5 2.4t-.5 2.4q-.6 1-1.5 1.6-.9.5-2 .5m0-1.4q.7 0 1.2-.4.6-.3.9-1t.3-1.7-.3-1.7-.9-1q-.5-.4-1.2-.4t-1.3.4q-.5.3-.8 1-.4.7-.4 1.7t.4 1.7q.3.7.8 1 .6.4 1.3.4m9.1 1.4q-1 0-1.7-.3-.8-.3-1.2-.9t-.5-1.5h1.6q0 .5.3.8.2.3.6.4.4.2.9.2t.9-.2.7-.4q.2-.3.2-.7 0-.3-.2-.6-.2-.2-.6-.3-.3-.2-.8-.3l-1-.3q-1.1-.2-1.7-.8t-.6-1.5q0-.8.4-1.4.4-.5 1.1-.9.8-.3 1.7-.3t1.6.3q.7.4 1.1.9.4.6.4 1.3h-1.5q-.1-.5-.5-.8-.4-.4-1.1-.4-.5 0-.9.2-.3.1-.5.4t-.2.6q0 .4.2.6t.6.4q.3.1.7.2l.8.2q.5.1.9.3.5.2.8.5.4.3.6.7t.2 1q0 .8-.4 1.4-.3.5-1.1.9-.7.3-1.8.3m8.4 0q-1 0-1.7-.3-.8-.3-1.2-.9t-.4-1.5h1.5q0 .5.3.8.2.3.6.4.4.2.9.2t.9-.2.7-.4q.2-.3.2-.7 0-.3-.2-.6-.2-.2-.6-.3-.3-.2-.8-.3l-1-.3q-1.1-.2-1.7-.8t-.6-1.5q0-.8.4-1.4.4-.5 1.1-.9.8-.3 1.7-.3t1.6.3q.7.4 1.1.9.4.6.4 1.3h-1.5q0-.5-.5-.8-.4-.4-1.1-.4-.5 0-.9.2-.3.1-.5.4t-.2.6q0 .4.2.6t.6.4q.3.1.7.2l.8.2q.5.1.9.3.5.2.8.5.4.3.6.7t.2 1q0 .8-.3 1.4-.4.5-1.2.9-.7.3-1.8.3m5.3-4.4h4v1.3h-4zm7.8 4.3h-1.5v-8.8h3.2q1 0 1.7.4t1.1 1q.3.7.3 1.5 0 .9-.3 1.5-.4.7-1.1 1-.7.4-1.7.4h-1.7zm0-7.5v3.2h1.5q.6 0 1-.2.3-.2.5-.6.2-.3.2-.8 0-.4-.2-.8t-.5-.6q-.4-.2-1-.2zm12.2 7.5h-5.4v-8.8h1.6v7.4h3.8zm3.1 0h-1.7l3.1-8.8h1.9l3.2 8.8h-1.8l-.7-2.2h-3.3zm1.1-3.5h2.5l-.4-1.1q-.2-.7-.5-1.6-.2-.6-.4-1.4-.2.8-.3 1.5l-.5 1.5zm9.4-3.9h-2.7v-1.4h7v1.4h-2.7v7.4h-1.6zm7.8 7.4h-1.6v-8.8h5.6v1.4h-4v2.6h3.6v1.3h-3.6zm9.8.1q-1.1 0-2-.6-.9-.5-1.5-1.5-.5-1-.5-2.4t.5-2.4q.6-1 1.5-1.5.9-.6 2-.6 1.2 0 2.1.6.9.5 1.4 1.5t.5 2.4-.5 2.4-1.4 1.6q-.9.5-2.1.5m0-1.4q.7 0 1.3-.4.5-.3.9-1 .3-.7.3-1.7t-.3-1.7q-.4-.7-.9-1-.6-.4-1.3-.4t-1.2.4q-.6.3-.9 1t-.3 1.7.3 1.7.9 1q.5.4 1.2.4m7.7 1.3h-1.6v-8.8h3.3q1 0 1.7.4.7.3 1 1 .4.6.4 1.4 0 .9-.4 1.5-.3.6-1 .9-.1.1-.2.1l1.9 3.5h-1.8l-1.7-3.2h-1.6zm0-7.5v3h1.5q.5 0 .9-.2t.6-.5.2-.8q0-.4-.2-.8-.2-.3-.6-.5t-1-.2zm8.4 7.5H687v-8.8h2.4l1.7 4.5q0 .3.2.7l.2.8q.1.5.2.9v.1-.1l.2-.8q.2-.5.3-.9t.2-.7l1.6-4.5h2.4v8.8h-1.6v-6.9q.1-.2.1-.4-.1.2-.2.5-.1.4-.3.9-.1.5-.2.8-.1.4-.2.7l-1.6 4.4H691l-1.6-4.4q-.1-.3-.2-.7-.1-.3-.3-.8-.1-.4-.2-.9-.1-.3-.2-.5v.4q0 .4.1.9z" clip-path="url(#b)" mask="url(#c)"/><clipPath id="i" clip-path="url(#b)"><path d="M777 130h16v16h-16z"/></clipPath><mask id="j"><path fill="#fff" d="M777 130h16v16h-16z" mask="url(#c)"/></mask><image width="16" height="16" x="777" y="130" clip-path="url(#i)" href="data:image/svg+xml;utf8,%3Csvg fill=%22none%22 xmlns=%22http://www.w3.org/2000/svg%22 width=%2216%22 height=%2216%22 viewBox=%220 0 24 24%22%3E%3Cpath fill=%22%2364748b%22 d=%22M2.27307 5.62524C3.06638 4.92494 4.10851 4.5 5.24989 4.5H18.7499C19.8913 4.5 20.9334 4.92494 21.7267 5.62524C21.5423 4.14526 20.2798 3 18.7499 3H5.24989C3.71995 3 2.4575 4.14525 2.27307 5.62524Z%22%3E%3C/path%3E%3Cpath fill=%22%2364748b%22 d=%22M2.27307 8.62524C3.06638 7.92494 4.10851 7.5 5.24989 7.5H18.7499C19.8913 7.5 20.9334 7.92494 21.7267 8.62524C21.5423 7.14526 20.2798 6 18.7499 6H5.24989C3.71995 6 2.4575 7.14525 2.27307 8.62524Z%22%3E%3C/path%3E%3Cpath fill=%22%2364748b%22 d=%22M5.25 9C3.59315 9 2.25 10.3431 2.25 12V18C2.25 19.6569 3.59315 21 5.25 21H18.75C20.4069 21 21.75 19.6569 21.75 18V12C21.75 10.3431 20.4069 9 18.75 9H15C14.5858 9 14.25 9.33579 14.25 9.75C14.25 10.9926 13.2426 12 12 12C10.7574 12 9.75 10.9926 9.75 9.75C9.75 9.33579 9.41421 9 9 9H5.25Z%22%3E%3C/path%3E%3C/svg%3E" mask="url(#j)" preserveAspectRatio="none"/><path fill="#64748b" d="M801.4 142.4h-1.5v-8.8h2.3l1.7 4.5q.1.3.2.7l.2.8q.1.5.2.9v.1l.1-.1.2-.8q.1-.5.2-.9t.2-.7l1.6-4.5h2.4v8.8h-1.6v-5.1q0-.4.1-.9v-1.3q-.1.2-.2.5-.1.4-.2.9-.2.5-.3.8-.1.4-.2.7l-1.6 4.4h-1.3l-1.7-4.4q-.1-.3-.2-.7-.1-.3-.2-.8-.2-.4-.3-.9-.1-.3-.1-.5zm13.7.1q-1.1 0-1.9-.4T812 141q-.5-.7-.5-1.7v-5.7h1.6v5.6q0 .6.3 1 .2.4.6.7.5.2 1.1.2t1-.2q.5-.3.7-.7.3-.4.3-1v-5.6h1.5v5.7q0 1-.4 1.7-.5.7-1.3 1.1-.7.4-1.8.4m11.3-.1H821v-8.8h1.5v7.4h3.9zm4.3-7.4H828v-1.4h6.9v1.4h-2.7v7.4h-1.5zm6.2-1.4h1.5v8.8h-1.5zm3.9 4.5h3.9v1.3h-3.9zm9.8 4.3h-1.8l-2.4-8.8h1.7l1.1 4.7.2 1 .2 1.2q.1.1.1.3 0-.2.1-.3l.2-1.2.2-1 1.2-4.7h1.7l1.1 4.7q.2.5.3 1l.2 1.2q0 .1.1.3v-.3l.2-1.2.2-1 1.2-4.7h1.7l-2.4 8.8h-1.8l-1.3-4.9q-.1-.6-.3-1.4 0-.3-.1-.6 0 .3-.1.5-.1.8-.3 1.5zm10.4 0h-1.8l3.1-8.8h2l3.1 8.8h-1.7l-.8-2.2h-3.2zm1.1-3.5h2.4l-.4-1.1q-.2-.7-.4-1.6-.2-.6-.4-1.4-.2.8-.4 1.5-.2.9-.4 1.5zm12.5 3.5h-5.4v-8.8h1.5v7.4h3.9zm7.4 0h-5.5v-8.8h1.6v7.4h3.9zm7.6 0h-5.7v-8.8h5.7v1.4h-4.1v2.3h3.8v1.3h-3.8v2.4h4.1zm4.5-7.4h-2.7v-1.4h7v1.4h-2.7v7.4h-1.6z" clip-path="url(#b)" mask="url(#c)"/><clipPath id="k" clip-path="url(#b)"><path d="M997 130h16v16h-16z"/></clipPath><mask id="l"><path fill="#fff" d="M997 130h16v16h-16z" mask="url(#c)"/></mask><image width="16" height="16" x="997" y="130" clip-path="url(#k)" href="data:image/svg+xml;utf8,%3Csvg fill=%22none%22 xmlns=%22http://www.w3.org/2000/svg%22 width=%2216%22 height=%2216%22 viewBox=%220 0 24 24%22%3E%3Cpath fill=%22%2364748b%22 fill-rule=%22evenodd%22 clip-rule=%22evenodd%22 d=%22M10.5 3.75C7.18629 3.75 4.5 6.43629 4.5 9.75C4.5 9.91685 4.50683 10.0822 4.52024 10.2459C2.73627 11.084 1.5 12.8968 1.5 15C1.5 17.8995 3.85051 20.25 6.75 20.25H18C20.4853 20.25 22.5 18.2353 22.5 15.75C22.5 14.0653 21.5744 12.5981 20.2058 11.827C20.2349 11.6386 20.25 11.4459 20.25 11.25C20.25 9.17893 18.5711 7.5 16.5 7.5C16.3559 7.5 16.2135 7.50816 16.0733 7.52408C15.1893 5.31282 13.028 3.75 10.5 3.75ZM12.5303 9.21967C12.2374 8.92678 11.7626 8.92678 11.4697 9.21967L8.46967 12.2197C8.17678 12.5126 8.17678 12.9874 8.46967 13.2803C8.76256 13.5732 9.23744 13.5732 9.53033 13.2803L11.25 11.5607L11.25 16.5C11.25 16.9142 11.5858 17.25 12 17.25C12.4142 17.25 12.75 16.9142 12.75 16.5V11.5607L14.4697 13.2803C14.7626 13.5732 15.2374 13.5732 15.5303 13.2803C15.8232 12.9874 15.8232 12.5126 15.5303 12.2197L12.5303 9.21967Z%22%3E%3C/path%3E%3C/svg%3E" mask="url(#l)" preserveAspectRatio="none"/><path fill="#64748b" d="M1021.5 142.4h-1.6v-8.8h1.7l3.1 4.8q.2.3.4.7t.4.9q.1.2.2.5V139q-.1-.5-.1-.8v-4.6h1.6v8.8h-1.7l-2.8-4.4q-.2-.4-.5-.8-.2-.4-.4-.9-.2-.3-.4-.7v.7q0 .6.1 1zm11.8.1q-1.1 0-2-.6-.9-.5-1.5-1.5-.5-1-.5-2.4t.5-2.4q.6-1 1.5-1.5.9-.6 2-.6 1.2 0 2.1.6.9.5 1.4 1.5t.5 2.4-.5 2.4-1.4 1.6q-.9.5-2.1.5m0-1.4q.7 0 1.3-.4.5-.3.8-1 .4-.7.4-1.7t-.4-1.7q-.3-.7-.8-1-.6-.4-1.3-.4t-1.2.4q-.6.3-.9 1t-.3 1.7.3 1.7.9 1q.5.4 1.2.4m12.8 1.4q-1 0-1.8-.3-.7-.3-1.1-.9-.5-.6-.5-1.5h1.6q0 .5.2.8.3.3.7.4.4.2.9.2t.9-.2.6-.4q.2-.3.2-.7 0-.3-.2-.6-.2-.2-.5-.3-.4-.2-.8-.3l-1-.3q-1.1-.2-1.7-.8t-.6-1.5q0-.8.4-1.4.4-.5 1.1-.9.7-.3 1.6-.3 1 0 1.7.3.7.4 1.1.9.4.6.4 1.3h-1.5q-.1-.5-.5-.8-.5-.4-1.2-.4-.5 0-.8.2-.4.1-.6.4t-.2.6q0 .4.3.6.2.2.5.4.4.1.7.2l.8.2q.5.1 1 .3.4.2.8.5t.6.7.2 1q0 .8-.4 1.4-.4.5-1.1.9-.8.3-1.8.3m11-.1h-5.7v-8.8h5.7v1.4h-4.1v2.3h3.8v1.3h-3.8v2.4h4.1zm3.8 0h-1.6v-8.8h3.3q1 0 1.7.4.6.3 1 1 .3.6.3 1.4 0 .9-.3 1.5-.4.6-1.1.9 0 .1-.1.1l1.9 3.5h-1.8l-1.7-3.2h-1.6zm0-7.5v3h1.4q.6 0 1-.2t.6-.5q.1-.3.1-.8 0-.4-.1-.8-.2-.3-.6-.5t-1-.2zm11.3 7.5h-1.9l-3.2-8.8h1.8l1.5 4.6.5 1.5.4 1.4q.2-.7.3-1.4l.5-1.5 1.5-4.6h1.7zm10.6 0h-5.7v-8.8h5.6v1.4h-4.1v2.3h3.8v1.3h-3.8v2.4h4.2zm3.7 0h-1.6v-8.8h3.3q1 0 1.7.4.7.3 1 1 .4.6.4 1.4 0 .9-.4 1.5-.3.6-1 .9-.1.1-.2.1l1.9 3.5h-1.8l-1.7-3.2h-1.6zm0-7.5v3h1.5q.6 0 .9-.2.4-.2.6-.5t.2-.8q0-.4-.2-.8-.2-.3-.6-.5-.3-.2-.9-.2z" clip-path="url(#b)" mask="url(#c)"/><defs><clipPath id="m" clip-path="url(#b)"><path d="M57 176h1086a12 12 0 0 1 12 12v54a12 12 0 0 1-12 12H57a12 12 0 0 1-12-12v-54a12 12 0 0 1 12-12"/></clipPath></defs><path fill="#fff" d="M57 176h1086a12 12 0 0 1 12 12v54a12 12 0 0 1-12 12H57a12 12 0 0 1-12-12v-54a12 12 0 0 1 12-12" clip-path="url(#b)" mask="url(#c)"/><path fill="none" stroke="#e2e8f0" stroke-width="2" d="M48.515 179.515A12 12 0 0 1 57 176h1086a12 12 0 0 1 12 12v54a12 12 0 0 1-12 12H57a12 12 0 0 1-12-12v-54a12 12 0 0 1 3.515-8.485" clip-path="url(#m)"/><path fill="#0f172a" d="M69.4 210.8h-2.3v-11.6h4.5q1.3 0 2.3.5.9.5 1.4 1.4t.5 2q0 1.2-.5 2-.5.9-1.5 1.4-.9.5-2.3.5h-2.1zm0-9.7v4h1.8q.7 0 1.2-.3.4-.2.7-.7.2-.4.2-1t-.2-1q-.3-.5-.7-.7-.5-.3-1.3-.3zm10.3 4.7v5h-2.3v-11.6h2.3v4.6q.3-.8.8-1.2.7-.6 1.8-.6.9 0 1.6.4t1.1 1.1q.3.7.3 1.8v5.5H83v-5.1q0-.8-.4-1.3-.5-.5-1.2-.5-.5 0-.9.3-.4.2-.6.6t-.2 1m11.5 5.2q-1.3 0-2.2-.6-1-.5-1.5-1.6-.5-1-.5-2.3 0-1.4.5-2.4t1.5-1.6q.9-.5 2.2-.5 1.4 0 2.3.5 1 .6 1.5 1.6t.5 2.4q0 1.3-.5 2.3-.5 1.1-1.5 1.6-.9.6-2.3.6m0-1.9q.7 0 1.1-.3t.6-1q.2-.6.2-1.3 0-.8-.2-1.4t-.6-.9q-.4-.4-1.1-.4-.6 0-1 .4-.4.3-.6.9t-.2 1.4q0 .7.2 1.3.2.7.6 1t1 .3m9.9 1.9q-1.3 0-2.3-.6-1-.5-1.5-1.5t-.5-2.4.5-2.4 1.5-1.6q.9-.5 2.2-.5.8 0 1.6.3.7.2 1.3.8.5.5.9 1.4.3.8.3 1.9v.7h-6q0 .6.3 1.1.2.5.7.8.4.2 1 .2.4 0 .8-.1.3-.1.5-.3.3-.3.4-.6l2.1.4q-.2.7-.7 1.3-.5.5-1.3.8t-1.8.3m-2-5.4h3.7q0-.4-.2-.8-.2-.5-.6-.8t-1-.3-1 .3q-.5.3-.7.8-.2.3-.2.8m9.9.2v5h-2.3v-8.7h2.2v1.8q.4-.8.9-1.3.7-.6 1.8-.6.9 0 1.6.4t1.1 1.1q.3.7.3 1.8v5.5h-2.3v-5.1q0-.8-.4-1.3t-1.2-.5q-.5 0-.9.3-.4.2-.6.6t-.2 1m10 5h-2.4v-8.7h2.4zm-1.2-9.9q-.5 0-.9-.3-.4-.4-.4-.9t.4-.8q.4-.4.9-.4t.9.4q.4.3.4.8t-.4.9q-.4.3-.9.3m5 9.9h-2.5l2.8-4.5-2.6-4.2h2.5l.8 1.4q.4.6.7 1.3 0 .2.1.4l.2-.4q.3-.7.7-1.3l.8-1.4h2.5l-2.7 4.3 2.8 4.4h-2.5l-1-1.6-.6-1.4q-.1-.1-.2-.3-.1.2-.2.3l-.6 1.4z" clip-path="url(#b)" mask="url(#c)"/><path fill="#e2e8f0" d="M148 195h46a10 10 0 0 1 10 10 10 10 0 0 1-10 10h-46a10 10 0 0 1-10-10 10 10 0 0 1 10-10" clip-path="url(#b)" mask="url(#c)"/><path fill="#64748b" d="M150.6 209.5q-1.1 0-2-.6-.9-.5-1.4-1.5t-.5-2.4.5-2.4 1.4-1.5q.9-.6 2-.6.7 0 1.3.2t1.1.6.8.9q.3.6.4 1.3h-1.4q0-.5-.2-.8t-.5-.5-.7-.4q-.4-.1-.8-.1-.7 0-1.3.4t-1 1.1q-.3.8-.3 1.8 0 1.1.3 1.8.4.7 1 1.1t1.3.4q.4 0 .8-.2.3-.1.6-.3.4-.2.6-.5t.2-.8h1.4q-.1.7-.4 1.2-.3.6-.8 1t-1.1.6-1.3.2m5.1-8.9h1.3v8.8h-1.3zm5.7 8.9q-.9 0-1.6-.4t-1-1.2q-.4-.8-.4-1.8t.4-1.8q.3-.7 1-1.1.7-.5 1.6-.5 1 0 1.7.5.6.4 1 1.1.4.8.4 1.8t-.4 1.8-1 1.2q-.7.4-1.7.4m0-1.1q.6 0 1-.3t.6-.8q.2-.6.2-1.2t-.2-1.1q-.2-.6-.6-.9t-1-.3q-.5 0-.9.3t-.6.9q-.2.5-.2 1.1t.2 1.2q.2.5.6.8t.9.3m6.8 1q-.7 0-1.2-.2-.5-.3-.8-.9-.3-.5-.3-1.3v-4.2h1.3v4q0 .7.4 1.1t1 .4q.5 0 .8-.2t.5-.5q.2-.4.2-.9v-3.9h1.3v6.6h-1.2v-1.3q-.3.6-.7.9-.6.4-1.3.4m7.4.1q-.8 0-1.4-.4t-1-1.2q-.3-.7-.3-1.8t.3-1.8q.4-.8 1-1.2t1.4-.4q.6 0 1 .2.3.2.6.5.2.3.3.5h.1v-3.3h1.2v8.8h-1.2v-1.1h-.1q-.1.3-.3.5-.3.3-.6.5-.4.2-1 .2m.3-1.1q.5 0 .9-.3t.6-.8.2-1.2-.2-1.2-.6-.8-.9-.3q-.6 0-1 .3-.3.3-.5.8-.2.6-.2 1.2t.2 1.2q.2.5.5.8.4.3 1 .3m6.1 1h-1.3v-8.8h1.3v4.6q.1-.2.2-.3l.6-.8q.3-.4.7-.8l2.4-2.7h1.7l-3.4 3.8 3.4 5h-1.5l-2.9-4.1-1.2 1.3zm8.1 0h-1.3v-6.6h1.3zm-.6-7.6q-.4 0-.6-.2t-.2-.5q0-.4.2-.6t.6-.2q.3 0 .6.2.2.2.2.6 0 .3-.2.5-.3.2-.6.2m3.8 1h1.4v1.1h-1.4v3.7q0 .4.2.6t.6.2q.1 0 .2-.1h.3l.2 1q-.2.1-.4.1-.2.1-.5.1-.9 0-1.4-.5-.4-.5-.4-1.3v-3.8h-1v-1.1h1v-1.5h1.2z" clip-path="url(#b)" mask="url(#c)"/><path fill="#64748b" d="M70.5 233.5q-1.1 0-1.8-.4-.8-.4-1.2-1.1t-.4-1.6v-5.8h1.1v5.7q0 .6.2 1.1.3.5.8.8.6.3 1.3.3t1.2-.3.8-.8.3-1.1v-5.7h1.1v5.8q0 .9-.4 1.6-.5.7-1.2 1.1-.8.4-1.8.4m7.6 0q-.7 0-1.2-.2t-.9-.6q-.3-.4-.4-.9l1-.3q.1.6.5.8.4.3 1 .3.7 0 1.1-.3t.4-.7q0-.3-.3-.6-.2-.2-.7-.3l-1.1-.3q-.9-.2-1.3-.6-.4-.5-.4-1.2 0-.5.3-1 .3-.4.8-.6.6-.3 1.3-.3t1.1.2q.5.2.8.6.3.3.4.8l-.9.3q-.1-.4-.5-.7-.3-.3-.9-.3t-1 .3-.4.7q0 .3.3.6.3.2.8.3l1 .3q.9.2 1.3.6.5.4.5 1.1 0 .6-.4 1-.3.5-.9.7-.6.3-1.3.3m6.8 0q-.9 0-1.6-.4t-1.1-1.2q-.3-.7-.3-1.8 0-1 .3-1.7.4-.8 1.1-1.2.6-.5 1.5-.5.5 0 1 .2.6.2 1 .6.4.3.6 1 .3.6.3 1.5v.4h-4.8q.1.7.3 1.1.2.5.7.8t1 .3q.4 0 .8-.1.3-.2.5-.4t.3-.5l1.1.2q-.2.5-.5.9-.4.4-.9.6-.6.2-1.3.2m-2-3.9h3.7q0-.5-.2-.9-.2-.5-.6-.7-.4-.3-1-.3t-1 .3-.6.7-.3.9m8.5 3.9q-.7 0-1.2-.2t-.9-.6q-.3-.4-.4-.9l1-.3q.1.6.5.8.4.3 1 .3.7 0 1.1-.3t.4-.7q0-.3-.2-.6-.3-.2-.8-.3l-1.1-.3q-.8-.2-1.3-.6-.4-.5-.4-1.2 0-.5.3-1 .3-.4.9-.6.5-.3 1.2-.3t1.2.2q.4.2.7.6.3.3.5.8l-1 .3q-.1-.4-.4-.7t-1-.3q-.6 0-1 .3-.3.3-.3.7 0 .3.2.6.3.2.9.3l1 .3q.8.2 1.3.6.4.4.4 1.1 0 .6-.3 1-.4.5-.9.7-.6.3-1.4.3m11.2 0q-1.2 0-2-.6-.9-.5-1.4-1.5t-.5-2.4.5-2.4 1.4-1.5q.8-.6 2-.6.6 0 1.2.2t1.1.6q.4.3.7.9.4.5.5 1.2H105q-.1-.5-.4-.8-.2-.3-.5-.6-.3-.2-.7-.3-.4-.2-.8-.2-.8 0-1.5.4-.6.4-1 1.2-.3.8-.3 1.9t.3 1.9q.4.8 1 1.2.7.4 1.5.4.4 0 .8-.2.4-.1.7-.3.3-.3.5-.6.3-.3.4-.8h1.1q-.1.7-.4 1.2-.4.5-.8.9-.5.4-1.1.6t-1.2.2m5.1-8.9h1v8.8h-1zm5.5 8.9q-.9 0-1.5-.4-.7-.4-1.1-1.2-.3-.8-.3-1.8t.3-1.8q.4-.7 1.1-1.1.6-.5 1.5-.5t1.6.5q.7.4 1.1 1.1.3.8.3 1.8t-.3 1.8q-.4.8-1.1 1.2t-1.6.4m0-.9q.7 0 1.1-.4.5-.3.7-.9.2-.5.2-1.2 0-.6-.2-1.2-.2-.5-.7-.9-.4-.3-1.1-.3-.6 0-1 .3-.5.4-.7.9-.2.6-.2 1.2 0 .7.2 1.2.2.6.7.9.4.4 1 .4m6.8.8q-.7 0-1.2-.2-.5-.3-.8-.8-.2-.6-.2-1.4v-4.2h1v4.1q0 .7.4 1.2.4.4 1.1.4.5 0 .8-.2.4-.2.6-.6t.2-1v-3.9h1.1v6.6h-1v-1.3q-.3.7-.7 1-.6.3-1.3.3m7.3.1q-.8 0-1.4-.4-.7-.4-1-1.2-.4-.7-.4-1.8 0-1 .4-1.8.4-.7 1-1.2.6-.4 1.4-.4.7 0 1 .2.4.3.6.5.2.3.3.5h.1v-3.3h1.1v8.8h-1.1v-1h-.1q-.1.1-.3.4t-.6.5-1 .2m.2-.9q.6 0 1-.4.4-.3.6-.8.2-.6.2-1.3t-.2-1.3q-.2-.5-.6-.8t-1-.3q-.7 0-1.1.3t-.6.9q-.2.5-.2 1.2t.2 1.2q.2.6.6.9.5.4 1.1.4m5.9.8h-1.1v-8.8h1.1v4.6q.2-.1.3-.3.3-.4.6-.7.3-.4.6-.7l2.6-2.9h1.5l-3.5 3.8 3.5 5h-1.3l-3-4.2-1.3 1.3zm7.9 0h-1v-6.6h1zm-.5-7.7q-.3 0-.5-.2t-.2-.5q0-.2.2-.5.2-.2.5-.2t.5.2q.2.3.2.5 0 .3-.2.5t-.5.2m3.6 1.1h1.4v.9h-1.4v4q0 .4.2.6t.6.2h.2q.2 0 .3-.1l.2.9q-.1.1-.3.1h-.5q-.8 0-1.3-.4t-.5-1.3v-4h-.9v-.9h.9v-1.5h1.1zm8.8 6.7q-.9 0-1.6-.4t-1.1-1.2q-.3-.7-.3-1.8 0-1 .3-1.7.4-.8 1-1.2.7-.5 1.6-.5.5 0 1 .2t1 .6q.4.3.6 1 .3.6.3 1.5v.4h-4.8q0 .7.3 1.1.2.5.7.8.4.3 1 .3.4 0 .7-.1.4-.2.6-.4t.3-.5l1.1.2q-.2.5-.6.9-.3.4-.9.6-.5.2-1.2.2m-2-3.9h3.7q-.1-.5-.2-.9-.2-.5-.6-.7-.4-.3-1-.3t-1 .3-.7.7q-.1.4-.2.9m7.3-.2v4h-1v-6.6h1v1.2q.3-.6.7-.9.6-.4 1.3-.4t1.2.3.7.8q.3.6.3 1.4v4.2h-1v-4.1q0-.8-.4-1.2t-1.1-.4q-.5 0-.9.2-.3.2-.6.6-.2.4-.2.9m8.7 4.1q-.9 0-1.5-.4-.7-.4-1.1-1.2t-.4-1.8.4-1.8q.4-.7 1.1-1.1.6-.5 1.5-.5.5 0 .9.2.4.1.8.3.3.2.6.6.2.3.4.7l-1 .3-.2-.4-.4-.4q-.2-.2-.5-.2-.3-.1-.6-.1-.6 0-1.1.3-.4.4-.6.9-.2.6-.2 1.2 0 .7.2 1.2.2.6.6.9.5.4 1.1.4.4 0 .6-.1.3-.1.5-.3.2-.1.4-.4l.2-.4 1 .2q-.1.5-.4.8-.2.4-.6.6-.3.3-.8.4-.4.1-.9.1m5.3-.1h-1.1v-6.6h1v1h.1q.2-.5.7-.8.4-.3 1-.3h.5v1.1h-.2q-.2-.1-.4-.1-.5 0-.8.2-.4.2-.6.6-.2.3-.2.8zm3.3 2.3.3-.9.1.1h.6q.3 0 .5-.3.2-.2.3-.7l.2-.5-2.5-6.6h1.2l1.4 3.9q.2.6.3 1.2.1.3.2.5 0-.2.1-.5l.4-1.2 1.4-3.9h1.1l-2.8 7.5q-.2.6-.5.9t-.7.5q-.3.2-.8.2-.3 0-.5-.1-.2 0-.3-.1m7.9.1h-1v-9h1v1.1h.1q.1-.2.3-.5.2-.2.6-.5.4-.2 1-.2.8 0 1.5.4.6.5.9 1.2.4.8.4 1.8 0 1.1-.4 1.8-.3.8-.9 1.2-.7.4-1.5.4-.6 0-1-.2t-.6-.5-.3-.4h-.1zm1.9-3.2q.6 0 1-.4.4-.3.6-.9.2-.5.2-1.2t-.2-1.2q-.2-.6-.6-.9t-1-.3-1.1.3q-.4.3-.6.8-.2.6-.2 1.3t.2 1.3q.2.5.7.8.4.4 1 .4m5.7-5.8h1.3v.9h-1.3v4q0 .4.1.6.2.2.6.2h.3q.1 0 .3-.1l.2.9q-.2.1-.4.1h-.4q-.8 0-1.3-.4t-.5-1.3v-4h-1v-.9h1v-1.5h1.1zm5.4 6.7q-.9 0-1.6-.4t-1.1-1.2q-.4-.7-.4-1.8 0-1 .4-1.7.4-.8 1-1.2.7-.5 1.6-.5.5 0 1 .2t.9.6q.4.3.7 1 .2.6.2 1.5v.4h-4.7q0 .7.3 1.1.2.5.7.8.4.3 1 .3.4 0 .7-.1l.6-.4q.2-.2.3-.5l1 .2q-.1.5-.5.9-.3.4-.9.6-.5.2-1.2.2m-2-3.9h3.7q-.1-.5-.2-.9-.2-.5-.6-.7-.4-.3-1-.3t-1 .3q-.5.3-.7.7t-.2.9m8.7 3.9q-.8 0-1.4-.4-.7-.4-1-1.2-.4-.7-.4-1.8 0-1 .4-1.8.3-.7 1-1.2.6-.4 1.4-.4.6 0 1 .2.4.3.6.5.2.3.3.5h.1v-3.3h1v8.8h-1v-1h-.1q-.1.1-.3.4t-.6.5-1 .2m.2-.9q.6 0 1-.4.4-.3.6-.8.2-.6.2-1.3t-.2-1.3q-.2-.5-.6-.8t-1-.3q-.7 0-1.1.3t-.6.9q-.2.5-.2 1.2t.2 1.2q.2.6.6.9.5.4 1.1.4m8.6.8h-1.3l-3.2-8.8h1.1l1.9 5.2q.1.5.4 1.2.2.6.4 1.5l.5-1.5q.2-.7.4-1.2l1.8-5.2h1.1zm6.2.1q-.6 0-1.1-.2-.5-.3-.8-.7-.3-.5-.3-1.1t.2-.9q.2-.4.6-.6t.8-.3q.5-.1.9-.1.6-.1 1-.1.3-.1.5-.2t.2-.3v-.1q0-.4-.1-.7-.2-.2-.5-.4-.3-.1-.8-.1-.4 0-.8.1-.3.2-.5.4t-.3.4l-1-.3q.2-.6.6-.9.5-.4 1-.5.5-.2 1-.2.3 0 .8.1.4.1.8.3.4.3.6.7.3.5.3 1.2v4.4h-1.1v-.9l-.4.4q-.2.3-.6.5-.4.1-1 .1m.2-.9q.6 0 1-.2.4-.3.6-.6.2-.4.2-.8v-.9q-.1.1-.3.1-.2.1-.5.1-.2.1-.5.1t-.4.1q-.4 0-.7.1-.4.1-.6.4-.2.2-.2.6 0 .3.2.5.2.3.5.4t.7.1m4.7-8h1.1v8.8h-1.1zm5.1 8.8q-.6 0-1.1-.2-.5-.3-.8-.8-.3-.6-.3-1.4v-4.2h1.1v4.1q0 .7.4 1.2.4.4 1.1.4.4 0 .8-.2t.6-.6.2-1v-3.9h1.1v6.6h-1.1v-1.3q-.2.7-.7 1t-1.3.3m7.7.1q-1 0-1.7-.4t-1-1.2q-.4-.7-.4-1.8 0-1 .4-1.7.3-.8 1-1.2.7-.5 1.5-.5.6 0 1.1.2t.9.6q.4.3.7 1 .2.6.2 1.5v.4h-4.7q0 .7.2 1.1.3.5.7.8.5.3 1.1.3.4 0 .7-.1.3-.2.5-.4.3-.2.4-.5l1 .2q-.2.5-.5.9-.4.4-.9.6-.6.2-1.2.2m-2-3.9h3.6q0-.5-.2-.9-.2-.5-.6-.7-.4-.3-1-.3-.5 0-1 .3-.4.3-.6.7t-.2.9m8.4 3.9q-.6 0-1.2-.2-.5-.2-.8-.6-.4-.4-.5-.9l1-.3q.2.6.5.8.4.3 1 .3.7 0 1.1-.3t.4-.7q0-.3-.2-.6-.2-.2-.7-.3l-1.1-.3q-.9-.2-1.3-.6-.5-.5-.5-1.2 0-.5.3-1 .3-.4.9-.6.5-.3 1.2-.3t1.2.2.8.6q.3.3.4.8l-1 .3q-.1-.4-.4-.7t-1-.3q-.5 0-.9.3t-.4.7q0 .3.2.6.3.2.9.3l1 .3q.9.2 1.3.6t.4 1.1q0 .6-.3 1-.3.5-.9.7-.6.3-1.4.3" clip-path="url(#b)" mask="url(#c)"/><clipPath id="n" clip-path="url(#b)"><path d="M395 205h20v20h-20z"/></clipPath><mask id="o"><path fill="#fff" d="M395 205h20v20h-20z" mask="url(#c)"/></mask><image width="20" height="20" x="395" y="205" clip-path="url(#n)" href="data:image/svg+xml;utf8,%3Csvg fill=%22none%22 xmlns=%22http://www.w3.org/2000/svg%22 width=%2220%22 height=%2220%22 viewBox=%220 0 20 20%22%3E%3Ccircle cx=%2210%22 cy=%2210%22 r=%2210%22 fill=%22%23f59e0b%22 fill-opacity=%220.15%22%3E%3C/circle%3E%3Cpath d=%22M6 10H14%22 stroke=%22%23f59e0b%22 stroke-width=%222%22 stroke-linecap=%22round%22%3E%3C/path%3E%3C/svg%3E" mask="url(#o)" preserveAspectRatio="none"/><clipPath id="p" clip-path="url(#b)"><path d="M602 205h20v20h-20z"/></clipPath><mask id="q"><path fill="#fff" d="M602 205h20v20h-20z" mask="url(#c)"/></mask><image width="20" height="20" x="602" y="205" clip-path="url(#p)" href="data:image/svg+xml;utf8,%3Csvg fill=%22none%22 xmlns=%22http://www.w3.org/2000/svg%22 width=%2220%22 height=%2220%22 viewBox=%220 0 20 20%22%3E%3Ccircle cx=%2210%22 cy=%2210%22 r=%2210%22 fill=%22%23ef4444%22 fill-opacity=%220.15%22%3E%3C/circle%3E%3Cpath d=%22M7 7L13 13M13 7L7 13%22 stroke=%22%23ef4444%22 stroke-width=%222%22 stroke-linecap=%22round%22%3E%3C/path%3E%3C/svg%3E" mask="url(#q)" preserveAspectRatio="none"/><clipPath id="r" clip-path="url(#b)"><path d="M819 205h20v20h-20z"/></clipPath><mask id="s"><path fill="#fff" d="M819 205h20v20h-20z" mask="url(#c)"/></mask><image width="20" height="20" x="819" y="205" clip-path="url(#r)" href="data:image/svg+xml;utf8,%3Csvg fill=%22none%22 xmlns=%22http://www.w3.org/2000/svg%22 width=%2220%22 height=%2220%22 viewBox=%220 0 20 20%22%3E%3Ccircle cx=%2210%22 cy=%2210%22 r=%2210%22 fill=%22%2310b981%22 fill-opacity=%220.15%22%3E%3C/circle%3E%3Cpath d=%22M6 10.5L8.5 13L14 7%22 stroke=%22%2310b981%22 stroke-width=%222%22 stroke-linecap=%22round%22 stroke-linejoin=%22round%22%3E%3C/path%3E%3C/svg%3E" mask="url(#s)" preserveAspectRatio="none"/><clipPath id="t" clip-path="url(#b)"><path d="M1026 205h20v20h-20z"/></clipPath><mask id="u"><path fill="#fff" d="M1026 205h20v20h-20z" mask="url(#c)"/></mask><image width="20" height="20" x="1026" y="205" clip-path="url(#t)" href="data:image/svg+xml;utf8,%3Csvg fill=%22none%22 xmlns=%22http://www.w3.org/2000/svg%22 width=%2220%22 height=%2220%22 viewBox=%220 0 20 20%22%3E%3Ccircle cx=%2210%22 cy=%2210%22 r=%2210%22 fill=%22%2310b981%22 fill-opacity=%220.15%22%3E%3C/circle%3E%3Cpath d=%22M6 10.5L8.5 13L14 7%22 stroke=%22%2310b981%22 stroke-width=%222%22 stroke-linecap=%22round%22 stroke-linejoin=%22round%22%3E%3C/path%3E%3C/svg%3E" mask="url(#u)" preserveAspectRatio="none"/><defs><clipPath id="v" clip-path="url(#b)"><path d="M57 262h1086a12 12 0 0 1 12 12v54a12 12 0 0 1-12 12H57a12 12 0 0 1-12-12v-54a12 12 0 0 1 12-12"/></clipPath></defs><path fill="#fff" d="M57 262h1086a12 12 0 0 1 12 12v54a12 12 0 0 1-12 12H57a12 12 0 0 1-12-12v-54a12 12 0 0 1 12-12" clip-path="url(#b)" mask="url(#c)"/><path fill="none" stroke="#e2e8f0" stroke-width="2" d="M48.515 265.515A12 12 0 0 1 57 262h1086a12 12 0 0 1 12 12v54a12 12 0 0 1-12 12H57a12 12 0 0 1-12-12v-54a12 12 0 0 1 3.515-8.485" clip-path="url(#v)"/><path fill="#0f172a" d="M69.4 296.8h-2.3v-11.6h2.3v5.8q.1-.1.1-.2.4-.5.8-1.1.4-.5.9-1.2l2.9-3.3H77l-4.4 5 4.5 6.6h-2.8l-3.3-5-1.6 1.7zm11.5 0h-2.4v-8.7h2.3v1.5h.1q.2-.8.8-1.2.5-.4 1.3-.4h.7v2.1h-.4q-.3-.1-.6-.1-.5 0-.9.3-.5.2-.7.6t-.2 1zm6.6.2q-.9 0-1.5-.3-.7-.3-1.1-.9-.3-.6-.3-1.4t.2-1.2q.3-.5.8-.8.4-.3 1-.5.6-.1 1.3-.2t1.2-.1q.4-.1.7-.3.2-.1.2-.4 0-.4-.2-.7-.1-.2-.5-.4-.3-.1-.7-.1-.5 0-.8.1-.3.2-.5.4t-.3.5l-2.2-.3q.2-.8.8-1.3.5-.6 1.3-.8.7-.3 1.7-.3.7 0 1.4.1.6.2 1.2.6.5.3.8.9.3.5.3 1.3v5.9h-2.2v-1.2H90q-.2.4-.5.7-.4.3-.9.5t-1.1.2m.6-1.7q.6 0 1-.2t.7-.6q.2-.3.2-.8v-.9q-.1 0-.3.1t-.5.1-.5.1h-.4q-.5.1-.8.3-.3.1-.5.3-.2.3-.2.6t.2.6q.1.2.4.3t.7.1m8.6 1.5h-2.4v-11.6h2.4v6.2h.1l2.8-3.3h2.8l-3.3 3.8 3.4 4.9h-2.7l-2.5-3.5-.6.7zm10.8.2q-1.3 0-2.3-.6-.9-.5-1.5-1.5-.5-1-.5-2.4t.5-2.4q.6-1 1.5-1.6.9-.5 2.2-.5.9 0 1.6.3.8.2 1.3.8.6.5.9 1.4.3.8.3 1.9v.7h-6q.1.6.3 1.1.3.5.7.8.5.2 1.1.2.4 0 .7-.1.4-.1.6-.3l.4-.6 2.1.4q-.2.7-.7 1.3-.6.5-1.4.8-.7.3-1.8.3m-1.9-5.4h3.7l-.2-.8q-.2-.5-.6-.8-.5-.3-1.1-.3t-1 .3-.6.8q-.2.3-.2.8m9.9.2v5h-2.4v-8.7h2.2l.1 1.8q.3-.8.9-1.3.7-.6 1.8-.6.9 0 1.6.4.6.4 1 1.1t.4 1.8v5.5h-2.4v-5.1q0-.8-.4-1.3t-1.1-.5q-.5 0-.9.3-.4.2-.6.6t-.2 1" clip-path="url(#b)" mask="url(#c)"/><path fill="#e2e8f0" d="M141 281h51a10 10 0 0 1 10 10 10 10 0 0 1-10 10h-51a10 10 0 0 1-10-10 10 10 0 0 1 10-10" clip-path="url(#b)" mask="url(#c)"/><path fill="#64748b" d="M139.9 286.6h1.3v8.8h-1.3zm4.8 8.9q-.6 0-1.1-.2-.5-.3-.8-.7t-.3-1.1q0-.5.2-.9t.6-.6.8-.3q.5-.1.9-.1.6-.1 1-.2.3 0 .5-.1t.2-.3v-.1q0-.3-.2-.6-.1-.2-.4-.4-.3-.1-.7-.1t-.7.1-.5.4q-.2.2-.3.4l-1.2-.3q.2-.6.6-1 .5-.3 1-.5t1.1-.2q.4 0 .8.1.5.1.9.4.4.2.6.7.3.4.3 1.1v4.4h-1.3v-.9q-.2.2-.4.5-.3.2-.7.4-.3.1-.9.1m.3-1q.5 0 .9-.2t.6-.6q.2-.3.2-.7v-.8q-.1 0-.3.1-.2 0-.4.1-.3 0-.5.1h-.4q-.4.1-.7.2t-.4.3q-.2.2-.2.5t.1.6q.2.2.5.3.2.1.6.1m6 .9h-1.3v-6.6h1.3v1.1q.2-.6.7-.9.4-.3 1-.3h.3q.1 0 .2.1v1.2l-.2-.1h-.4q-.5 0-.8.2-.4.2-.6.5-.2.4-.2.8zm6.1 2.6q-.8 0-1.3-.2-.6-.2-.9-.6-.4-.3-.6-.7l1.1-.5q.1.2.3.4t.5.4q.4.1.9.1.7 0 1.2-.3.5-.4.5-1.1v-1.3h-.1l-.4.4q-.2.3-.6.5-.3.2-.9.2-.8 0-1.4-.4t-1-1.1-.4-1.7q0-1.1.4-1.8.4-.8 1-1.2t1.4-.4q.6 0 1 .2t.6.5.3.5h.1v-1.1h1.2v6.7q0 .8-.3 1.4-.4.5-1.1.8t-1.5.3m0-3.8q.5 0 .9-.3.4-.2.6-.7t.2-1.2q0-.6-.2-1.1t-.6-.8-.9-.3q-.6 0-1 .3t-.5.8q-.2.5-.2 1.1 0 .7.2 1.2.1.5.5.7.4.3 1 .3m7.5 1.3q-1 0-1.7-.4t-1-1.2q-.4-.7-.4-1.8 0-1 .3-1.7.4-.8 1.1-1.2.7-.5 1.6-.5.6 0 1.1.2t.9.6.7 1q.2.6.2 1.5v.5h-4.6q0 .6.2 1 .2.5.7.7.4.2.9.2.4 0 .7-.1t.5-.3.3-.5l1.2.3q-.1.5-.5.9t-.9.6q-.6.2-1.3.2m-1.8-4h3.3q0-.4-.1-.7-.2-.5-.6-.7-.4-.3-.9-.3-.6 0-.9.3-.4.2-.6.7-.2.3-.2.7m9.5 3.9h-3.4v-8.8h3.2q1 0 1.6.3t.9.9q.3.5.3 1.1t-.2.9q-.2.4-.5.6-.4.3-.8.4v.1q.5 0 .9.2.4.3.7.8.2.4.2 1.1t-.3 1.2-.9.9q-.7.3-1.7.3m-2-4v2.8h1.9q.9 0 1.3-.3.4-.4.4-.9t-.2-.8q-.2-.4-.6-.6t-.9-.2zm0-3.6v2.6h1.7q.5 0 .8-.2.4-.1.6-.4t.2-.8-.4-.9q-.4-.3-1.1-.3zm6.4-1.2h1.3v8.8h-1.3zm5.8 8.9q-.9 0-1.6-.4t-1.1-1.2-.4-1.8.4-1.8q.4-.7 1.1-1.1.7-.5 1.6-.5t1.6.5q.7.4 1.1 1.1.4.8.4 1.8t-.4 1.8-1.1 1.2-1.6.4m0-1.1q.6 0 1-.3t.6-.8q.1-.6.1-1.2t-.1-1.1q-.2-.6-.6-.9t-1-.3-1 .3-.6.9q-.2.5-.2 1.1t.2 1.2q.2.5.6.8t1 .3m7.7 1.1q-.6 0-.9-.2-.4-.2-.6-.5-.2-.2-.4-.5h-.1v1.1H187v-8.8h1.3v3.3q.2-.2.4-.5t.5-.5q.4-.2 1-.2.8 0 1.4.4.7.4 1 1.2.4.7.4 1.8t-.4 1.8q-.3.8-1 1.2-.6.4-1.4.4m-.3-1.1q.6 0 1-.3t.6-.8q.2-.6.2-1.2t-.2-1.2q-.2-.5-.6-.8t-1-.3q-.5 0-.9.3t-.6.8-.2 1.2.2 1.2.6.8.9.3" clip-path="url(#b)" mask="url(#c)"/><path fill="#64748b" d="M69.8 319.5q-.9 0-1.6-.3t-1.1-.8q-.4-.6-.4-1.3h1.1q.1.5.4.8.2.3.7.5.4.1.9.1.6 0 1.1-.2t.8-.5q.2-.4.2-.8 0-.5-.2-.7-.2-.3-.6-.5-.4-.1-.9-.2l-1-.3q-1.1-.3-1.7-.9t-.6-1.4.4-1.3q.4-.6 1.1-.9t1.5-.3q.9 0 1.5.3.7.3 1.1.9.4.5.4 1.1h-1.1q-.1-.6-.6-.9-.5-.4-1.3-.4-.6 0-1 .2t-.7.5q-.2.3-.2.7 0 .5.3.8.3.2.7.4.4.1.7.2l.8.3.8.2q.4.2.8.5.4.2.7.7.2.4.2 1 0 .7-.4 1.3-.3.5-1 .9-.7.3-1.8.3m6.1-6.7h1.3v.9h-1.3v4q0 .4.1.6.2.2.6.2h.3q.1 0 .3-.1l.2.9q-.2.1-.4.1h-.4q-.8 0-1.3-.4t-.5-1.3v-4h-1v-.9h1v-1.5h1.1zm5.3 6.7q-.9 0-1.5-.4-.7-.4-1.1-1.2t-.4-1.8.4-1.8q.4-.7 1.1-1.1.6-.5 1.5-.5t1.6.5q.7.4 1 1.1.4.8.4 1.8t-.4 1.8q-.3.8-1 1.2t-1.6.4m0-.9q.7 0 1.1-.4.4-.3.6-.9.2-.5.2-1.2 0-.6-.2-1.2-.2-.5-.6-.9-.4-.3-1.1-.3-.6 0-1.1.3-.4.4-.6.9-.2.6-.2 1.2 0 .7.2 1.2.2.6.6.9.5.4 1.1.4m5.6.8h-1.1v-6.6h1.1v1q.2-.5.7-.8.4-.3 1-.3h.6v1.1h-.3q-.2-.1-.4-.1-.4 0-.8.2t-.6.6q-.2.3-.2.8zm6.2.1q-.9 0-1.6-.4t-1.1-1.2q-.4-.7-.4-1.8 0-1 .4-1.7.4-.8 1-1.2.7-.5 1.6-.5.5 0 1 .2t.9.6q.5.3.7 1 .2.6.2 1.5v.4H91q0 .7.3 1.1.2.5.7.8.4.3 1 .3.4 0 .7-.1l.6-.4q.2-.2.3-.5l1 .2q-.1.5-.5.9-.3.4-.9.6-.5.2-1.2.2m-2-3.9h3.7q-.1-.5-.2-.9-.2-.5-.6-.7-.4-.3-1-.3t-1 .3-.7.7q-.2.4-.2.9m8.5 3.9q-.7 0-1.2-.2t-.9-.6q-.3-.4-.4-.9l1-.3q.1.6.5.8.4.3 1 .3.7 0 1.1-.3t.4-.7q0-.3-.3-.6-.2-.2-.7-.3l-1.1-.3q-.9-.2-1.3-.6-.4-.5-.4-1.2 0-.5.3-1 .3-.4.8-.6.6-.3 1.3-.3t1.1.2q.5.2.8.6.3.3.4.8l-.9.3q-.1-.4-.5-.7-.3-.3-.9-.3t-1 .3-.4.7q0 .3.3.6.3.2.8.3l1 .3q.9.2 1.3.6.5.4.5 1.1 0 .6-.4 1-.3.5-.9.7-.5.3-1.3.3m9.7 0q-.7 0-1.2-.2t-.9-.6q-.3-.4-.4-.9l1-.3q.1.6.5.8.4.3 1 .3.7 0 1.1-.3t.4-.7q0-.3-.3-.6-.2-.2-.7-.3l-1.1-.3q-.9-.2-1.3-.6-.4-.5-.4-1.2 0-.5.3-1 .3-.4.9-.6.5-.3 1.2-.3t1.1.2q.5.2.8.6.3.3.5.8l-1 .3q-.1-.4-.4-.7-.4-.3-1-.3t-1 .3-.4.7q0 .3.3.6.3.2.8.3l1 .3q.9.2 1.4.6.4.4.4 1.1 0 .6-.3 1-.4.5-1 .7-.5.3-1.3.3m6.9 0q-1 0-1.7-.4t-1-1.2q-.4-.7-.4-1.8 0-1 .3-1.7.4-.8 1.1-1.2.6-.5 1.5-.5.6 0 1.1.2t.9.6q.4.3.6 1 .3.6.3 1.5v.4h-4.7q0 .7.2 1.1.3.5.7.8.5.3 1.1.3.3 0 .7-.1.3-.2.5-.4t.4-.5l1 .2q-.2.5-.5.9-.4.4-.9.6-.6.2-1.2.2m-2-3.9h3.6q0-.5-.2-.9-.2-.5-.6-.7-.4-.3-1-.3t-1 .3-.6.7-.2.9m9 3.9q-1 0-1.7-.4t-1-1.2q-.4-.7-.4-1.8 0-1 .3-1.7.4-.8 1.1-1.2.6-.5 1.5-.5.6 0 1.1.2t.9.6q.4.3.6 1 .3.6.3 1.5v.4H121q.1.7.3 1.1.3.5.7.8.5.3 1.1.3.3 0 .7-.1.3-.2.5-.4t.4-.5l1 .2q-.2.5-.5.9-.4.4-.9.6-.6.2-1.2.2m-2-3.9h3.6q0-.5-.2-.9-.2-.5-.6-.7-.4-.3-1-.3t-1 .3-.6.7-.2.9m8.7 3.9q-.9 0-1.5-.4t-1-1.2q-.3-.7-.3-1.8 0-1 .3-1.8.4-.7 1-1.2.6-.4 1.5-.4.6 0 1 .2l.5.5q.2.3.4.5v-3.3h1.1v8.8h-1v-1h-.1q-.2.1-.4.4t-.5.5q-.4.2-1 .2m.1-.9q.6 0 1-.4.4-.3.6-.8.2-.6.2-1.3t-.2-1.3q-.2-.5-.6-.8t-1-.3-1 .3-.6.9q-.2.5-.2 1.2t.2 1.2q.2.6.6.9.4.4 1 .4m9.2.8H138v-6.6h1.1zm-.5-7.7q-.3 0-.6-.2-.2-.2-.2-.5 0-.2.2-.5.3-.2.6-.2t.5.2q.2.3.2.5 0 .3-.2.5t-.5.2m3.4 3.7v4h-1.1v-6.6h1v1.2q.3-.6.8-.9.5-.4 1.2-.4t1.2.3.8.8q.3.6.3 1.4v4.2h-1.1v-4.1q0-.8-.4-1.2t-1.1-.4q-.4 0-.8.2t-.6.6-.2.9m10.4 6.4h-1v-9h1v1.1h.1q.1-.2.3-.5.2-.2.6-.5.4-.2 1-.2.8 0 1.5.4.6.5.9 1.2.4.8.4 1.8 0 1.1-.4 1.8-.3.8-.9 1.2t-1.5.4q-.6 0-1-.2t-.6-.5-.3-.4h-.1zm1.9-3.2q.6 0 1-.4.4-.3.6-.9.2-.5.2-1.2t-.2-1.2q-.2-.6-.6-.9t-1-.3-1 .3q-.5.3-.7.8-.2.6-.2 1.3t.2 1.3q.3.5.7.8.4.4 1 .4m6.3.9q-.7 0-1.2-.2-.5-.3-.8-.7-.3-.5-.3-1.1t.3-.9q.2-.4.6-.6.3-.2.8-.3.4-.1.9-.1.6-.1.9-.1.4-.1.6-.2t.2-.3v-.1q0-.4-.2-.7-.1-.2-.4-.4-.3-.1-.8-.1t-.8.1q-.3.2-.5.4-.3.2-.4.4l-1-.3q.3-.6.7-.9.4-.4.9-.5.6-.2 1.1-.2.3 0 .7.1t.8.3q.4.3.7.7.2.5.2 1.2v4.4h-1v-.9h-.1q-.1.2-.3.4-.3.3-.7.5-.4.1-.9.1m.2-.9q.5 0 .9-.2.4-.3.7-.6.2-.4.2-.8v-.9q-.1.1-.3.1-.2.1-.5.1-.3.1-.5.1-.3 0-.5.1-.3 0-.7.1-.3.1-.5.4-.2.2-.2.6 0 .3.2.5.2.3.5.4t.7.1m6.9.9q-.7 0-1.2-.2t-.9-.6q-.3-.4-.4-.9l1-.3q.1.6.5.8.4.3 1 .3.7 0 1.1-.3t.4-.7q0-.3-.2-.6-.3-.2-.8-.3l-1.1-.3q-.9-.2-1.3-.6-.4-.5-.4-1.2 0-.5.3-1 .3-.4.9-.6.5-.3 1.2-.3t1.2.2q.4.2.7.6.3.3.5.8l-1 .3q-.1-.4-.4-.7-.4-.3-1-.3t-1 .3-.4.7q0 .3.3.6.3.2.8.3l1 .3q.9.2 1.4.6.4.4.4 1.1 0 .6-.3 1-.4.5-.9.7-.6.3-1.4.3m6.3 0q-.6 0-1.2-.2-.5-.2-.8-.6-.4-.4-.5-.9l1-.3q.2.6.5.8.4.3 1 .3.7 0 1.1-.3t.4-.7q0-.3-.2-.6-.3-.2-.7-.3l-1.1-.3q-.9-.2-1.4-.6-.4-.5-.4-1.2 0-.5.3-1 .3-.4.9-.6.5-.3 1.2-.3t1.2.2.8.6q.2.3.4.8l-1 .3q-.1-.4-.4-.7t-1-.3q-.5 0-.9.3t-.4.7q0 .3.2.6.3.2.9.3l1 .3q.9.2 1.3.6t.4 1.1q0 .6-.3 1-.3.5-.9.7-.6.3-1.4.3m5.2-.1h-1.1v-8.8h1.1v5.1h.1l2.8-2.9h1.3l-2.7 2.8 2.9 3.8h-1.3l-2.4-3.1-.7.7zm8.3.1q-1 0-1.7-.4-.6-.4-1-1.2-.4-.7-.4-1.8 0-1 .4-1.7.3-.8 1-1.2.7-.5 1.6-.5.5 0 1 .2t.9.6q.4.3.7 1 .2.6.2 1.5v.4h-4.7q0 .7.2 1.1.3.5.7.8.5.3 1.1.3.4 0 .7-.1.3-.2.5-.4.3-.2.4-.5l1 .2q-.1.5-.5.9t-.9.6-1.2.2m-2-3.9h3.6q0-.5-.1-.9-.3-.5-.7-.7-.3-.3-.9-.3t-1.1.3q-.4.3-.6.7t-.2.9m6.1 6.1.3-.9.1.1h.6q.2 0 .5-.3.2-.2.3-.7l.2-.5-2.5-6.6h1.2l1.4 3.9q.2.6.3 1.2.1.3.2.5 0-.2.1-.5l.4-1.2 1.4-3.9h1.1l-2.9 7.5q-.1.6-.4.9t-.7.5q-.3.2-.8.2-.3 0-.5-.1-.2 0-.3-.1m11.3-2.3h-1.1v-6.6h1.1v1.2q.1-.3.3-.6.3-.4.7-.5.4-.2.8-.2.7 0 1.2.4.3.4.5.9.1-.3.3-.6.3-.3.8-.5.4-.2.9-.2.6 0 1.1.2.4.3.7.8t.3 1.2v4.5h-1.1V315q0-.7-.3-1-.4-.3-1-.3-.4 0-.7.1-.4.2-.5.5-.2.4-.2.8v4.3h-1.1v-4.5q0-.6-.3-.9-.4-.3-.9-.3-.4 0-.8.1-.3.2-.5.6-.2.3-.2.8zm12.2.1q-.9 0-1.6-.4t-1.1-1.2q-.4-.7-.4-1.8 0-1 .4-1.7.4-.8 1-1.2.7-.5 1.6-.5.5 0 1 .2t.9.6q.4.3.7 1 .2.6.2 1.5v.4h-4.7q0 .7.3 1.1.2.5.7.8.4.3 1 .3.4 0 .7-.1l.6-.4q.2-.2.3-.5l1 .2q-.1.5-.5.9-.3.4-.9.6-.5.2-1.2.2m-2-3.9h3.7q-.1-.5-.2-.9-.2-.5-.6-.7-.4-.3-1-.3t-1 .3-.7.7q-.2.4-.2.9m7.5-2.8h1.3v.9h-1.3v4q0 .4.2.6.1.2.6.2h.2q.2 0 .3-.1l.2.9q-.2.1-.4.1h-.4q-.8 0-1.3-.4t-.5-1.3v-4h-1v-.9h1v-1.5h1.1zm4.5 6.7q-.6 0-1.1-.2-.5-.3-.8-.7-.3-.5-.3-1.1t.2-.9q.2-.4.6-.6t.8-.3q.5-.1.9-.1.6-.1 1-.1.4-.1.5-.2.2-.1.2-.3v-.1q0-.4-.1-.7-.2-.2-.5-.4-.3-.1-.8-.1-.4 0-.8.1-.3.2-.5.4t-.3.4l-1-.3q.2-.6.6-.9.5-.4 1-.5.5-.2 1-.2.3 0 .8.1.4.1.8.3.4.3.6.7.3.5.3 1.2v4.4h-1.1v-.9l-.4.4q-.2.3-.6.5-.4.1-1 .1m.2-.9q.6 0 1-.2.4-.3.6-.6.2-.4.2-.8v-.9q-.1.1-.3.1-.2.1-.5.1-.2.1-.5.1t-.4.1q-.4 0-.7.1-.4.1-.6.4-.2.2-.2.6 0 .3.2.5.2.3.5.4t.7.1m7.2.9q-.8 0-1.5-.4-.6-.4-.9-1.2-.4-.7-.4-1.8 0-1 .4-1.8.3-.7.9-1.2.7-.4 1.5-.4.6 0 1 .2.4.3.6.5.2.3.3.5h.1v-3.3h1v8.8h-1v-1h-.1q-.1.1-.3.4t-.6.5-1 .2m.1-.9q.6 0 1-.4.4-.3.7-.8.2-.6.2-1.3t-.2-1.3q-.2-.5-.7-.8-.4-.3-1-.3t-1 .3-.6.9q-.2.5-.2 1.2t.2 1.2q.2.6.6.9.4.4 1 .4m6.6.9q-.6 0-1.1-.2-.5-.3-.8-.7-.3-.5-.3-1.1t.2-.9q.2-.4.6-.6t.8-.3q.5-.1.9-.1.6-.1 1-.1.3-.1.5-.2t.2-.3v-.1q0-.4-.2-.7-.1-.2-.4-.4-.3-.1-.8-.1-.4 0-.8.1-.3.2-.5.4t-.3.4l-1-.3q.2-.6.6-.9.5-.4 1-.5.5-.2 1-.2.3 0 .7.1.5.1.9.3.3.3.6.7.3.5.3 1.2v4.4h-1.1v-.9h-.1q-.1.2-.3.4-.3.3-.7.5-.3.1-.9.1m.2-.9q.6 0 1-.2.4-.3.6-.6.2-.4.2-.8v-.9q-.1.1-.3.1-.2.1-.5.1-.3.1-.5.1-.3 0-.4.1-.4 0-.7.1-.4.1-.6.4-.2.2-.2.6 0 .3.2.5.2.3.5.4t.7.1m5.9-5.8h1.4v.9h-1.4v4q0 .4.2.6t.6.2h.3q.1 0 .2-.1l.3.9q-.2.1-.4.1h-.4q-.9 0-1.3-.4-.5-.4-.5-1.3v-4h-1v-.9h1v-1.5h1zm4.6 6.7q-.7 0-1.2-.2-.5-.3-.8-.7-.3-.5-.3-1.1t.3-.9q.2-.4.5-.6.4-.2.9-.3.4-.1.9-.1.6-.1.9-.1.4-.1.6-.2t.2-.3v-.1q0-.4-.2-.7-.1-.2-.4-.4-.4-.1-.8-.1-.5 0-.8.1l-.6.4q-.2.2-.3.4l-1-.3q.3-.6.7-.9.4-.4.9-.5.6-.2 1.1-.2.3 0 .7.1t.8.3q.4.3.7.7.2.5.2 1.2v4.4h-1v-.9h-.1q-.1.2-.4.4-.2.3-.6.5-.4.1-.9.1m.1-.9q.6 0 1-.2.4-.3.6-.6.3-.4.3-.8v-.9q-.1.1-.3.1-.2.1-.5.1-.3.1-.6.1-.2 0-.4.1-.3 0-.7.1-.3.1-.5.4-.2.2-.2.6 0 .3.2.5.1.3.4.4.4.1.7.1" clip-path="url(#b)" mask="url(#c)"/><clipPath id="w" clip-path="url(#b)"><path d="M395 291h20v20h-20z"/></clipPath><mask id="x"><path fill="#fff" d="M395 291h20v20h-20z" mask="url(#c)"/></mask><image width="20" height="20" x="395" y="291" clip-path="url(#w)" href="data:image/svg+xml;utf8,%3Csvg fill=%22none%22 xmlns=%22http://www.w3.org/2000/svg%22 width=%2220%22 height=%2220%22 viewBox=%220 0 20 20%22%3E%3Ccircle cx=%2210%22 cy=%2210%22 r=%2210%22 fill=%22%2310b981%22 fill-opacity=%220.15%22%3E%3C/circle%3E%3Cpath d=%22M6 10.5L8.5 13L14 7%22 stroke=%22%2310b981%22 stroke-width=%222%22 stroke-linecap=%22round%22 stroke-linejoin=%22round%22%3E%3C/path%3E%3C/svg%3E" mask="url(#x)" preserveAspectRatio="none"/><clipPath id="y" clip-path="url(#b)"><path d="M602 291h20v20h-20z"/></clipPath><mask id="z"><path fill="#fff" d="M602 291h20v20h-20z" mask="url(#c)"/></mask><image width="20" height="20" x="602" y="291" clip-path="url(#y)" href="data:image/svg+xml;utf8,%3Csvg fill=%22none%22 xmlns=%22http://www.w3.org/2000/svg%22 width=%2220%22 height=%2220%22 viewBox=%220 0 20 20%22%3E%3Ccircle cx=%2210%22 cy=%2210%22 r=%2210%22 fill=%22%23ef4444%22 fill-opacity=%220.15%22%3E%3C/circle%3E%3Cpath d=%22M7 7L13 13M13 7L7 13%22 stroke=%22%23ef4444%22 stroke-width=%222%22 stroke-linecap=%22round%22%3E%3C/path%3E%3C/svg%3E" mask="url(#z)" preserveAspectRatio="none"/><clipPath id="A" clip-path="url(#b)"><path d="M819 291h20v20h-20z"/></clipPath><mask id="B"><path fill="#fff" d="M819 291h20v20h-20z" mask="url(#c)"/></mask><image width="20" height="20" x="819" y="291" clip-path="url(#A)" href="data:image/svg+xml;utf8,%3Csvg fill=%22none%22 xmlns=%22http://www.w3.org/2000/svg%22 width=%2220%22 height=%2220%22 viewBox=%220 0 20 20%22%3E%3Ccircle cx=%2210%22 cy=%2210%22 r=%2210%22 fill=%22%23ef4444%22 fill-opacity=%220.15%22%3E%3C/circle%3E%3Cpath d=%22M7 7L13 13M13 7L7 13%22 stroke=%22%23ef4444%22 stroke-width=%222%22 stroke-linecap=%22round%22%3E%3C/path%3E%3C/svg%3E" mask="url(#B)" preserveAspectRatio="none"/><clipPath id="C" clip-path="url(#b)"><path d="M1026 291h20v20h-20z"/></clipPath><mask id="D"><path fill="#fff" d="M1026 291h20v20h-20z" mask="url(#c)"/></mask><image width="20" height="20" x="1026" y="291" clip-path="url(#C)" href="data:image/svg+xml;utf8,%3Csvg fill=%22none%22 xmlns=%22http://www.w3.org/2000/svg%22 width=%2220%22 height=%2220%22 viewBox=%220 0 20 20%22%3E%3Ccircle cx=%2210%22 cy=%2210%22 r=%2210%22 fill=%22%2310b981%22 fill-opacity=%220.15%22%3E%3C/circle%3E%3Cpath d=%22M6 10.5L8.5 13L14 7%22 stroke=%22%2310b981%22 stroke-width=%222%22 stroke-linecap=%22round%22 stroke-linejoin=%22round%22%3E%3C/path%3E%3C/svg%3E" mask="url(#D)" preserveAspectRatio="none"/><defs><clipPath id="E" clip-path="url(#b)"><path d="M57 348h1086a12 12 0 0 1 12 12v54a12 12 0 0 1-12 12H57a12 12 0 0 1-12-12v-54a12 12 0 0 1 12-12"/></clipPath></defs><path fill="#fff" d="M57 348h1086a12 12 0 0 1 12 12v54a12 12 0 0 1-12 12H57a12 12 0 0 1-12-12v-54a12 12 0 0 1 12-12" clip-path="url(#b)" mask="url(#c)"/><path fill="none" stroke="#e2e8f0" stroke-width="2" d="M48.515 351.515A12 12 0 0 1 57 348h1086a12 12 0 0 1 12 12v54a12 12 0 0 1-12 12H57a12 12 0 0 1-12-12v-54a12 12 0 0 1 3.515-8.485" clip-path="url(#E)"/><path fill="#0f172a" d="M72 382.8h-4.9v-11.6h4.6q1.3 0 2.1.4.9.4 1.3 1 .4.7.4 1.6 0 .7-.3 1.2-.2.5-.7.8t-1.1.5v.1q.7 0 1.3.4.5.3.9.9.4.7.4 1.5 0 .9-.5 1.7-.4.7-1.3 1.1t-2.2.4m-2.6-5.1v3.2h2.1q1 0 1.5-.4.5-.5.5-1.1 0-.5-.2-.9-.3-.4-.7-.6t-1-.2zm0-4.6v3h1.9q.5 0 .9-.2t.7-.5q.2-.4.2-.8 0-.7-.4-1.1-.5-.4-1.3-.4zm11.2 9.8q-.9 0-1.6-.4t-1-1.1q-.4-.7-.4-1.8v-5.5h2.3v5.1q0 .8.5 1.3.4.5 1.1.5.5 0 .9-.2.4-.3.6-.7t.2-1v-5h2.4v8.7h-2.3V381q-.3.8-.9 1.3-.7.6-1.8.6m6.9-11.7h2.4v11.6h-2.4zm4.4 0h2.3v11.6h-2.3zm13.1 11.6h-4.9v-11.6h4.6q1.3 0 2.1.4.9.4 1.3 1 .4.7.4 1.6 0 .7-.2 1.2-.3.5-.8.8t-1.1.5v.1q.7 0 1.3.4.6.3.9.9.4.7.4 1.5 0 .9-.5 1.7-.4.7-1.3 1.1t-2.2.4m-2.6-5.1v3.2h2.1q1.1 0 1.5-.4.5-.5.5-1.1 0-.5-.2-.9-.3-.4-.7-.6t-1-.2zm0-4.6v3h1.9q.5 0 .9-.2t.7-.5q.2-.4.2-.8 0-.7-.4-1.1-.5-.4-1.3-.4zm10.5 9.7h-2.3v-8.7h2.3zm-1.1-9.9q-.6 0-.9-.3-.4-.4-.4-.9t.4-.8q.3-.4.9-.4.5 0 .9.4.4.3.4.8t-.4.9q-.4.3-.9.3m5.8 1.2h1.7v1.8h-1.7v4.4q0 .4.2.6t.6.2q.2 0 .4-.1h.4l.3 1.7q-.4.2-.8.2h-.7q-1.3 0-2-.6t-.7-1.8v-4.6h-1.2v-1.8h1.2V372h2.3zm7.1 8.9q-1.3 0-2.3-.6-.9-.5-1.5-1.6-.5-1-.5-2.3 0-1.4.5-2.4.6-1 1.5-1.6 1-.5 2.3-.5.8 0 1.4.2.7.2 1.2.6.5.3.8.9.4.5.5 1.2l-2.2.4q-.1-.4-.2-.6-.2-.3-.4-.5t-.5-.3q-.2-.1-.6-.1-.6 0-1 .4-.5.3-.7.9t-.2 1.4.2 1.4.7.9q.4.3 1 .3.4 0 .6-.1.3-.1.5-.3.3-.2.4-.4.2-.3.2-.7l2.2.4q-.1.7-.5 1.3-.3.5-.8.9t-1.2.6q-.6.2-1.4.2m9.4 0q-1.3 0-2.3-.6-.9-.5-1.4-1.6-.6-1-.6-2.3 0-1.4.6-2.4.5-1 1.4-1.6 1-.5 2.3-.5t2.3.5q.9.6 1.5 1.6.5 1 .5 2.4 0 1.3-.5 2.3-.6 1.1-1.5 1.6-1 .6-2.3.6m0-1.9q.6 0 1.1-.3.4-.3.6-1 .2-.6.2-1.3 0-.8-.2-1.4t-.6-.9q-.5-.4-1.1-.4t-1 .4q-.5.3-.7.9t-.2 1.4q0 .7.2 1.3.2.7.7 1 .4.3 1 .3m8.3 1.7H140v-8.7h2.4zm-1.2-9.9q-.5 0-.9-.3-.4-.4-.4-.9t.4-.8q.4-.4.9-.4t.9.4q.4.3.4.8t-.4.9q-.4.3-.9.3m5.5 4.9v5h-2.3v-8.7h2.2v1.8q.3-.8.9-1.3.7-.6 1.8-.6.9 0 1.6.4t1 1.1q.4.7.4 1.8v5.5H150v-5.1q0-.8-.4-1.3-.5-.5-1.2-.5-.5 0-.9.3-.4.2-.6.6t-.2 1" clip-path="url(#b)" mask="url(#c)"/><path fill="#e2e8f0" d="M172 367h65a10 10 0 0 1 10 10 10 10 0 0 1-10 10h-65a10 10 0 0 1-10-10 10 10 0 0 1 10-10" clip-path="url(#b)" mask="url(#c)"/><path fill="#64748b" d="M172.3 381.4H171v-8.8h3.1q1 0 1.7.4.7.3 1 1 .3.6.3 1.4t-.3 1.4q-.4.6-1 .9-.1.1-.3.1l1.9 3.6h-1.5l-1.7-3.3h-1.9zm0-7.6v3.1h1.7q.6 0 1-.2.4-.1.6-.5.2-.3.2-.8t-.2-.9q-.2-.3-.6-.5t-1.1-.2zm9.2 7.7q-1 0-1.7-.4t-1.1-1.2q-.4-.7-.4-1.8 0-1 .4-1.7.4-.8 1.1-1.2.6-.5 1.6-.5.5 0 1 .2.6.2 1 .6t.6 1q.3.6.3 1.5v.5h-4.7q.1.6.3 1 .2.5.6.7t1 .2q.3 0 .6-.1t.5-.3q.3-.2.4-.5l1.2.3q-.2.5-.6.9-.3.4-.9.6-.5.2-1.2.2m-1.9-4h3.4q0-.4-.2-.7-.2-.5-.5-.7-.4-.3-.9-.3-.6 0-1 .3-.4.2-.6.7-.1.3-.2.7m8.8 4q-.9 0-1.6-.4t-1-1.2q-.4-.8-.4-1.8t.4-1.8q.3-.7 1-1.1.7-.5 1.6-.5.6 0 1 .2.4.1.8.3.4.3.6.7.3.3.4.8l-1.2.3q-.1-.3-.2-.5l-.4-.4-.4-.2q-.2-.1-.5-.1-.6 0-1 .3t-.6.9q-.2.5-.2 1.1 0 .7.2 1.2t.6.8 1 .3q.3 0 .5-.1.3-.1.5-.2.2-.2.3-.4t.2-.5l1.2.3q-.1.5-.4.8-.2.4-.6.7-.3.2-.8.4-.4.1-1 .1m7 0q-.9 0-1.6-.4t-1.1-1.2-.4-1.8.4-1.8q.4-.7 1.1-1.1.7-.5 1.6-.5t1.6.5q.7.4 1.1 1.1.3.8.3 1.8t-.3 1.8q-.4.8-1.1 1.2t-1.6.4m0-1.1q.6 0 1-.3.3-.3.5-.8.2-.6.2-1.2t-.2-1.1q-.2-.6-.5-.9-.4-.3-1-.3t-1 .3-.6.9q-.2.5-.2 1.1t.2 1.2q.2.5.6.8t1 .3m7.7 1h-1.4l-2.4-6.6h1.4l1.3 3.7q.2.7.3 1.3.1.2.2.5 0-.3.1-.5.1-.6.3-1.3l1.3-3.7h1.4zm6.5.1q-1 0-1.7-.4t-1.1-1.2q-.3-.7-.3-1.8 0-1 .3-1.7.4-.8 1.1-1.2.7-.5 1.6-.5.5 0 1.1.2.5.2.9.6t.7 1q.2.6.2 1.5v.5h-4.6q0 .6.2 1 .2.5.6.7t1 .2q.4 0 .7-.1.2-.1.5-.3.2-.2.3-.5l1.2.3q-.2.5-.5.9-.4.4-1 .6-.5.2-1.2.2m-1.8-4h3.3q0-.4-.2-.7-.1-.5-.5-.7-.4-.3-.9-.3-.6 0-1 .3-.3.2-.5.7-.2.3-.2.7m7.3 3.9h-1.3v-6.6h1.3v1.1q.2-.6.7-.9.4-.3 1-.3h.3q.1 0 .2.1v1.2l-.2-.1h-.4q-.5 0-.8.2-.4.2-.6.5-.2.4-.2.8zm6.6.1q-.6 0-1-.2-.3-.2-.6-.5-.2-.2-.3-.5h-.1v1.1h-1.2v-8.8h1.2v3.3h.1q.1-.2.3-.5t.6-.5 1-.2q.8 0 1.4.4t1 1.2q.3.7.3 1.8t-.3 1.8q-.4.8-1 1.2t-1.4.4m-.3-1.1q.6 0 1-.3.3-.3.5-.8.2-.6.2-1.2t-.2-1.2q-.2-.5-.5-.8-.4-.3-1-.3-.5 0-.9.3t-.6.8-.2 1.2.2 1.2.6.8.9.3m6.7 1q-.7 0-1.2-.2-.5-.3-.8-.9-.2-.5-.2-1.3v-4.2h1.3v4q0 .7.3 1.1.4.4 1 .4.5 0 .8-.2.4-.2.6-.5.2-.4.2-.9v-3.9h1.3v6.6h-1.3v-1.3q-.3.6-.7.9-.5.4-1.3.4m5-8.8h1.3v8.8h-1.3zm3 0h1.3v8.8h-1.3z" clip-path="url(#b)" mask="url(#c)"/><path fill="#64748b" d="M68.2 405.4h-1.1v-8.8H70q1.1 0 1.7.4.7.4 1 1t.3 1.4-.3 1.4q-.3.7-1 1-.6.4-1.7.4h-1.8zm0-7.8v3.6H70q.7 0 1.1-.2t.6-.7q.2-.4.2-.9t-.2-.9-.6-.7q-.4-.2-1.1-.2zm7.4 3.8v4h-1v-8.8h1v3.3q.3-.5.7-.8.6-.4 1.3-.4t1.2.3.8.8q.2.6.2 1.4v4.2h-1v-4.1q0-.8-.4-1.2t-1.1-.4q-.5 0-.8.2-.4.2-.6.6-.3.4-.3.9m8.8 4.1q-.9 0-1.6-.4t-1.1-1.2q-.3-.8-.3-1.8t.3-1.8q.4-.7 1.1-1.1.7-.5 1.6-.5.8 0 1.5.5.7.4 1.1 1.1.3.8.3 1.8t-.3 1.8q-.4.8-1.1 1.2t-1.5.4m0-.9q.6 0 1-.4.5-.3.7-.9.2-.5.2-1.2 0-.6-.2-1.2-.2-.5-.7-.9-.4-.3-1-.3-.7 0-1.1.3-.4.4-.7.9-.2.6-.2 1.2 0 .7.2 1.2.3.6.7.9.4.4 1.1.4m5.7-5.8h1.4v.9h-1.4v4q0 .4.2.6t.6.2h.2q.2 0 .3-.1l.2.9q-.1.1-.3.1h-.4q-.9 0-1.4-.4-.4-.4-.4-1.3v-4h-1v-.9h1v-1.5h1zm5.4 6.7q-.9 0-1.6-.4t-1-1.2q-.4-.8-.4-1.8t.4-1.8q.3-.7 1-1.1.7-.5 1.6-.5t1.5.5q.7.4 1.1 1.1.4.8.4 1.8t-.4 1.8-1.1 1.2q-.6.4-1.5.4m0-.9q.6 0 1.1-.4.4-.3.6-.9.2-.5.2-1.2 0-.6-.2-1.2-.2-.5-.6-.9-.5-.3-1.1-.3-.7 0-1.1.3-.4.4-.6.9-.2.6-.2 1.2 0 .7.2 1.2.2.6.6.9.4.4 1.1.4m5.6-3.2v4H100v-6.6h1v1.2q.3-.6.7-.9.6-.4 1.3-.4t1.2.3.8.8q.2.6.2 1.4v4.2h-1v-4.1q0-.8-.4-1.2t-1.1-.4q-.5 0-.8.2-.4.2-.6.6t-.2.9m11.6 4.1q-.7 0-1.2-.2t-.9-.6q-.3-.4-.4-.9l1-.3q.1.6.5.8.4.3 1 .3.7 0 1.1-.3t.4-.7q0-.3-.3-.6-.2-.2-.7-.3l-1.1-.3q-.9-.2-1.3-.6-.4-.5-.4-1.2 0-.5.3-1 .3-.4.9-.6.5-.3 1.2-.3t1.1.2q.5.2.8.6.3.3.5.8l-1 .3q-.1-.4-.4-.7-.4-.3-1-.3t-1 .3-.4.7q0 .3.3.6.3.2.8.3l1 .3q.9.2 1.3.6.5.4.5 1.1 0 .6-.3 1-.4.5-1 .7-.5.3-1.3.3m5.2 2.3h-1.1v-9h1v1.1h.1q.1-.2.3-.5.2-.2.6-.5.4-.2 1-.2.9 0 1.5.4.6.5 1 1.2.3.8.3 1.8 0 1.1-.3 1.8-.4.8-1 1.2t-1.5.4q-.6 0-1-.2-.3-.2-.5-.5l-.4-.4zm1.8-3.2q.6 0 1-.4.4-.3.6-.9.2-.5.2-1.2t-.2-1.2q-.2-.6-.6-.9t-1-.3-1 .3-.6.8q-.3.6-.3 1.3t.3 1.3q.2.5.6.8.4.4 1 .4m7.2.9q-.9 0-1.6-.4t-1.1-1.2q-.4-.7-.4-1.8 0-1 .4-1.7.4-.8 1-1.2.7-.5 1.6-.5.5 0 1 .2t.9.6q.4.3.7 1 .2.6.2 1.5v.4h-4.7q0 .7.3 1.1.2.5.7.8.4.3 1 .3.4 0 .7-.1l.6-.4q.2-.2.3-.5l1 .2q-.1.5-.5.9t-.9.6-1.2.2m-2-3.9h3.7q-.1-.5-.2-.9-.2-.5-.6-.7-.4-.3-1-.3t-1 .3q-.5.3-.7.7t-.2.9m8.9 3.9q-.9 0-1.6-.4-.6-.4-1-1.2t-.4-1.8.4-1.8q.4-.7 1-1.1.7-.5 1.6-.5.5 0 .9.2.4.1.8.3.3.2.6.6.2.3.4.7l-1 .3q-.1-.2-.3-.4-.1-.2-.3-.4t-.5-.2q-.3-.1-.6-.1-.6 0-1.1.3-.4.4-.6.9-.2.6-.2 1.2 0 .7.2 1.2.2.6.6.9.5.4 1.1.4.3 0 .6-.1t.5-.3q.2-.1.4-.4l.2-.4 1 .2q-.1.5-.4.8-.3.4-.6.6-.4.3-.8.4t-.9.1m8.6-.1h-1v-6.6h1zm-.5-7.7q-.3 0-.5-.2t-.2-.5q0-.2.2-.5.2-.2.5-.2t.5.2q.2.3.2.5 0 .3-.2.5t-.5.2m3.4 7.7h-1v-6.6h1v1.2q.1-.3.4-.6.2-.4.6-.5.4-.2.8-.2.8 0 1.2.4t.5.9q.1-.3.4-.6t.7-.5q.5-.2 1-.2t1 .2q.5.3.8.8.2.5.2 1.2v4.5h-1V401q0-.7-.4-1t-.9-.3-.8.1q-.3.2-.5.5-.2.4-.2.8v4.3h-1v-4.5q0-.6-.4-.9-.3-.3-.9-.3-.4 0-.7.1-.4.2-.6.6-.2.3-.2.8zm10.5 2.4h-1v-9h1v1.1h.1q.1-.2.3-.5.2-.2.6-.5.4-.2 1-.2.8 0 1.5.4.6.5 1 1.2.3.8.3 1.8 0 1.1-.3 1.8-.4.8-1 1.2t-1.5.4q-.6 0-1-.2-.3-.2-.6-.5-.2-.3-.3-.4h-.1zm1.9-3.2q.6 0 1-.4.4-.3.6-.9.2-.5.2-1.2t-.2-1.2q-.2-.6-.6-.9t-1-.3-1 .3-.7.8q-.2.6-.2 1.3t.2 1.3q.3.5.7.8.4.4 1 .4m4.4-8h1.1v8.8h-1.1zm5.7 8.9q-.9 0-1.6-.4t-1.1-1.2q-.4-.7-.4-1.8 0-1 .4-1.7.4-.8 1-1.2.7-.5 1.6-.5.5 0 1 .2t.9.6q.4.3.7 1 .2.6.2 1.5v.4h-4.7q0 .7.2 1.1.3.5.8.8.4.3 1 .3.4 0 .7-.1l.6-.4q.2-.2.3-.5l1 .2q-.1.5-.5.9t-.9.6-1.2.2m-2-3.9h3.7q-.1-.5-.2-.9-.2-.5-.6-.7-.4-.3-1-.3t-1 .3q-.5.3-.7.7t-.2.9m7.3 3.8H172v-6.6h1.1v1.2q.1-.3.3-.6.3-.4.7-.5.4-.2.8-.2.7 0 1.2.4.3.4.5.9.1-.3.3-.6.3-.3.8-.5.4-.2.9-.2.6 0 1.1.2.4.3.7.8t.3 1.2v4.5h-1.1V401q0-.7-.3-1-.4-.3-1-.3-.4 0-.7.1-.4.2-.5.5-.2.4-.2.8v4.3h-1.1v-4.5q0-.6-.3-.9-.4-.3-.9-.3-.4 0-.8.1-.3.2-.5.6-.2.3-.2.8zm12.2.1q-.9 0-1.6-.4t-1.1-1.2q-.4-.7-.4-1.8 0-1 .4-1.7.4-.8 1-1.2.7-.5 1.6-.5.5 0 1 .2t.9.6q.4.3.7 1 .2.6.2 1.5v.4h-4.7q0 .7.3 1.1.2.5.7.8.4.3 1 .3.4 0 .7-.1l.6-.4q.2-.2.3-.5l1 .2q-.1.5-.5.9-.3.4-.9.6-.5.2-1.2.2m-2-3.9h3.7q-.1-.5-.2-.9-.2-.5-.6-.7-.4-.3-1-.3t-1 .3-.7.7q-.2.4-.2.9m7.3-.2v4h-1v-6.6h1v1.2q.2-.6.7-.9.5-.4 1.3-.4.6 0 1.1.3t.8.8q.3.6.3 1.4v4.2h-1.1v-4.1q0-.8-.4-1.2t-1-.4q-.5 0-.9.2t-.6.6-.2.9m7.3-2.6h1.3v.9h-1.3v4q0 .4.1.6.2.2.6.2h.3q.2 0 .3-.1l.2.9q-.2.1-.4.1h-.4q-.8 0-1.3-.4t-.5-1.3v-4h-1v-.9h1v-1.5h1.1zm4.5 6.7q-.6 0-1.1-.2-.5-.3-.8-.7-.3-.5-.3-1.1t.2-.9q.2-.4.6-.6t.8-.3q.5-.1.9-.1.6-.1 1-.1.3-.1.5-.2t.2-.3v-.1q0-.4-.2-.7-.1-.2-.4-.4-.3-.1-.8-.1-.4 0-.8.1-.3.2-.5.4t-.3.4l-1-.3q.2-.6.6-.9.5-.4 1-.5.5-.2 1-.2.3 0 .7.1.5.1.9.3.3.3.6.7.3.5.3 1.2v4.4h-1.1v-.9h-.1q-.1.2-.3.4-.3.3-.7.5-.3.1-.9.1m.2-.9q.6 0 1-.2.4-.3.6-.6.2-.4.2-.8v-.9q-.1.1-.3.1-.2.1-.5.1-.3.1-.5.1-.3 0-.4.1-.4 0-.7.1-.4.1-.6.4-.2.2-.2.6 0 .3.2.5.2.3.5.4t.7.1m5.9-5.8h1.4v.9h-1.4v4q0 .4.2.6t.6.2h.3q.1 0 .2-.1l.3.9q-.2.1-.4.1h-.4q-.9 0-1.3-.4-.5-.4-.5-1.3v-4h-1v-.9h1v-1.5h1zm3.8 6.6h-1.1v-6.6h1.1zm-.5-7.7q-.3 0-.6-.2-.2-.2-.2-.5 0-.2.2-.5.3-.2.6-.2t.5.2q.2.3.2.5 0 .3-.2.5t-.5.2m5 7.8q-.9 0-1.6-.4-.6-.4-1-1.2t-.4-1.8.4-1.8q.4-.7 1-1.1.7-.5 1.6-.5t1.6.5q.6.4 1 1.1.4.8.4 1.8t-.4 1.8-1 1.2q-.7.4-1.6.4m0-.9q.7 0 1.1-.4.4-.3.6-.9.2-.5.2-1.2 0-.6-.2-1.2-.2-.5-.6-.9-.4-.3-1.1-.3t-1.1.3q-.4.4-.6.9-.2.6-.2 1.2 0 .7.2 1.2.2.6.6.9.4.4 1.1.4m5.6-3.2v4h-1.1v-6.6h1l.1 1.2q.2-.6.7-.9.5-.4 1.3-.4.6 0 1.1.3t.8.8q.3.6.3 1.4v4.2h-1.1v-4.1q0-.8-.4-1.2t-1.1-.4q-.4 0-.8.2t-.6.6-.2.9" clip-path="url(#b)" mask="url(#c)"/><clipPath id="F" clip-path="url(#b)"><path d="M395 377h20v20h-20z"/></clipPath><mask id="G"><path fill="#fff" d="M395 377h20v20h-20z" mask="url(#c)"/></mask><image width="20" height="20" x="395" y="377" clip-path="url(#F)" href="data:image/svg+xml;utf8,%3Csvg fill=%22none%22 xmlns=%22http://www.w3.org/2000/svg%22 width=%2220%22 height=%2220%22 viewBox=%220 0 20 20%22%3E%3Ccircle cx=%2210%22 cy=%2210%22 r=%2210%22 fill=%22%2310b981%22 fill-opacity=%220.15%22%3E%3C/circle%3E%3Cpath d=%22M6 10.5L8.5 13L14 7%22 stroke=%22%2310b981%22 stroke-width=%222%22 stroke-linecap=%22round%22 stroke-linejoin=%22round%22%3E%3C/path%3E%3C/svg%3E" mask="url(#G)" preserveAspectRatio="none"/><clipPath id="H" clip-path="url(#b)"><path d="M602 377h20v20h-20z"/></clipPath><mask id="I"><path fill="#fff" d="M602 377h20v20h-20z" mask="url(#c)"/></mask><image width="20" height="20" x="602" y="377" clip-path="url(#H)" href="data:image/svg+xml;utf8,%3Csvg fill=%22none%22 xmlns=%22http://www.w3.org/2000/svg%22 width=%2220%22 height=%2220%22 viewBox=%220 0 20 20%22%3E%3Ccircle cx=%2210%22 cy=%2210%22 r=%2210%22 fill=%22%2310b981%22 fill-opacity=%220.15%22%3E%3C/circle%3E%3Cpath d=%22M6 10.5L8.5 13L14 7%22 stroke=%22%2310b981%22 stroke-width=%222%22 stroke-linecap=%22round%22 stroke-linejoin=%22round%22%3E%3C/path%3E%3C/svg%3E" mask="url(#I)" preserveAspectRatio="none"/><clipPath id="J" clip-path="url(#b)"><path d="M819 377h20v20h-20z"/></clipPath><mask id="K"><path fill="#fff" d="M819 377h20v20h-20z" mask="url(#c)"/></mask><image width="20" height="20" x="819" y="377" clip-path="url(#J)" href="data:image/svg+xml;utf8,%3Csvg fill=%22none%22 xmlns=%22http://www.w3.org/2000/svg%22 width=%2220%22 height=%2220%22 viewBox=%220 0 20 20%22%3E%3Ccircle cx=%2210%22 cy=%2210%22 r=%2210%22 fill=%22%2310b981%22 fill-opacity=%220.15%22%3E%3C/circle%3E%3Cpath d=%22M6 10.5L8.5 13L14 7%22 stroke=%22%2310b981%22 stroke-width=%222%22 stroke-linecap=%22round%22 stroke-linejoin=%22round%22%3E%3C/path%3E%3C/svg%3E" mask="url(#K)" preserveAspectRatio="none"/><clipPath id="L" clip-path="url(#b)"><path d="M1026 377h20v20h-20z"/></clipPath><mask id="M"><path fill="#fff" d="M1026 377h20v20h-20z" mask="url(#c)"/></mask><image width="20" height="20" x="1026" y="377" clip-path="url(#L)" href="data:image/svg+xml;utf8,%3Csvg fill=%22none%22 xmlns=%22http://www.w3.org/2000/svg%22 width=%2220%22 height=%2220%22 viewBox=%220 0 20 20%22%3E%3Ccircle cx=%2210%22 cy=%2210%22 r=%2210%22 fill=%22%23ef4444%22 fill-opacity=%220.15%22%3E%3C/circle%3E%3Cpath d=%22M7 7L13 13M13 7L7 13%22 stroke=%22%23ef4444%22 stroke-width=%222%22 stroke-linecap=%22round%22%3E%3C/path%3E%3C/svg%3E" mask="url(#M)" preserveAspectRatio="none"/><defs><clipPath id="S" clip-path="url(#b)"><path d="M57 434h1086a12 12 0 0 1 12 12v56a12 12 0 0 1-12 12H57a12 12 0 0 1-12-12v-56a12 12 0 0 1 12-12"/></clipPath><pattern id="R" width="1" height="1" x="0" y="0" patternUnits="objectBoundingBox"><linearGradient id="N" x1="-.033" x2="1.033" y1=".462" y2=".538" spreadMethod="pad"><stop offset="0%" stop-color="rgba(34, 197, 94, 0.08)"/><stop offset="100%" stop-color="rgba(16, 185, 129, 0.04)"/></linearGradient><path fill="url(#N)" d="M0 0h1110v80H0z"/></pattern></defs><mask id="P" maskUnits="userSpaceOnUse"><path fill="#fff" d="M0 0h1200v560H0z"/><path stroke-width="0" d="M57 434h1086a12 12 0 0 1 12 12v56a12 12 0 0 1-12 12H57a12 12 0 0 1-12-12v-56a12 12 0 0 1 12-12" clip-path="url(#b)" mask="url(#c)"/></mask><defs><filter id="O" width="118.018%" height="350%" x="-9.009%" y="-125%"><feGaussianBlur result="b" stdDeviation="10"/><feFlood flood-color="rgba(34, 197, 94, 0.1)" result="f"/><feComposite in="f" in2="b" operator="in"/></filter></defs><g filter="url(#O)" mask="url(#P)"><path fill="#fff" d="M57 434h1086a12 12 0 0 1 12 12v56a12 12 0 0 1-12 12H57a12 12 0 0 1-12-12v-56a12 12 0 0 1 12-12" clip-path="url(#b)" mask="url(#c)"/></g><path fill="url(#R)" d="M57 434h1086a12 12 0 0 1 12 12v56a12 12 0 0 1-12 12H57a12 12 0 0 1-12-12v-56a12 12 0 0 1 12-12" clip-path="url(#b)" mask="url(#c)"/><path fill="none" stroke="#22c55e" stroke-width="4" d="M48.515 437.515A12 12 0 0 1 57 434h1086a12 12 0 0 1 12 12v56a12 12 0 0 1-12 12H57a12 12 0 0 1-12-12v-56a12 12 0 0 1 3.515-8.485" clip-path="url(#S)"/><path fill="#16a34a" d="M73.1 470q-1.5 0-2.7-.7-1.3-.7-2-2.1-.7-1.3-.7-3.2t.7-3.2q.8-1.4 2-2.1t2.7-.7q1 0 1.9.3.8.3 1.5.8t1.1 1.3.5 1.8h-2.4q0-.5-.3-.9-.2-.4-.5-.6-.4-.3-.8-.4-.4-.2-.9-.2-.9 0-1.6.5-.7.4-1.1 1.3-.3.9-.3 2.1 0 1.3.3 2.1.4.9 1.1 1.3.7.5 1.6.5.5 0 .9-.2.4-.1.8-.4.3-.2.5-.6.3-.4.3-.9h2.5q-.1.8-.5 1.6-.4.7-1.1 1.3-.6.6-1.5.9-.9.4-2 .4m11.1 0q-1.4 0-2.5-.4-1-.5-1.6-1.3-.6-.9-.6-2.1h2.3q.1.6.4 1t.8.6 1.1.2q.7 0 1.1-.2.5-.2.8-.5.3-.4.3-.8t-.3-.7q-.2-.2-.7-.4-.4-.2-1.1-.4l-1.2-.3q-1.5-.4-2.4-1.1-.8-.8-.8-2.1 0-1 .6-1.8.5-.8 1.5-1.2 1-.5 2.3-.5t2.2.5q1 .4 1.5 1.2.6.8.6 1.8h-2.3q-.1-.7-.6-1.1t-1.4-.4q-.6 0-1.1.2-.4.2-.6.5t-.2.7.2.7q.3.3.7.5.4.1.9.2l1.1.3q.7.2 1.3.4.7.3 1.1.7.5.4.8 1 .2.6.2 1.3 0 1.1-.5 1.8-.5.8-1.5 1.3-1 .4-2.4.4m8.6-.2h-2.4v-11.6h4.5q1.3 0 2.3.5.9.5 1.4 1.4t.5 2q0 1.2-.5 2-.5.9-1.5 1.4-.9.5-2.2.5h-2.1zm0-9.7v4h1.7q.7 0 1.2-.3.4-.2.7-.7.2-.4.2-1t-.2-1q-.3-.5-.7-.7-.5-.3-1.2-.3zm10.3 9.7h-2.4v-11.6h4.6q1.3 0 2.2.5 1 .5 1.4 1.4.5.9.5 2 0 1.2-.5 2-.5.9-1.4 1.4t-2.3.5h-2.1zm0-9.7v4h1.7q.8 0 1.2-.3.5-.2.7-.7.3-.4.3-1t-.3-1q-.2-.5-.7-.7-.4-.3-1.2-.3z" clip-path="url(#b)" mask="url(#c)"/><path fill="rgba(34, 197, 94, 0.15)" d="M129 454h75a10 10 0 0 1 10 10 10 10 0 0 1-10 10h-75a10 10 0 0 1-10-10 10 10 0 0 1 10-10" clip-path="url(#b)" mask="url(#c)"/><path fill="#16a34a" d="M130.3 460.8h-2.8v-1.2h6.8v1.2h-2.7v7.6h-1.3zm6.7 3.7v3.9h-1.3v-8.8h1.3v3.4q.2-.6.6-.9.6-.4 1.4-.4.6 0 1.1.3t.8.8q.3.6.3 1.4v4.2h-1.3v-4q0-.7-.4-1.1-.3-.4-1-.4-.4 0-.8.1-.3.2-.5.6t-.2.9m7.2 3.9h-1.3v-6.6h1.3zm-.6-7.6q-.4 0-.6-.2t-.2-.5q0-.4.2-.6t.6-.2q.3 0 .5.2.3.2.3.6 0 .3-.3.5-.2.2-.5.2m4.7 7.7q-.7 0-1.3-.2-.5-.2-.9-.6-.3-.4-.4-1l1.2-.2q.1.5.5.7.3.3.9.3t1-.3.4-.6-.3-.5q-.2-.3-.7-.4l-1.1-.2q-.9-.2-1.3-.7-.5-.4-.5-1.1 0-.6.4-1 .3-.5.9-.7.5-.3 1.3-.3.7 0 1.2.2t.8.6.5.9l-1.2.2q-.1-.3-.4-.6-.3-.2-.9-.2-.5 0-.9.2t-.4.6q0 .3.3.5.2.2.8.4l1 .2q.9.2 1.4.6.4.5.4 1.2 0 .6-.3 1-.4.5-1 .7-.6.3-1.4.3m8.7-.1h-1.3v-8.8h3.1q1 0 1.7.4t1 1q.4.7.4 1.5t-.4 1.4q-.3.7-1 1-.7.4-1.7.4H157zm0-7.6v3.4h1.7q.6 0 1-.2.4-.3.6-.7.2-.3.2-.8t-.2-.9-.6-.6-1-.2zm7.6 7.6h-1.3v-6.6h1.3v1.1q.2-.6.7-.9.4-.3 1-.3h.3q.1 0 .2.1v1.2l-.2-.1h-.4q-.5 0-.9.2-.3.2-.5.5-.2.4-.2.8zm6.1.1q-.9 0-1.6-.4t-1.1-1.2-.4-1.8.4-1.8q.4-.7 1.1-1.1.7-.5 1.6-.5t1.6.5q.7.4 1.1 1.1.4.8.4 1.8t-.4 1.8-1.1 1.2-1.6.4m0-1.1q.6 0 1-.3t.6-.8q.2-.6.2-1.2t-.2-1.1q-.2-.6-.6-.9t-1-.3-1 .3-.6.9q-.1.5-.1 1.1t.1 1.2q.2.5.6.8t1 .3m5.8 3.4h-1.3v-9h1.2v1.1h.2q.1-.2.3-.5t.6-.5q.3-.2.9-.2.8 0 1.4.4.7.4 1 1.2.4.7.4 1.8t-.4 1.8q-.3.8-.9 1.2-.7.4-1.5.4-.5 0-.9-.2t-.6-.5q-.2-.2-.3-.5h-.1zm1.7-3.4q.5 0 .9-.3t.6-.8q.2-.6.2-1.2t-.2-1.2q-.2-.5-.6-.8t-.9-.3q-.6 0-1 .3t-.5.8q-.2.5-.2 1.2t.2 1.2.5.8q.4.3 1 .3m7.2 1.1q-1 0-1.6-.4-.7-.4-1.1-1.2t-.4-1.8.4-1.8q.4-.7 1.1-1.1.6-.5 1.6-.5.9 0 1.6.5.7.4 1 1.1.4.8.4 1.8t-.4 1.8q-.3.8-1 1.2t-1.6.4m0-1.1q.6 0 1-.3.3-.3.5-.8.2-.6.2-1.2t-.2-1.1q-.2-.6-.5-.9-.4-.3-1-.3t-1 .3-.6.9q-.2.5-.2 1.1t.2 1.2q.2.5.6.8t1 .3m6.8 1.1q-.7 0-1.3-.2-.5-.2-.9-.6-.3-.4-.4-1l1.2-.2q.1.5.5.7.4.3.9.3.6 0 1-.3t.4-.6-.2-.5q-.3-.3-.7-.4l-1.1-.2q-1-.2-1.4-.7-.4-.4-.4-1.1 0-.6.3-1 .3-.5.9-.7.5-.3 1.3-.3.7 0 1.2.2t.8.6.5.9l-1.2.2q-.1-.3-.4-.6-.3-.2-.9-.2-.5 0-.9.2-.3.2-.3.6 0 .3.2.5t.8.4l1 .2q.9.2 1.4.6.4.5.4 1.2 0 .6-.3 1-.4.5-1 .7-.6.3-1.4.3m6 0q-.7 0-1.2-.2-.5-.3-.8-.7t-.3-1.1q0-.5.3-.9.2-.4.5-.6.4-.2.8-.3.5-.1 1-.1.5-.1.9-.2.4 0 .5-.1.2-.1.2-.3v-.1q0-.3-.1-.6l-.4-.4q-.3-.1-.7-.1-.5 0-.8.1t-.5.4q-.2.2-.3.4l-1.2-.3q.3-.6.7-1 .4-.3.9-.5.6-.2 1.1-.2.4 0 .9.1.4.1.8.4.4.2.7.7.2.4.2 1.1v4.4h-1.2v-.9h-.1q-.1.2-.4.5-.2.2-.6.4-.4.1-.9.1m.2-1q.6 0 .9-.2.4-.2.6-.6.2-.3.2-.7v-.8q-.1 0-.2.1-.2 0-.5.1-.2 0-.5.1h-.4l-.6.2q-.3.1-.5.3t-.2.5.2.6q.1.2.4.3t.6.1m4.7-7.9h1.3v8.8h-1.3z" clip-path="url(#b)" mask="url(#c)"/><path fill="#64748b" d="M69.2 492.4h-1.1v-8.8H71q1.1 0 1.7.4.7.4 1 1t.3 1.4-.3 1.4q-.3.7-1 1-.6.4-1.7.4h-1.8zm0-7.8v3.6H71q.7 0 1.1-.2t.6-.7q.2-.4.2-.9t-.2-.9-.6-.7q-.4-.2-1.1-.2zm7.6 7.8h-1.1v-8.8h3q1 0 1.7.4.6.3 1 .9.3.7.3 1.4 0 .8-.3 1.4-.4.6-1 .9-.2.1-.3.2l1.9 3.6h-1.3l-1.8-3.4h-2.1zm0-7.8v3.4h1.9q.7 0 1.1-.2t.6-.6.2-.9-.2-.9-.6-.6q-.5-.2-1.2-.2zm7.8 7.8h-1.2v-8.8h5.3v1h-4.1v3h3.7v1h-3.7zm12.7-.6h-1v-2.4H94v-.9h2.3v-2.4h1v2.4h2.3v.9h-2.3zm10 .6q-.7 0-1.2-.2-.5-.3-.7-.8-.3-.6-.3-1.4v-4.2h1v4.1q0 .7.4 1.2.4.4 1.1.4.5 0 .9-.2.3-.2.6-.6.2-.4.2-1v-3.9h1v6.6h-1v-1.3q-.3.7-.7 1-.6.3-1.3.3m5.9-4v4h-1v-6.6h1v1.2q.3-.6.7-.9.6-.4 1.3-.4t1.2.3.7.8q.3.6.3 1.4v4.2h-1v-4.1q0-.8-.4-1.2t-1.1-.4q-.5 0-.9.2-.3.2-.5.6-.3.4-.3.9m7.3-2.6h1.3v.9h-1.3v4q0 .4.2.6t.6.2h.2q.2 0 .3-.1l.2.9q-.1.1-.3.1h-.5q-.8 0-1.3-.4t-.5-1.3v-4h-.9v-.9h.9v-1.5h1.1zm3.8 6.6h-1.1v-6.6h1v1h.1q.2-.5.6-.8.5-.3 1.1-.3h.5v1.1h-.2q-.2-.1-.4-.1-.5 0-.9.2-.3.2-.5.6-.2.3-.2.8zm5.6 0q-.6 0-1.1-.2-.5-.3-.8-.8-.3-.6-.3-1.4v-4.2h1.1v4.1q0 .7.4 1.2.4.4 1.1.4.4 0 .8-.2t.6-.6.2-1v-3.9h1.1v6.6h-1.1v-1.3q-.2.7-.7 1t-1.3.3m7.1.1q-.6 0-1.2-.2-.5-.2-.8-.6-.4-.4-.5-.9l1-.3q.2.6.5.8.4.3 1 .3.7 0 1.1-.3t.4-.7q0-.3-.2-.6-.2-.2-.7-.3l-1.1-.3q-.9-.2-1.3-.6-.5-.5-.5-1.2 0-.5.3-1 .3-.4.9-.6.5-.3 1.2-.3t1.2.2.8.6q.3.3.4.8l-1 .3q-.1-.4-.4-.7t-1-.3q-.5 0-.9.3t-.4.7q0 .3.2.6.3.2.9.3l1 .3q.9.2 1.3.6t.4 1.1q0 .6-.3 1-.3.5-.9.7-.6.3-1.4.3m5.4-6.7h1.3v.9h-1.3v4q0 .4.2.6.1.2.5.2h.3q.2 0 .3-.1l.2.9q-.2.1-.4.1h-.4q-.8 0-1.3-.4t-.5-1.3v-4h-1v-.9h1v-1.5h1.1zm5.4 6.7q-.9 0-1.6-.4t-1.1-1.2q-.3-.7-.3-1.8 0-1 .3-1.7.4-.8 1-1.2.7-.5 1.6-.5.5 0 1 .2t.9.6q.5.3.7 1 .3.6.3 1.5v.4h-4.8q0 .7.3 1.1.2.5.7.8.4.3 1 .3.4 0 .7-.1l.6-.4q.2-.2.3-.5l1 .2q-.1.5-.5.9-.3.4-.9.6-.5.2-1.2.2m-2-3.9h3.7q-.1-.5-.2-.9-.2-.5-.6-.7-.4-.3-1-.3t-1 .3-.7.7q-.1.4-.2.9m8.7 3.9q-.8 0-1.4-.4t-1-1.2q-.3-.7-.3-1.8 0-1 .3-1.8.4-.7 1-1.2.6-.4 1.4-.4.7 0 1 .2.4.3.6.5.2.3.3.5h.1v-3.3h1.1v8.8h-1.1v-1h-.1q-.1.1-.3.4t-.6.5-1 .2m.2-.9q.6 0 1-.4.4-.3.6-.8.2-.6.2-1.3t-.2-1.3q-.2-.5-.6-.8t-1-.3-1.1.3q-.4.3-.6.9-.2.5-.2 1.2t.2 1.2q.2.6.7.9.4.4 1 .4m10.8.9q-.9 0-1.6-.4t-1.1-1.2q-.3-.8-.3-1.8t.3-1.8q.4-.7 1.1-1.1.7-.5 1.6-.5.4 0 .9.2.4.1.7.3.4.2.6.6.3.3.4.7l-1 .3-.2-.4-.4-.4q-.2-.2-.5-.2-.2-.1-.5-.1-.7 0-1.1.3-.4.4-.6.9-.3.6-.3 1.2 0 .7.3 1.2.2.6.6.9.4.4 1.1.4.3 0 .6-.1.2-.1.4-.3.3-.1.4-.4.2-.2.2-.4l1 .2q-.1.5-.4.8-.2.4-.6.6-.3.3-.7.4-.5.1-.9.1m4.1-8.9h1.1v8.8h-1.1zm5.6 8.9q-.9 0-1.5-.4-.7-.4-1.1-1.2t-.4-1.8.4-1.8q.4-.7 1.1-1.1.6-.5 1.5-.5t1.6.5q.7.4 1 1.1.4.8.4 1.8t-.4 1.8q-.3.8-1 1.2t-1.6.4m0-.9q.7 0 1.1-.4.4-.3.6-.9.2-.5.2-1.2 0-.6-.2-1.2-.2-.5-.6-.9-.4-.3-1.1-.3-.6 0-1.1.3-.4.4-.6.9-.2.6-.2 1.2 0 .7.2 1.2.2.6.6.9.5.4 1.1.4m6.8.8q-.7 0-1.2-.2-.5-.3-.8-.8-.3-.6-.3-1.4v-4.2h1.1v4.1q0 .7.4 1.2.4.4 1.1.4.5 0 .8-.2.4-.2.6-.6t.2-1v-3.9h1.1v6.6h-1v-1.3q-.3.7-.7 1-.6.3-1.3.3m7.3.1q-.8 0-1.4-.4-.7-.4-1-1.2-.4-.7-.4-1.8 0-1 .4-1.8.3-.7 1-1.2.6-.4 1.4-.4.6 0 1 .2.4.3.6.5.2.3.3.5h.1v-3.3h1v8.8h-1v-1h-.1q-.1.1-.3.4t-.6.5-1 .2m.2-.9q.6 0 1-.4.4-.3.6-.8.2-.6.2-1.3t-.2-1.3q-.2-.5-.6-.8t-1-.3q-.7 0-1.1.3t-.6.9q-.2.5-.2 1.2t.2 1.2q.2.6.6.9.4.4 1.1.4m10.3.9q-.7 0-1.2-.2t-.9-.6q-.3-.4-.4-.9l1-.3q.1.6.5.8.4.3 1 .3.7 0 1.1-.3t.4-.7q0-.3-.3-.6-.2-.2-.7-.3l-1.1-.3q-.9-.2-1.3-.6-.4-.5-.4-1.2 0-.5.3-1 .3-.4.9-.6.5-.3 1.2-.3t1.1.2q.5.2.8.6.3.3.5.8l-1 .3q-.1-.4-.5-.7-.3-.3-.9-.3t-1 .3-.4.7q0 .3.3.6.3.2.8.3l1 .3q.9.2 1.3.6.5.4.5 1.1 0 .6-.4 1-.3.5-.9.7-.5.3-1.3.3m5.3-6.7h1.4v.9h-1.4v4q0 .4.2.6t.6.2h.3q.1 0 .2-.1l.3.9q-.2.1-.4.1h-.4q-.9 0-1.4-.4-.4-.4-.4-1.3v-4h-1v-.9h1v-1.5h1zm5.4 6.7q-.9 0-1.6-.4-.6-.4-1-1.2t-.4-1.8.4-1.8q.4-.7 1-1.1.7-.5 1.6-.5t1.6.5q.6.4 1 1.1.4.8.4 1.8t-.4 1.8-1 1.2q-.7.4-1.6.4m0-.9q.7 0 1.1-.4.4-.3.6-.9.2-.5.2-1.2 0-.6-.2-1.2-.2-.5-.6-.9-.4-.3-1.1-.3t-1.1.3q-.4.4-.6.9-.2.6-.2 1.2 0 .7.2 1.2.2.6.6.9.4.4 1.1.4m5.6.8H215v-6.6h1v1h.1q.2-.5.7-.8.4-.3 1-.3h.5v1.1h-.2q-.2-.1-.4-.1-.5 0-.8.2-.4.2-.6.6-.2.3-.2.8zm5.3.1q-.6 0-1.2-.2-.5-.3-.8-.7-.3-.5-.3-1.1t.3-.9q.2-.4.6-.6.3-.2.8-.3.4-.1.9-.1.6-.1.9-.1.4-.1.6-.2t.2-.3v-.1q0-.4-.2-.7-.1-.2-.4-.4-.3-.1-.8-.1t-.8.1q-.3.2-.5.4-.3.2-.4.4l-1-.3q.3-.6.7-.9.4-.4.9-.5.6-.2 1.1-.2.3 0 .7.1t.8.3q.4.3.7.7.2.5.2 1.2v4.4h-1v-.9h-.1q-.1.2-.3.4-.3.3-.7.5-.4.1-.9.1m.2-.9q.5 0 .9-.2.4-.3.7-.6.2-.4.2-.8v-.9q-.1.1-.3.1-.2.1-.5.1-.3.1-.5.1-.3 0-.5.1-.3 0-.7.1-.3.1-.5.4-.2.2-.2.6 0 .3.2.5.2.3.5.4t.7.1m7.3 3.4q-.7 0-1.2-.2-.6-.2-.9-.5-.4-.3-.6-.7l.9-.5q.1.2.3.4t.6.4q.4.1.9.1.8 0 1.3-.3.5-.4.5-1.2v-1.3h-.1q-.1.2-.3.4-.2.3-.6.5-.3.2-1 .2-.8 0-1.4-.4t-1-1.1q-.3-.7-.3-1.7 0-1.1.3-1.8.4-.7 1-1.2.6-.4 1.4-.4.7 0 1.1.2.3.2.5.5t.4.5h.1v-1.1h1v6.7q0 .9-.4 1.4-.4.6-1 .8-.7.3-1.5.3m0-3.7q.6 0 1-.3.4-.2.6-.7t.2-1.3q0-.7-.2-1.2t-.6-.8-1-.3-1 .3q-.5.3-.7.8-.2.6-.2 1.2 0 .7.2 1.2.3.5.7.8t1 .3m7.5 1.2q-1 0-1.6-.4-.7-.4-1.1-1.2-.4-.7-.4-1.8 0-1 .4-1.7.3-.8 1-1.2.7-.5 1.6-.5.5 0 1 .2t.9.6q.4.3.7 1 .2.6.2 1.5v.4h-4.7q0 .7.2 1.1.3.5.7.8.5.3 1.1.3.4 0 .7-.1.3-.2.5-.4.3-.2.4-.5l1 .2q-.1.5-.5.9t-.9.6-1.2.2m-2-3.9h3.6q0-.5-.1-.9-.2-.5-.6-.7-.4-.3-1-.3t-1 .3q-.5.3-.7.7t-.2.9" clip-path="url(#b)" mask="url(#c)"/><clipPath id="T" clip-path="url(#b)"><path d="M395 464h20v20h-20z"/></clipPath><mask id="U"><path fill="#fff" d="M395 464h20v20h-20z" mask="url(#c)"/></mask><image width="20" height="20" x="395" y="464" clip-path="url(#T)" href="data:image/svg+xml;utf8,%3Csvg fill=%22none%22 xmlns=%22http://www.w3.org/2000/svg%22 width=%2220%22 height=%2220%22 viewBox=%220 0 20 20%22%3E%3Ccircle cx=%2210%22 cy=%2210%22 r=%2210%22 fill=%22%2310b981%22 fill-opacity=%220.15%22%3E%3C/circle%3E%3Cpath d=%22M6 10.5L8.5 13L14 7%22 stroke=%22%2310b981%22 stroke-width=%222%22 stroke-linecap=%22round%22 stroke-linejoin=%22round%22%3E%3C/path%3E%3C/svg%3E" mask="url(#U)" preserveAspectRatio="none"/><clipPath id="V" clip-path="url(#b)"><path d="M602 464h20v20h-20z"/></clipPath><mask id="W"><path fill="#fff" d="M602 464h20v20h-20z" mask="url(#c)"/></mask><image width="20" height="20" x="602" y="464" clip-path="url(#V)" href="data:image/svg+xml;utf8,%3Csvg fill=%22none%22 xmlns=%22http://www.w3.org/2000/svg%22 width=%2220%22 height=%2220%22 viewBox=%220 0 20 20%22%3E%3Ccircle cx=%2210%22 cy=%2210%22 r=%2210%22 fill=%22%2310b981%22 fill-opacity=%220.15%22%3E%3C/circle%3E%3Cpath d=%22M6 10.5L8.5 13L14 7%22 stroke=%22%2310b981%22 stroke-width=%222%22 stroke-linecap=%22round%22 stroke-linejoin=%22round%22%3E%3C/path%3E%3C/svg%3E" mask="url(#W)" preserveAspectRatio="none"/><clipPath id="X" clip-path="url(#b)"><path d="M818 464h20v20h-20z"/></clipPath><mask id="Y"><path fill="#fff" d="M818 464h20v20h-20z" mask="url(#c)"/></mask><image width="20" height="20" x="818" y="464" clip-path="url(#X)" href="data:image/svg+xml;utf8,%3Csvg fill=%22none%22 xmlns=%22http://www.w3.org/2000/svg%22 width=%2220%22 height=%2220%22 viewBox=%220 0 20 20%22%3E%3Ccircle cx=%2210%22 cy=%2210%22 r=%2210%22 fill=%22%2310b981%22 fill-opacity=%220.15%22%3E%3C/circle%3E%3Cpath d=%22M6 10.5L8.5 13L14 7%22 stroke=%22%2310b981%22 stroke-width=%222%22 stroke-linecap=%22round%22 stroke-linejoin=%22round%22%3E%3C/path%3E%3C/svg%3E" mask="url(#Y)" preserveAspectRatio="none"/><clipPath id="Z" clip-path="url(#b)"><path d="M1025 464h20v20h-20z"/></clipPath><mask id="aa"><path fill="#fff" d="M1025 464h20v20h-20z" mask="url(#c)"/></mask><image width="20" height="20" x="1025" y="464" clip-path="url(#Z)" href="data:image/svg+xml;utf8,%3Csvg fill=%22none%22 xmlns=%22http://www.w3.org/2000/svg%22 width=%2220%22 height=%2220%22 viewBox=%220 0 20 20%22%3E%3Ccircle cx=%2210%22 cy=%2210%22 r=%2210%22 fill=%22%2310b981%22 fill-opacity=%220.15%22%3E%3C/circle%3E%3Cpath d=%22M6 10.5L8.5 13L14 7%22 stroke=%22%2310b981%22 stroke-width=%222%22 stroke-linecap=%22round%22 stroke-linejoin=%22round%22%3E%3C/path%3E%3C/svg%3E" mask="url(#aa)" preserveAspectRatio="none"/></svg>